<ttFont>
    <TTGlyph name=".notdef" xMin="88" yMin="-222" xMax="694" yMax="778">
      <contour>
        <pt x="88" y="778" on="1"/>
        <pt x="694" y="778" on="1"/>
        <pt x="694" y="-222" on="1"/>
        <pt x="88" y="-222" on="1"/>
      </contour>
      <contour>
        <pt x="441" y="277" on="1"/>
        <pt x="581" y="-69" on="1"/>
        <pt x="581" y="624" on="1"/>
      </contour>
      <contour>
        <pt x="340" y="277" on="1"/>
        <pt x="201" y="624" on="1"/>
        <pt x="201" y="-69" on="1"/>
      </contour>
      <contour>
        <pt x="391" y="403" on="1"/>
        <pt x="500" y="674" on="1"/>
        <pt x="282" y="674" on="1"/>
      </contour>
      <contour>
        <pt x="391" y="152" on="1"/>
        <pt x="282" y="-118" on="1"/>
        <pt x="500" y="-118" on="1"/>
      </contour>
    </TTGlyph>
    <TTGlyph name="A" xMin="18" yMin="0" xMax="800" yMax="778">
      <contour>
        <pt x="408" y="164" on="1"/>
        <pt x="468" y="164" on="1"/>
        <pt x="451" y="244" on="1"/>
        <pt x="316" y="244" on="1"/>
        <pt x="300" y="164" on="1"/>
        <pt x="360" y="164" on="1"/>
        <pt x="360" y="0" on="1"/>
        <pt x="18" y="0" on="1"/>
        <pt x="18" y="164" on="1"/>
        <pt x="58" y="164" on="1"/>
        <pt x="227" y="778" on="1"/>
        <pt x="591" y="778" on="1"/>
        <pt x="760" y="164" on="1"/>
        <pt x="800" y="164" on="1"/>
        <pt x="800" y="0" on="1"/>
        <pt x="408" y="0" on="1"/>
      </contour>
      <contour>
        <pt x="338" y="350" on="1"/>
        <pt x="430" y="350" on="1"/>
        <pt x="389" y="549" on="1"/>
        <pt x="379" y="549" on="1"/>
      </contour>
    </TTGlyph>
    <TTGlyph name="AE" xMin="-2" yMin="0" xMax="1106" yMax="778">
      <contour>
        <pt x="882" y="614" on="1"/>
        <pt x="761" y="614" on="1"/>
        <pt x="761" y="456" on="1"/>
        <pt x="849" y="456" on="1"/>
        <pt x="849" y="342" on="1"/>
        <pt x="761" y="342" on="1"/>
        <pt x="761" y="164" on="1"/>
        <pt x="882" y="164" on="1"/>
        <pt x="882" y="322" on="1"/>
        <pt x="1106" y="322" on="1"/>
        <pt x="1106" y="0" on="1"/>
        <pt x="431" y="0" on="1"/>
        <pt x="431" y="164" on="1"/>
        <pt x="481" y="164" on="1"/>
        <pt x="481" y="244" on="1"/>
        <pt x="344" y="244" on="1"/>
        <pt x="315" y="164" on="1"/>
        <pt x="375" y="164" on="1"/>
        <pt x="375" y="0" on="1"/>
        <pt x="-2" y="0" on="1"/>
        <pt x="-2" y="164" on="1"/>
        <pt x="38" y="164" on="1"/>
        <pt x="297" y="778" on="1"/>
        <pt x="1106" y="778" on="1"/>
        <pt x="1106" y="476" on="1"/>
        <pt x="882" y="476" on="1"/>
      </contour>
      <contour>
        <pt x="386" y="360" on="1"/>
        <pt x="481" y="360" on="1"/>
        <pt x="481" y="591" on="1"/>
        <pt x="471" y="591" on="1"/>
      </contour>
    </TTGlyph>
    <TTGlyph name="Aacute" xMin="18" yMin="0" xMax="800" yMax="952">
      <component glyphName="A" x="0" y="0" flags="0x204"/>
      <component glyphName="acute.cap" x="300" y="0" flags="0x4"/>
    </TTGlyph>
    <TTGlyph name="Acircumflex" xMin="18" yMin="0" xMax="800" yMax="952">
      <component glyphName="A" x="0" y="0" flags="0x204"/>
      <component glyphName="circumflex.cap" x="181" y="0" flags="0x4"/>
    </TTGlyph>
    <TTGlyph name="Adieresis" xMin="18" yMin="0" xMax="800" yMax="952">
      <component glyphName="A" x="0" y="0" flags="0x204"/>
      <component glyphName="dieresis.cap" x="165" y="0" flags="0x4"/>
    </TTGlyph>
    <TTGlyph name="Agrave" xMin="18" yMin="0" xMax="800" yMax="952">
      <component glyphName="A" x="0" y="0" flags="0x204"/>
      <component glyphName="grave.cap" x="205" y="0" flags="0x4"/>
    </TTGlyph>
    <TTGlyph name="Aring" xMin="18" yMin="0" xMax="800" yMax="1036">
      <component glyphName="A" x="0" y="0" flags="0x204"/>
      <component glyphName="ring.cap" x="298" y="0" flags="0x4"/>
    </TTGlyph>
    <TTGlyph name="Atilde" xMin="18" yMin="0" xMax="800" yMax="1007">
      <component glyphName="A" x="0" y="0" flags="0x204"/>
      <component glyphName="tilde.cap" x="146" y="0" flags="0x4"/>
    </TTGlyph>
    <TTGlyph name="B" xMin="26" yMin="0" xMax="779" yMax="778">
      <contour>
        <pt x="26" y="778" on="1"/>
        <pt x="495" y="778" on="1"/>
        <pt x="618" y="778" on="0"/>
        <pt x="760" y="678" on="0"/>
        <pt x="760" y="581" on="1"/>
        <pt x="760" y="533" on="0"/>
        <pt x="724" y="465" on="0"/>
        <pt x="672" y="421" on="0"/>
        <pt x="615" y="397" on="0"/>
        <pt x="594" y="393" on="1"/>
        <pt x="594" y="383" on="1"/>
        <pt x="616" y="381" on="0"/>
        <pt x="680" y="366" on="0"/>
        <pt x="738" y="327" on="0"/>
        <pt x="779" y="258" on="0"/>
        <pt x="779" y="202" on="1"/>
        <pt x="779" y="146" on="0"/>
        <pt x="733" y="69" on="0"/>
        <pt x="655" y="21" on="0"/>
        <pt x="552" y="0" on="0"/>
        <pt x="495" y="0" on="1"/>
        <pt x="26" y="0" on="1"/>
        <pt x="26" y="164" on="1"/>
        <pt x="86" y="164" on="1"/>
        <pt x="86" y="614" on="1"/>
        <pt x="26" y="614" on="1"/>
      </contour>
      <contour>
        <pt x="420" y="450" on="1"/>
        <pt x="449" y="450" on="0"/>
        <pt x="478" y="480" on="0"/>
        <pt x="478" y="514" on="1"/>
        <pt x="478" y="550" on="1"/>
        <pt x="478" y="584" on="0"/>
        <pt x="449" y="614" on="0"/>
        <pt x="420" y="614" on="1"/>
        <pt x="366" y="614" on="1"/>
        <pt x="366" y="450" on="1"/>
      </contour>
      <contour>
        <pt x="427" y="164" on="1"/>
        <pt x="456" y="164" on="0"/>
        <pt x="485" y="194" on="0"/>
        <pt x="485" y="228" on="1"/>
        <pt x="485" y="272" on="1"/>
        <pt x="485" y="306" on="0"/>
        <pt x="456" y="336" on="0"/>
        <pt x="427" y="336" on="1"/>
        <pt x="366" y="336" on="1"/>
        <pt x="366" y="164" on="1"/>
      </contour>
    </TTGlyph>
    <TTGlyph name="C" xMin="18" yMin="-14" xMax="708" yMax="792">
      <contour>
        <pt x="468" y="319" on="1"/>
        <pt x="708" y="319" on="1"/>
        <pt x="708" y="60" on="1"/>
        <pt x="688" y="48" on="0"/>
        <pt x="631" y="21" on="0"/>
        <pt x="556" y="0" on="0"/>
        <pt x="461" y="-14" on="0"/>
        <pt x="402" y="-14" on="1"/>
        <pt x="314" y="-14" on="0"/>
        <pt x="172" y="30" on="0"/>
        <pt x="72" y="126" on="0"/>
        <pt x="18" y="279" on="0"/>
        <pt x="18" y="389" on="1"/>
        <pt x="18" y="498" on="0"/>
        <pt x="72" y="652" on="0"/>
        <pt x="171" y="748" on="0"/>
        <pt x="313" y="792" on="0"/>
        <pt x="400" y="792" on="1"/>
        <pt x="460" y="792" on="0"/>
        <pt x="554" y="778" on="0"/>
        <pt x="629" y="757" on="0"/>
        <pt x="686" y="730" on="0"/>
        <pt x="708" y="718" on="1"/>
        <pt x="708" y="468" on="1"/>
        <pt x="468" y="468" on="1"/>
        <pt x="468" y="540" on="1"/>
        <pt x="468" y="579" on="0"/>
        <pt x="434" y="614" on="0"/>
        <pt x="400" y="614" on="1"/>
        <pt x="366" y="614" on="0"/>
        <pt x="332" y="579" on="0"/>
        <pt x="332" y="540" on="1"/>
        <pt x="332" y="238" on="1"/>
        <pt x="332" y="199" on="0"/>
        <pt x="366" y="164" on="0"/>
        <pt x="400" y="164" on="1"/>
        <pt x="434" y="164" on="0"/>
        <pt x="468" y="199" on="0"/>
        <pt x="468" y="238" on="1"/>
      </contour>
    </TTGlyph>
    <TTGlyph name="Ccedilla" xMin="18" yMin="-247" xMax="708" yMax="792">
      <contour>
        <pt x="468" y="319" on="1"/>
        <pt x="708" y="319" on="1"/>
        <pt x="708" y="60" on="1"/>
        <pt x="688" y="48" on="0"/>
        <pt x="631" y="21" on="0"/>
        <pt x="556" y="0" on="0"/>
        <pt x="508" y="-7" on="1"/>
        <pt x="475" y="-12" on="0"/>
        <pt x="435" y="-13" on="1"/>
        <pt x="435" y="-40" on="1"/>
        <pt x="480" y="-40" on="0"/>
        <pt x="536" y="-86" on="0"/>
        <pt x="536" y="-134" on="1"/>
        <pt x="536" y="-188" on="0"/>
        <pt x="461" y="-247" on="0"/>
        <pt x="395" y="-247" on="1"/>
        <pt x="360" y="-247" on="0"/>
        <pt x="297" y="-236" on="0"/>
        <pt x="272" y="-229" on="1"/>
        <pt x="272" y="-158" on="1"/>
        <pt x="292" y="-163" on="0"/>
        <pt x="350" y="-172" on="0"/>
        <pt x="384" y="-172" on="1"/>
        <pt x="402" y="-172" on="0"/>
        <pt x="418" y="-154" on="0"/>
        <pt x="418" y="-140" on="1"/>
        <pt x="418" y="-126" on="0"/>
        <pt x="402" y="-108" on="0"/>
        <pt x="384" y="-108" on="1"/>
        <pt x="340" y="-108" on="1"/>
        <pt x="340" y="-11" on="1"/>
        <pt x="288" y="-6" on="0"/>
        <pt x="243" y="8" on="1"/>
        <pt x="172" y="30" on="0"/>
        <pt x="72" y="126" on="0"/>
        <pt x="18" y="279" on="0"/>
        <pt x="18" y="389" on="1"/>
        <pt x="18" y="498" on="0"/>
        <pt x="72" y="652" on="0"/>
        <pt x="171" y="748" on="0"/>
        <pt x="313" y="792" on="0"/>
        <pt x="400" y="792" on="1"/>
        <pt x="460" y="792" on="0"/>
        <pt x="554" y="778" on="0"/>
        <pt x="629" y="757" on="0"/>
        <pt x="686" y="730" on="0"/>
        <pt x="708" y="718" on="1"/>
        <pt x="708" y="468" on="1"/>
        <pt x="468" y="468" on="1"/>
        <pt x="468" y="540" on="1"/>
        <pt x="468" y="579" on="0"/>
        <pt x="434" y="614" on="0"/>
        <pt x="400" y="614" on="1"/>
        <pt x="366" y="614" on="0"/>
        <pt x="332" y="579" on="0"/>
        <pt x="332" y="540" on="1"/>
        <pt x="332" y="238" on="1"/>
        <pt x="332" y="199" on="0"/>
        <pt x="366" y="164" on="0"/>
        <pt x="400" y="164" on="1"/>
        <pt x="434" y="164" on="0"/>
        <pt x="468" y="199" on="0"/>
        <pt x="468" y="238" on="1"/>
      </contour>
    </TTGlyph>
    <TTGlyph name="D" xMin="28" yMin="0" xMax="808" yMax="778">
      <contour>
        <pt x="28" y="778" on="1"/>
        <pt x="444" y="778" on="1"/>
        <pt x="521" y="778" on="0"/>
        <pt x="654" y="739" on="0"/>
        <pt x="752" y="647" on="0"/>
        <pt x="808" y="498" on="0"/>
        <pt x="808" y="389" on="1"/>
        <pt x="808" y="279" on="0"/>
        <pt x="752" y="131" on="0"/>
        <pt x="654" y="39" on="0"/>
        <pt x="521" y="0" on="0"/>
        <pt x="444" y="0" on="1"/>
        <pt x="28" y="0" on="1"/>
        <pt x="28" y="164" on="1"/>
        <pt x="88" y="164" on="1"/>
        <pt x="88" y="613" on="1"/>
        <pt x="28" y="613" on="1"/>
      </contour>
      <contour>
        <pt x="426" y="164" on="1"/>
        <pt x="460" y="164" on="0"/>
        <pt x="494" y="199" on="0"/>
        <pt x="494" y="238" on="1"/>
        <pt x="494" y="540" on="1"/>
        <pt x="494" y="579" on="0"/>
        <pt x="458" y="614" on="0"/>
        <pt x="426" y="614" on="1"/>
        <pt x="368" y="614" on="1"/>
        <pt x="368" y="164" on="1"/>
      </contour>
    </TTGlyph>
    <TTGlyph name="E" xMin="26" yMin="0" xMax="711" yMax="778">
      <contour>
        <pt x="487" y="614" on="1"/>
        <pt x="366" y="614" on="1"/>
        <pt x="366" y="456" on="1"/>
        <pt x="454" y="456" on="1"/>
        <pt x="454" y="342" on="1"/>
        <pt x="366" y="342" on="1"/>
        <pt x="366" y="164" on="1"/>
        <pt x="487" y="164" on="1"/>
        <pt x="487" y="322" on="1"/>
        <pt x="711" y="322" on="1"/>
        <pt x="711" y="0" on="1"/>
        <pt x="26" y="0" on="1"/>
        <pt x="26" y="164" on="1"/>
        <pt x="86" y="164" on="1"/>
        <pt x="86" y="614" on="1"/>
        <pt x="26" y="614" on="1"/>
        <pt x="26" y="778" on="1"/>
        <pt x="711" y="778" on="1"/>
        <pt x="711" y="476" on="1"/>
        <pt x="487" y="476" on="1"/>
      </contour>
    </TTGlyph>
    <TTGlyph name="Eacute" xMin="26" yMin="0" xMax="711" yMax="952">
      <component glyphName="E" x="0" y="0" flags="0x204"/>
      <component glyphName="acute.cap" x="301" y="0" flags="0x4"/>
    </TTGlyph>
    <TTGlyph name="Ecircumflex" xMin="26" yMin="0" xMax="711" yMax="952">
      <component glyphName="E" x="0" y="0" flags="0x204"/>
      <component glyphName="circumflex.cap" x="182" y="0" flags="0x4"/>
    </TTGlyph>
    <TTGlyph name="Edieresis" xMin="26" yMin="0" xMax="711" yMax="952">
      <component glyphName="E" x="0" y="0" flags="0x204"/>
      <component glyphName="dieresis.cap" x="166" y="0" flags="0x4"/>
    </TTGlyph>
    <TTGlyph name="Egrave" xMin="26" yMin="0" xMax="711" yMax="952">
      <component glyphName="E" x="0" y="0" flags="0x204"/>
      <component glyphName="grave.cap" x="206" y="0" flags="0x4"/>
    </TTGlyph>
    <TTGlyph name="Eth" xMin="17" yMin="0" xMax="808" yMax="778">
      <contour>
        <pt x="28" y="778" on="1"/>
        <pt x="444" y="778" on="1"/>
        <pt x="521" y="778" on="0"/>
        <pt x="654" y="739" on="0"/>
        <pt x="752" y="647" on="0"/>
        <pt x="808" y="498" on="0"/>
        <pt x="808" y="389" on="1"/>
        <pt x="808" y="279" on="0"/>
        <pt x="752" y="131" on="0"/>
        <pt x="654" y="39" on="0"/>
        <pt x="521" y="0" on="0"/>
        <pt x="444" y="0" on="1"/>
        <pt x="28" y="0" on="1"/>
        <pt x="28" y="164" on="1"/>
        <pt x="88" y="164" on="1"/>
        <pt x="88" y="311" on="1"/>
        <pt x="17" y="311" on="1"/>
        <pt x="17" y="475" on="1"/>
        <pt x="88" y="475" on="1"/>
        <pt x="88" y="613" on="1"/>
        <pt x="28" y="613" on="1"/>
      </contour>
      <contour>
        <pt x="426" y="164" on="1"/>
        <pt x="460" y="164" on="0"/>
        <pt x="494" y="199" on="0"/>
        <pt x="494" y="238" on="1"/>
        <pt x="494" y="540" on="1"/>
        <pt x="494" y="579" on="0"/>
        <pt x="458" y="614" on="0"/>
        <pt x="426" y="614" on="1"/>
        <pt x="368" y="614" on="1"/>
        <pt x="368" y="475" on="1"/>
        <pt x="429" y="475" on="1"/>
        <pt x="429" y="311" on="1"/>
        <pt x="368" y="311" on="1"/>
        <pt x="368" y="164" on="1"/>
      </contour>
    </TTGlyph>
    <TTGlyph name="Euro" xMin="12" yMin="-14" xMax="709" yMax="792">
      <contour>
        <pt x="527" y="614" on="1"/>
        <pt x="467" y="614" on="0"/>
        <pt x="401" y="562" on="0"/>
        <pt x="392" y="510" on="1"/>
        <pt x="668" y="510" on="1"/>
        <pt x="654" y="431" on="1"/>
        <pt x="389" y="431" on="1"/>
        <pt x="389" y="355" on="1"/>
        <pt x="641" y="355" on="1"/>
        <pt x="627" y="276" on="1"/>
        <pt x="392" y="276" on="1"/>
        <pt x="400" y="219" on="0"/>
        <pt x="464" y="164" on="0"/>
        <pt x="527" y="164" on="1"/>
        <pt x="564" y="164" on="0"/>
        <pt x="651" y="185" on="0"/>
        <pt x="689" y="199" on="1"/>
        <pt x="689" y="46" on="1"/>
        <pt x="672" y="36" on="0"/>
        <pt x="625" y="15" on="0"/>
        <pt x="566" y="-3" on="0"/>
        <pt x="493" y="-14" on="0"/>
        <pt x="449" y="-14" on="1"/>
        <pt x="375" y="-14" on="0"/>
        <pt x="252" y="18" on="0"/>
        <pt x="158" y="88" on="0"/>
        <pt x="96" y="198" on="0"/>
        <pt x="83" y="276" on="1"/>
        <pt x="12" y="276" on="1"/>
        <pt x="12" y="355" on="1"/>
        <pt x="76" y="355" on="1"/>
        <pt x="75" y="363" on="0"/>
        <pt x="75" y="380" on="0"/>
        <pt x="75" y="389" on="1"/>
        <pt x="75" y="400" on="0"/>
        <pt x="75" y="420" on="0"/>
        <pt x="76" y="431" on="1"/>
        <pt x="12" y="431" on="1"/>
        <pt x="12" y="510" on="1"/>
        <pt x="85" y="510" on="1"/>
        <pt x="99" y="586" on="0"/>
        <pt x="165" y="693" on="0"/>
        <pt x="264" y="761" on="0"/>
        <pt x="393" y="792" on="0"/>
        <pt x="470" y="792" on="1"/>
        <pt x="513" y="792" on="0"/>
        <pt x="585" y="783" on="0"/>
        <pt x="644" y="768" on="0"/>
        <pt x="691" y="750" on="0"/>
        <pt x="709" y="742" on="1"/>
        <pt x="682" y="589" on="1"/>
        <pt x="650" y="599" on="0"/>
        <pt x="571" y="614" on="0"/>
      </contour>
    </TTGlyph>
    <TTGlyph name="F" xMin="28" yMin="0" xMax="636" yMax="778">
      <contour>
        <pt x="459" y="614" on="1"/>
        <pt x="368" y="614" on="1"/>
        <pt x="368" y="448" on="1"/>
        <pt x="519" y="448" on="1"/>
        <pt x="519" y="334" on="1"/>
        <pt x="368" y="334" on="1"/>
        <pt x="368" y="164" on="1"/>
        <pt x="499" y="164" on="1"/>
        <pt x="499" y="0" on="1"/>
        <pt x="28" y="0" on="1"/>
        <pt x="28" y="164" on="1"/>
        <pt x="88" y="164" on="1"/>
        <pt x="88" y="614" on="1"/>
        <pt x="28" y="614" on="1"/>
        <pt x="28" y="778" on="1"/>
        <pt x="636" y="778" on="1"/>
        <pt x="636" y="519" on="1"/>
        <pt x="459" y="519" on="1"/>
      </contour>
    </TTGlyph>
    <TTGlyph name="G" xMin="20" yMin="-14" xMax="780" yMax="792">
      <contour>
        <pt x="426" y="399" on="1"/>
        <pt x="780" y="399" on="1"/>
        <pt x="780" y="250" on="1"/>
        <pt x="730" y="250" on="1"/>
        <pt x="730" y="50" on="1"/>
        <pt x="707" y="39" on="0"/>
        <pt x="646" y="16" on="0"/>
        <pt x="567" y="-2" on="0"/>
        <pt x="469" y="-14" on="0"/>
        <pt x="409" y="-14" on="1"/>
        <pt x="319" y="-14" on="0"/>
        <pt x="175" y="30" on="0"/>
        <pt x="74" y="126" on="0"/>
        <pt x="20" y="279" on="0"/>
        <pt x="20" y="389" on="1"/>
        <pt x="20" y="498" on="0"/>
        <pt x="74" y="652" on="0"/>
        <pt x="174" y="748" on="0"/>
        <pt x="318" y="792" on="0"/>
        <pt x="407" y="792" on="1"/>
        <pt x="468" y="792" on="0"/>
        <pt x="567" y="780" on="0"/>
        <pt x="646" y="761" on="0"/>
        <pt x="707" y="738" on="0"/>
        <pt x="730" y="727" on="1"/>
        <pt x="730" y="488" on="1"/>
        <pt x="480" y="488" on="1"/>
        <pt x="480" y="535" on="1"/>
        <pt x="480" y="578" on="0"/>
        <pt x="445" y="614" on="0"/>
        <pt x="407" y="614" on="1"/>
        <pt x="369" y="614" on="0"/>
        <pt x="334" y="578" on="0"/>
        <pt x="334" y="535" on="1"/>
        <pt x="334" y="243" on="1"/>
        <pt x="334" y="200" on="0"/>
        <pt x="369" y="164" on="0"/>
        <pt x="407" y="164" on="1"/>
        <pt x="445" y="164" on="0"/>
        <pt x="480" y="200" on="0"/>
        <pt x="480" y="243" on="1"/>
        <pt x="480" y="250" on="1"/>
        <pt x="426" y="250" on="1"/>
      </contour>
    </TTGlyph>
    <TTGlyph name="H" xMin="24" yMin="0" xMax="854" yMax="778">
      <contour>
        <pt x="463" y="778" on="1"/>
        <pt x="854" y="778" on="1"/>
        <pt x="854" y="614" on="1"/>
        <pt x="794" y="614" on="1"/>
        <pt x="794" y="164" on="1"/>
        <pt x="854" y="164" on="1"/>
        <pt x="854" y="0" on="1"/>
        <pt x="463" y="0" on="1"/>
        <pt x="463" y="164" on="1"/>
        <pt x="514" y="164" on="1"/>
        <pt x="514" y="329" on="1"/>
        <pt x="364" y="329" on="1"/>
        <pt x="364" y="164" on="1"/>
        <pt x="415" y="164" on="1"/>
        <pt x="415" y="0" on="1"/>
        <pt x="24" y="0" on="1"/>
        <pt x="24" y="164" on="1"/>
        <pt x="84" y="164" on="1"/>
        <pt x="84" y="614" on="1"/>
        <pt x="24" y="614" on="1"/>
        <pt x="24" y="778" on="1"/>
        <pt x="415" y="778" on="1"/>
        <pt x="415" y="614" on="1"/>
        <pt x="364" y="614" on="1"/>
        <pt x="364" y="462" on="1"/>
        <pt x="514" y="462" on="1"/>
        <pt x="514" y="614" on="1"/>
        <pt x="463" y="614" on="1"/>
      </contour>
    </TTGlyph>
    <TTGlyph name="I" xMin="24" yMin="0" xMax="424" yMax="778">
      <contour>
        <pt x="24" y="778" on="1"/>
        <pt x="424" y="778" on="1"/>
        <pt x="424" y="614" on="1"/>
        <pt x="364" y="614" on="1"/>
        <pt x="364" y="164" on="1"/>
        <pt x="424" y="164" on="1"/>
        <pt x="424" y="0" on="1"/>
        <pt x="24" y="0" on="1"/>
        <pt x="24" y="164" on="1"/>
        <pt x="84" y="164" on="1"/>
        <pt x="84" y="614" on="1"/>
        <pt x="24" y="614" on="1"/>
      </contour>
    </TTGlyph>
    <TTGlyph name="IJ" xMin="24" yMin="-14" xMax="932" yMax="778">
      <contour>
        <pt x="530" y="164" on="1"/>
        <pt x="557" y="164" on="0"/>
        <pt x="592" y="209" on="0"/>
        <pt x="592" y="258" on="1"/>
        <pt x="592" y="614" on="1"/>
        <pt x="491" y="614" on="1"/>
        <pt x="491" y="778" on="1"/>
        <pt x="932" y="778" on="1"/>
        <pt x="932" y="614" on="1"/>
        <pt x="872" y="614" on="1"/>
        <pt x="872" y="278" on="1"/>
        <pt x="872" y="199" on="0"/>
        <pt x="826" y="88" on="0"/>
        <pt x="747" y="18" on="0"/>
        <pt x="642" y="-14" on="0"/>
        <pt x="584" y="-14" on="1"/>
        <pt x="529" y="-14" on="0"/>
        <pt x="463" y="-2" on="0"/>
        <pt x="446" y="7" on="1"/>
        <pt x="446" y="175" on="1"/>
        <pt x="473" y="169" on="1"/>
        <pt x="485" y="166" on="0"/>
        <pt x="514" y="164" on="0"/>
      </contour>
      <contour>
        <pt x="24" y="778" on="1"/>
        <pt x="424" y="778" on="1"/>
        <pt x="424" y="614" on="1"/>
        <pt x="364" y="614" on="1"/>
        <pt x="364" y="164" on="1"/>
        <pt x="424" y="164" on="1"/>
        <pt x="424" y="0" on="1"/>
        <pt x="24" y="0" on="1"/>
        <pt x="24" y="164" on="1"/>
        <pt x="84" y="164" on="1"/>
        <pt x="84" y="614" on="1"/>
        <pt x="24" y="614" on="1"/>
      </contour>
    </TTGlyph>
    <TTGlyph name="Iacute" xMin="24" yMin="0" xMax="480" yMax="952">
      <component glyphName="I" x="0" y="0" flags="0x204"/>
      <component glyphName="acute.cap" x="137" y="0" flags="0x4"/>
    </TTGlyph>
    <TTGlyph name="Icircumflex" xMin="-25" yMin="0" xMax="492" yMax="952">
      <component glyphName="I" x="0" y="0" flags="0x204"/>
      <component glyphName="circumflex.cap" x="18" y="0" flags="0x4"/>
    </TTGlyph>
    <TTGlyph name="Idieresis" xMin="-4" yMin="0" xMax="468" yMax="952">
      <component glyphName="I" x="0" y="0" flags="0x204"/>
      <component glyphName="dieresis.cap" x="2" y="0" flags="0x4"/>
    </TTGlyph>
    <TTGlyph name="Igrave" xMin="-13" yMin="0" xMax="424" yMax="952">
      <component glyphName="I" x="0" y="0" flags="0x204"/>
      <component glyphName="grave.cap" x="42" y="0" flags="0x4"/>
    </TTGlyph>
    <TTGlyph name="Itilde" xMin="-19" yMin="0" xMax="486" yMax="1007">
      <component glyphName="I" x="0" y="0" flags="0x204"/>
      <component glyphName="tilde.cap" x="-16" y="0" flags="0x4"/>
    </TTGlyph>
    <TTGlyph name="J" xMin="14" yMin="-14" xMax="520" yMax="778">
      <contour>
        <pt x="105" y="164" on="1"/>
        <pt x="139" y="164" on="0"/>
        <pt x="180" y="207" on="0"/>
        <pt x="180" y="258" on="1"/>
        <pt x="180" y="614" on="1"/>
        <pt x="69" y="614" on="1"/>
        <pt x="69" y="778" on="1"/>
        <pt x="520" y="778" on="1"/>
        <pt x="520" y="614" on="1"/>
        <pt x="460" y="614" on="1"/>
        <pt x="460" y="267" on="1"/>
        <pt x="460" y="190" on="0"/>
        <pt x="413" y="84" on="0"/>
        <pt x="332" y="16" on="0"/>
        <pt x="223" y="-14" on="0"/>
        <pt x="162" y="-14" on="1"/>
        <pt x="117" y="-14" on="0"/>
        <pt x="33" y="-1" on="0"/>
        <pt x="14" y="7" on="1"/>
        <pt x="14" y="175" on="1"/>
        <pt x="36" y="170" on="0"/>
        <pt x="86" y="164" on="0"/>
      </contour>
    </TTGlyph>
    <TTGlyph name="Jcircumflex" xMin="14" yMin="-14" xMax="560" yMax="952">
      <component glyphName="J" x="0" y="0" flags="0x204"/>
      <component glyphName="circumflex.cap" x="86" y="0" flags="0x4"/>
    </TTGlyph>
    <TTGlyph name="K" xMin="26" yMin="0" xMax="822" yMax="778">
      <contour>
        <pt x="767" y="614" on="1"/>
        <pt x="610" y="412" on="1"/>
        <pt x="782" y="164" on="1"/>
        <pt x="822" y="164" on="1"/>
        <pt x="822" y="0" on="1"/>
        <pt x="524" y="0" on="1"/>
        <pt x="366" y="274" on="1"/>
        <pt x="366" y="0" on="1"/>
        <pt x="26" y="0" on="1"/>
        <pt x="26" y="164" on="1"/>
        <pt x="86" y="164" on="1"/>
        <pt x="86" y="614" on="1"/>
        <pt x="26" y="614" on="1"/>
        <pt x="26" y="778" on="1"/>
        <pt x="366" y="778" on="1"/>
        <pt x="366" y="509" on="1"/>
        <pt x="549" y="778" on="1"/>
        <pt x="807" y="778" on="1"/>
        <pt x="807" y="614" on="1"/>
      </contour>
    </TTGlyph>
    <TTGlyph name="L" xMin="26" yMin="0" xMax="655" yMax="778">
      <contour>
        <pt x="26" y="778" on="1"/>
        <pt x="458" y="778" on="1"/>
        <pt x="458" y="614" on="1"/>
        <pt x="366" y="614" on="1"/>
        <pt x="366" y="164" on="1"/>
        <pt x="456" y="164" on="1"/>
        <pt x="456" y="256" on="1"/>
        <pt x="655" y="256" on="1"/>
        <pt x="655" y="0" on="1"/>
        <pt x="26" y="0" on="1"/>
        <pt x="26" y="164" on="1"/>
        <pt x="86" y="164" on="1"/>
        <pt x="86" y="614" on="1"/>
        <pt x="26" y="614" on="1"/>
      </contour>
    </TTGlyph>
    <TTGlyph name="Ldotaccent" xMin="5" yMin="0" xMax="634" yMax="778">
      <contour>
        <pt x="5" y="778" on="1"/>
        <pt x="437" y="778" on="1"/>
        <pt x="437" y="614" on="1"/>
        <pt x="345" y="614" on="1"/>
        <pt x="345" y="164" on="1"/>
        <pt x="435" y="164" on="1"/>
        <pt x="435" y="256" on="1"/>
        <pt x="634" y="256" on="1"/>
        <pt x="634" y="0" on="1"/>
        <pt x="5" y="0" on="1"/>
        <pt x="5" y="164" on="1"/>
        <pt x="65" y="164" on="1"/>
        <pt x="65" y="614" on="1"/>
        <pt x="5" y="614" on="1"/>
      </contour>
      <contour>
        <pt x="478" y="472" on="1"/>
        <pt x="634" y="472" on="1"/>
        <pt x="634" y="320" on="1"/>
        <pt x="478" y="320" on="1"/>
      </contour>
    </TTGlyph>
    <TTGlyph name="Lslash" xMin="-12" yMin="0" xMax="655" yMax="778">
      <contour>
        <pt x="26" y="778" on="1"/>
        <pt x="458" y="778" on="1"/>
        <pt x="458" y="614" on="1"/>
        <pt x="366" y="614" on="1"/>
        <pt x="366" y="487" on="1"/>
        <pt x="591" y="573" on="1"/>
        <pt x="591" y="452" on="1"/>
        <pt x="366" y="366" on="1"/>
        <pt x="366" y="164" on="1"/>
        <pt x="456" y="164" on="1"/>
        <pt x="456" y="256" on="1"/>
        <pt x="655" y="256" on="1"/>
        <pt x="655" y="0" on="1"/>
        <pt x="26" y="0" on="1"/>
        <pt x="26" y="164" on="1"/>
        <pt x="86" y="164" on="1"/>
        <pt x="86" y="259" on="1"/>
        <pt x="-12" y="222" on="1"/>
        <pt x="-12" y="343" on="1"/>
        <pt x="86" y="380" on="1"/>
        <pt x="86" y="614" on="1"/>
        <pt x="26" y="614" on="1"/>
      </contour>
    </TTGlyph>
    <TTGlyph name="M" xMin="24" yMin="0" xMax="1187" yMax="778">
      <contour>
        <pt x="24" y="778" on="1"/>
        <pt x="502" y="778" on="1"/>
        <pt x="616" y="435" on="1"/>
        <pt x="726" y="778" on="1"/>
        <pt x="1187" y="778" on="1"/>
        <pt x="1187" y="614" on="1"/>
        <pt x="1127" y="614" on="1"/>
        <pt x="1127" y="164" on="1"/>
        <pt x="1187" y="164" on="1"/>
        <pt x="1187" y="0" on="1"/>
        <pt x="787" y="0" on="1"/>
        <pt x="787" y="164" on="1"/>
        <pt x="847" y="164" on="1"/>
        <pt x="847" y="559" on="1"/>
        <pt x="648" y="0" on="1"/>
        <pt x="540" y="0" on="1"/>
        <pt x="314" y="561" on="1"/>
        <pt x="314" y="164" on="1"/>
        <pt x="374" y="164" on="1"/>
        <pt x="374" y="0" on="1"/>
        <pt x="24" y="0" on="1"/>
        <pt x="24" y="164" on="1"/>
        <pt x="84" y="164" on="1"/>
        <pt x="84" y="614" on="1"/>
        <pt x="24" y="614" on="1"/>
      </contour>
    </TTGlyph>
    <TTGlyph name="N" xMin="22" yMin="0" xMax="946" yMax="778">
      <contour>
        <pt x="596" y="778" on="1"/>
        <pt x="946" y="778" on="1"/>
        <pt x="946" y="614" on="1"/>
        <pt x="886" y="614" on="1"/>
        <pt x="886" y="0" on="1"/>
        <pt x="605" y="0" on="1"/>
        <pt x="312" y="451" on="1"/>
        <pt x="312" y="164" on="1"/>
        <pt x="372" y="164" on="1"/>
        <pt x="372" y="0" on="1"/>
        <pt x="22" y="0" on="1"/>
        <pt x="22" y="164" on="1"/>
        <pt x="82" y="164" on="1"/>
        <pt x="82" y="614" on="1"/>
        <pt x="22" y="614" on="1"/>
        <pt x="22" y="778" on="1"/>
        <pt x="393" y="778" on="1"/>
        <pt x="656" y="376" on="1"/>
        <pt x="656" y="614" on="1"/>
        <pt x="596" y="614" on="1"/>
      </contour>
    </TTGlyph>
    <TTGlyph name="Nacute" xMin="22" yMin="0" xMax="946" yMax="952">
      <component glyphName="N" x="0" y="0" flags="0x204"/>
      <component glyphName="acute.cap" x="402" y="0" flags="0x4"/>
    </TTGlyph>
    <TTGlyph name="Ntilde" xMin="22" yMin="0" xMax="946" yMax="1007">
      <component glyphName="N" x="0" y="0" flags="0x204"/>
      <component glyphName="tilde.cap" x="248" y="0" flags="0x4"/>
    </TTGlyph>
    <TTGlyph name="O" xMin="20" yMin="-14" xMax="784" yMax="792">
      <contour>
        <pt x="402" y="164" on="1"/>
        <pt x="436" y="164" on="0"/>
        <pt x="470" y="199" on="0"/>
        <pt x="470" y="238" on="1"/>
        <pt x="470" y="540" on="1"/>
        <pt x="470" y="579" on="0"/>
        <pt x="436" y="614" on="0"/>
        <pt x="402" y="614" on="1"/>
        <pt x="368" y="614" on="0"/>
        <pt x="334" y="579" on="0"/>
        <pt x="334" y="540" on="1"/>
        <pt x="334" y="238" on="1"/>
        <pt x="334" y="199" on="0"/>
        <pt x="368" y="164" on="0"/>
      </contour>
      <contour>
        <pt x="784" y="389" on="1"/>
        <pt x="784" y="279" on="0"/>
        <pt x="730" y="126" on="0"/>
        <pt x="631" y="30" on="0"/>
        <pt x="489" y="-14" on="0"/>
        <pt x="402" y="-14" on="1"/>
        <pt x="315" y="-14" on="0"/>
        <pt x="173" y="30" on="0"/>
        <pt x="74" y="126" on="0"/>
        <pt x="20" y="279" on="0"/>
        <pt x="20" y="389" on="1"/>
        <pt x="20" y="498" on="0"/>
        <pt x="74" y="652" on="0"/>
        <pt x="173" y="748" on="0"/>
        <pt x="315" y="792" on="0"/>
        <pt x="402" y="792" on="1"/>
        <pt x="489" y="792" on="0"/>
        <pt x="631" y="748" on="0"/>
        <pt x="730" y="652" on="0"/>
        <pt x="784" y="498" on="0"/>
      </contour>
    </TTGlyph>
    <TTGlyph name="OE" xMin="20" yMin="-14" xMax="1095" yMax="792">
      <contour>
        <pt x="871" y="614" on="1"/>
        <pt x="750" y="614" on="1"/>
        <pt x="750" y="456" on="1"/>
        <pt x="838" y="456" on="1"/>
        <pt x="838" y="342" on="1"/>
        <pt x="750" y="342" on="1"/>
        <pt x="750" y="164" on="1"/>
        <pt x="871" y="164" on="1"/>
        <pt x="871" y="322" on="1"/>
        <pt x="1095" y="322" on="1"/>
        <pt x="1095" y="0" on="1"/>
        <pt x="533" y="0" on="1"/>
        <pt x="469" y="-14" on="0"/>
        <pt x="402" y="-14" on="1"/>
        <pt x="315" y="-14" on="0"/>
        <pt x="173" y="30" on="0"/>
        <pt x="74" y="126" on="0"/>
        <pt x="20" y="279" on="0"/>
        <pt x="20" y="389" on="1"/>
        <pt x="20" y="498" on="0"/>
        <pt x="74" y="652" on="0"/>
        <pt x="173" y="748" on="0"/>
        <pt x="315" y="792" on="0"/>
        <pt x="402" y="792" on="1"/>
        <pt x="468" y="792" on="0"/>
        <pt x="532" y="778" on="1"/>
        <pt x="1095" y="778" on="1"/>
        <pt x="1095" y="476" on="1"/>
        <pt x="871" y="476" on="1"/>
      </contour>
      <contour>
        <pt x="402" y="164" on="1"/>
        <pt x="436" y="164" on="0"/>
        <pt x="470" y="199" on="0"/>
        <pt x="470" y="238" on="1"/>
        <pt x="470" y="540" on="1"/>
        <pt x="470" y="579" on="0"/>
        <pt x="436" y="614" on="0"/>
        <pt x="402" y="614" on="1"/>
        <pt x="368" y="614" on="0"/>
        <pt x="334" y="579" on="0"/>
        <pt x="334" y="540" on="1"/>
        <pt x="334" y="238" on="1"/>
        <pt x="334" y="199" on="0"/>
        <pt x="368" y="164" on="0"/>
      </contour>
    </TTGlyph>
    <TTGlyph name="Oacute" xMin="20" yMin="-14" xMax="784" yMax="952">
      <component glyphName="O" x="0" y="0" flags="0x204"/>
      <component glyphName="acute.cap" x="311" y="0" flags="0x4"/>
    </TTGlyph>
    <TTGlyph name="Ocircumflex" xMin="20" yMin="-14" xMax="784" yMax="952">
      <component glyphName="O" x="0" y="0" flags="0x204"/>
      <component glyphName="circumflex.cap" x="192" y="0" flags="0x4"/>
    </TTGlyph>
    <TTGlyph name="Odieresis" xMin="20" yMin="-14" xMax="784" yMax="952">
      <component glyphName="O" x="0" y="0" flags="0x204"/>
      <component glyphName="dieresis.cap" x="176" y="0" flags="0x4"/>
    </TTGlyph>
    <TTGlyph name="Ograve" xMin="20" yMin="-14" xMax="784" yMax="952">
      <component glyphName="O" x="0" y="0" flags="0x204"/>
      <component glyphName="grave.cap" x="216" y="0" flags="0x4"/>
    </TTGlyph>
    <TTGlyph name="Oslash" xMin="20" yMin="-114" xMax="784" yMax="879">
      <contour>
        <pt x="784" y="389" on="1"/>
        <pt x="784" y="279" on="0"/>
        <pt x="730" y="126" on="0"/>
        <pt x="631" y="30" on="0"/>
        <pt x="489" y="-14" on="0"/>
        <pt x="402" y="-14" on="1"/>
        <pt x="386" y="-14" on="0"/>
        <pt x="370" y="-13" on="1"/>
        <pt x="353" y="-114" on="1"/>
        <pt x="282" y="-114" on="1"/>
        <pt x="282" y="-82" on="1"/>
        <pt x="295" y="-4" on="1"/>
        <pt x="268" y="0" on="0"/>
        <pt x="244" y="8" on="1"/>
        <pt x="173" y="30" on="0"/>
        <pt x="74" y="126" on="0"/>
        <pt x="20" y="279" on="0"/>
        <pt x="20" y="389" on="1"/>
        <pt x="20" y="498" on="0"/>
        <pt x="74" y="652" on="0"/>
        <pt x="173" y="748" on="0"/>
        <pt x="315" y="792" on="0"/>
        <pt x="402" y="792" on="1"/>
        <pt x="415" y="792" on="0"/>
        <pt x="427" y="791" on="1"/>
        <pt x="442" y="879" on="1"/>
        <pt x="513" y="879" on="1"/>
        <pt x="513" y="847" on="1"/>
        <pt x="502" y="784" on="1"/>
        <pt x="532" y="778" on="0"/>
        <pt x="560" y="770" on="1"/>
        <pt x="631" y="748" on="0"/>
        <pt x="730" y="652" on="0"/>
        <pt x="784" y="498" on="0"/>
      </contour>
      <contour>
        <pt x="402" y="164" on="1"/>
        <pt x="436" y="164" on="0"/>
        <pt x="470" y="199" on="0"/>
        <pt x="470" y="238" on="1"/>
        <pt x="470" y="540" on="1"/>
        <pt x="470" y="557" on="0"/>
        <pt x="467" y="569" on="1"/>
        <pt x="399" y="164" on="1"/>
      </contour>
      <contour>
        <pt x="351" y="596" on="1"/>
        <pt x="334" y="579" on="0"/>
        <pt x="334" y="540" on="1"/>
        <pt x="334" y="238" on="1"/>
        <pt x="334" y="230" on="1"/>
        <pt x="398" y="614" on="1"/>
        <pt x="367" y="613" on="0"/>
      </contour>
    </TTGlyph>
    <TTGlyph name="Otilde" xMin="20" yMin="-14" xMax="784" yMax="1007">
      <component glyphName="O" x="0" y="0" flags="0x204"/>
      <component glyphName="tilde.cap" x="157" y="0" flags="0x4"/>
    </TTGlyph>
    <TTGlyph name="P" xMin="28" yMin="0" xMax="742" yMax="778">
      <contour>
        <pt x="402" y="450" on="1"/>
        <pt x="430" y="450" on="0"/>
        <pt x="460" y="480" on="0"/>
        <pt x="460" y="514" on="1"/>
        <pt x="460" y="550" on="1"/>
        <pt x="460" y="584" on="0"/>
        <pt x="431" y="614" on="0"/>
        <pt x="402" y="614" on="1"/>
        <pt x="368" y="614" on="1"/>
        <pt x="368" y="450" on="1"/>
      </contour>
      <contour>
        <pt x="464" y="0" on="1"/>
        <pt x="28" y="0" on="1"/>
        <pt x="28" y="164" on="1"/>
        <pt x="88" y="164" on="1"/>
        <pt x="88" y="614" on="1"/>
        <pt x="28" y="614" on="1"/>
        <pt x="28" y="778" on="1"/>
        <pt x="477" y="778" on="1"/>
        <pt x="538" y="778" on="0"/>
        <pt x="637" y="753" on="0"/>
        <pt x="705" y="697" on="0"/>
        <pt x="742" y="607" on="0"/>
        <pt x="742" y="543" on="1"/>
        <pt x="742" y="478" on="0"/>
        <pt x="705" y="389" on="0"/>
        <pt x="637" y="333" on="0"/>
        <pt x="538" y="308" on="0"/>
        <pt x="477" y="308" on="1"/>
        <pt x="368" y="308" on="1"/>
        <pt x="368" y="164" on="1"/>
        <pt x="464" y="164" on="1"/>
      </contour>
    </TTGlyph>
    <TTGlyph name="Q" xMin="16" yMin="-78" xMax="796" yMax="792">
      <contour>
        <pt x="398" y="164" on="1"/>
        <pt x="432" y="164" on="0"/>
        <pt x="466" y="199" on="0"/>
        <pt x="466" y="238" on="1"/>
        <pt x="466" y="540" on="1"/>
        <pt x="466" y="579" on="0"/>
        <pt x="432" y="614" on="0"/>
        <pt x="398" y="614" on="1"/>
        <pt x="364" y="614" on="0"/>
        <pt x="330" y="579" on="0"/>
        <pt x="330" y="540" on="1"/>
        <pt x="330" y="238" on="1"/>
        <pt x="330" y="199" on="0"/>
        <pt x="364" y="164" on="0"/>
      </contour>
      <contour>
        <pt x="780" y="419" on="1"/>
        <pt x="780" y="363" on="0"/>
        <pt x="755" y="281" on="0"/>
        <pt x="720" y="223" on="0"/>
        <pt x="683" y="185" on="0"/>
        <pt x="671" y="174" on="1"/>
        <pt x="677" y="164" on="1"/>
        <pt x="796" y="164" on="1"/>
        <pt x="796" y="-78" on="1"/>
        <pt x="638" y="-78" on="0"/>
        <pt x="431" y="-65" on="0"/>
        <pt x="295" y="-35" on="0"/>
        <pt x="248" y="-14" on="1"/>
        <pt x="218" y="-2" on="0"/>
        <pt x="133" y="54" on="0"/>
        <pt x="51" y="160" on="0"/>
        <pt x="16" y="298" on="0"/>
        <pt x="16" y="389" on="1"/>
        <pt x="16" y="498" on="0"/>
        <pt x="70" y="652" on="0"/>
        <pt x="169" y="748" on="0"/>
        <pt x="311" y="792" on="0"/>
        <pt x="398" y="792" on="1"/>
        <pt x="485" y="792" on="0"/>
        <pt x="627" y="747" on="0"/>
        <pt x="726" y="655" on="0"/>
        <pt x="780" y="514" on="0"/>
      </contour>
    </TTGlyph>
    <TTGlyph name="R" xMin="26" yMin="0" xMax="800" yMax="778">
      <contour>
        <pt x="366" y="164" on="1"/>
        <pt x="432" y="164" on="1"/>
        <pt x="432" y="0" on="1"/>
        <pt x="26" y="0" on="1"/>
        <pt x="26" y="164" on="1"/>
        <pt x="86" y="164" on="1"/>
        <pt x="86" y="614" on="1"/>
        <pt x="26" y="614" on="1"/>
        <pt x="26" y="778" on="1"/>
        <pt x="495" y="778" on="1"/>
        <pt x="556" y="778" on="0"/>
        <pt x="655" y="754" on="0"/>
        <pt x="723" y="701" on="0"/>
        <pt x="760" y="615" on="0"/>
        <pt x="760" y="553" on="1"/>
        <pt x="760" y="487" on="0"/>
        <pt x="707" y="389" on="0"/>
        <pt x="656" y="369" on="1"/>
        <pt x="657" y="359" on="1"/>
        <pt x="753" y="344" on="0"/>
        <pt x="753" y="241" on="1"/>
        <pt x="753" y="164" on="1"/>
        <pt x="800" y="164" on="1"/>
        <pt x="800" y="0" on="1"/>
        <pt x="483" y="0" on="1"/>
        <pt x="483" y="235" on="1"/>
        <pt x="483" y="265" on="0"/>
        <pt x="470" y="302" on="0"/>
        <pt x="441" y="321" on="0"/>
        <pt x="397" y="328" on="0"/>
        <pt x="366" y="328" on="1"/>
      </contour>
      <contour>
        <pt x="420" y="450" on="1"/>
        <pt x="449" y="450" on="0"/>
        <pt x="478" y="480" on="0"/>
        <pt x="478" y="514" on="1"/>
        <pt x="478" y="550" on="1"/>
        <pt x="478" y="584" on="0"/>
        <pt x="449" y="614" on="0"/>
        <pt x="420" y="614" on="1"/>
        <pt x="366" y="614" on="1"/>
        <pt x="366" y="450" on="1"/>
      </contour>
    </TTGlyph>
    <TTGlyph name="Racute" xMin="26" yMin="0" xMax="800" yMax="952">
      <component glyphName="R" x="0" y="0" flags="0x204"/>
      <component glyphName="acute.cap" x="297" y="0" flags="0x4"/>
    </TTGlyph>
    <TTGlyph name="Rcaron" xMin="26" yMin="0" xMax="800" yMax="952">
      <component glyphName="R" x="0" y="0" flags="0x204"/>
      <component glyphName="caron.cap" x="173" y="0" flags="0x4"/>
    </TTGlyph>
    <TTGlyph name="Rcommaaccent" xMin="26" yMin="-333" xMax="800" yMax="778">
      <component glyphName="R" x="0" y="0" flags="0x204"/>
      <component glyphName="commaaccent" x="267" y="0" flags="0x4"/>
    </TTGlyph>
    <TTGlyph name="S" xMin="22" yMin="-14" xMax="674" yMax="792">
      <contour>
        <pt x="313" y="179" on="1"/>
        <pt x="346" y="179" on="0"/>
        <pt x="374" y="199" on="0"/>
        <pt x="374" y="219" on="1"/>
        <pt x="374" y="233" on="0"/>
        <pt x="351" y="254" on="0"/>
        <pt x="316" y="268" on="1"/>
        <pt x="242" y="296" on="0"/>
        <pt x="131" y="347" on="0"/>
        <pt x="58" y="409" on="0"/>
        <pt x="22" y="492" on="0"/>
        <pt x="22" y="551" on="1"/>
        <pt x="22" y="607" on="0"/>
        <pt x="57" y="696" on="0"/>
        <pt x="136" y="759" on="0"/>
        <pt x="267" y="792" on="0"/>
        <pt x="363" y="792" on="1"/>
        <pt x="450" y="792" on="0"/>
        <pt x="604" y="757" on="0"/>
        <pt x="655" y="728" on="1"/>
        <pt x="655" y="549" on="1"/>
        <pt x="445" y="549" on="1"/>
        <pt x="445" y="578" on="0"/>
        <pt x="413" y="599" on="0"/>
        <pt x="390" y="599" on="1"/>
        <pt x="357" y="599" on="0"/>
        <pt x="328" y="582" on="0"/>
        <pt x="328" y="561" on="1"/>
        <pt x="328" y="544" on="0"/>
        <pt x="359" y="528" on="0"/>
        <pt x="390" y="518" on="1"/>
        <pt x="448" y="499" on="0"/>
        <pt x="551" y="457" on="0"/>
        <pt x="629" y="395" on="0"/>
        <pt x="674" y="307" on="0"/>
        <pt x="674" y="243" on="1"/>
        <pt x="674" y="113" on="0"/>
        <pt x="506" y="-14" on="0"/>
        <pt x="344" y="-14" on="1"/>
        <pt x="252" y="-14" on="0"/>
        <pt x="82" y="18" on="0"/>
        <pt x="31" y="40" on="1"/>
        <pt x="31" y="238" on="1"/>
        <pt x="251" y="238" on="1"/>
        <pt x="251" y="208" on="0"/>
        <pt x="275" y="179" on="0"/>
      </contour>
    </TTGlyph>
    <TTGlyph name="T" xMin="16" yMin="0" xMax="768" yMax="778">
      <contour>
        <pt x="16" y="778" on="1"/>
        <pt x="768" y="778" on="1"/>
        <pt x="768" y="536" on="1"/>
        <pt x="596" y="536" on="1"/>
        <pt x="596" y="614" on="1"/>
        <pt x="532" y="614" on="1"/>
        <pt x="532" y="164" on="1"/>
        <pt x="602" y="164" on="1"/>
        <pt x="602" y="0" on="1"/>
        <pt x="182" y="0" on="1"/>
        <pt x="182" y="164" on="1"/>
        <pt x="252" y="164" on="1"/>
        <pt x="252" y="614" on="1"/>
        <pt x="188" y="614" on="1"/>
        <pt x="188" y="536" on="1"/>
        <pt x="16" y="536" on="1"/>
      </contour>
    </TTGlyph>
    <TTGlyph name="Thorn" xMin="28" yMin="0" xMax="722" yMax="778">
      <contour>
        <pt x="28" y="778" on="1"/>
        <pt x="428" y="778" on="1"/>
        <pt x="428" y="614" on="1"/>
        <pt x="368" y="614" on="1"/>
        <pt x="368" y="569" on="1"/>
        <pt x="486" y="569" on="1"/>
        <pt x="537" y="569" on="0"/>
        <pt x="623" y="553" on="0"/>
        <pt x="686" y="515" on="0"/>
        <pt x="722" y="452" on="0"/>
        <pt x="722" y="404" on="1"/>
        <pt x="722" y="354" on="0"/>
        <pt x="686" y="287" on="0"/>
        <pt x="623" y="246" on="0"/>
        <pt x="537" y="229" on="0"/>
        <pt x="486" y="229" on="1"/>
        <pt x="368" y="229" on="1"/>
        <pt x="368" y="164" on="1"/>
        <pt x="464" y="164" on="1"/>
        <pt x="464" y="0" on="1"/>
        <pt x="28" y="0" on="1"/>
        <pt x="28" y="164" on="1"/>
        <pt x="88" y="164" on="1"/>
        <pt x="88" y="614" on="1"/>
        <pt x="28" y="614" on="1"/>
      </contour>
      <contour>
        <pt x="392" y="331" on="1"/>
        <pt x="412" y="331" on="0"/>
        <pt x="440" y="352" on="0"/>
        <pt x="440" y="375" on="1"/>
        <pt x="440" y="391" on="1"/>
        <pt x="440" y="414" on="0"/>
        <pt x="413" y="435" on="0"/>
        <pt x="392" y="435" on="1"/>
        <pt x="368" y="435" on="1"/>
        <pt x="368" y="331" on="1"/>
      </contour>
    </TTGlyph>
    <TTGlyph name="U" xMin="22" yMin="-14" xMax="791" yMax="778">
      <contour>
        <pt x="731" y="279" on="1"/>
        <pt x="731" y="198" on="0"/>
        <pt x="686" y="87" on="0"/>
        <pt x="602" y="17" on="0"/>
        <pt x="483" y="-14" on="0"/>
        <pt x="410" y="-14" on="1"/>
        <pt x="335" y="-14" on="0"/>
        <pt x="214" y="17" on="0"/>
        <pt x="129" y="87" on="0"/>
        <pt x="82" y="198" on="0"/>
        <pt x="82" y="279" on="1"/>
        <pt x="82" y="614" on="1"/>
        <pt x="22" y="614" on="1"/>
        <pt x="22" y="778" on="1"/>
        <pt x="402" y="778" on="1"/>
        <pt x="402" y="614" on="1"/>
        <pt x="362" y="614" on="1"/>
        <pt x="362" y="228" on="1"/>
        <pt x="362" y="194" on="0"/>
        <pt x="391" y="164" on="0"/>
        <pt x="420" y="164" on="1"/>
        <pt x="449" y="164" on="0"/>
        <pt x="478" y="194" on="0"/>
        <pt x="478" y="228" on="1"/>
        <pt x="478" y="614" on="1"/>
        <pt x="438" y="614" on="1"/>
        <pt x="438" y="778" on="1"/>
        <pt x="791" y="778" on="1"/>
        <pt x="791" y="614" on="1"/>
        <pt x="731" y="614" on="1"/>
      </contour>
    </TTGlyph>
    <TTGlyph name="Uacute" xMin="22" yMin="-14" xMax="791" yMax="952">
      <component glyphName="U" x="0" y="0" flags="0x204"/>
      <component glyphName="acute.cap" x="327" y="0" flags="0x4"/>
    </TTGlyph>
    <TTGlyph name="Ucircumflex" xMin="22" yMin="-14" xMax="791" yMax="952">
      <component glyphName="U" x="0" y="0" flags="0x204"/>
      <component glyphName="circumflex.cap" x="208" y="0" flags="0x4"/>
    </TTGlyph>
    <TTGlyph name="Udieresis" xMin="22" yMin="-14" xMax="791" yMax="952">
      <component glyphName="U" x="0" y="0" flags="0x204"/>
      <component glyphName="dieresis.cap" x="192" y="0" flags="0x4"/>
    </TTGlyph>
    <TTGlyph name="Ugrave" xMin="22" yMin="-14" xMax="791" yMax="952">
      <component glyphName="U" x="0" y="0" flags="0x204"/>
      <component glyphName="grave.cap" x="232" y="0" flags="0x4"/>
    </TTGlyph>
    <TTGlyph name="V" xMin="14" yMin="0" xMax="776" yMax="778">
      <contour>
        <pt x="396" y="614" on="1"/>
        <pt x="346" y="614" on="1"/>
        <pt x="415" y="219" on="1"/>
        <pt x="425" y="219" on="1"/>
        <pt x="494" y="614" on="1"/>
        <pt x="444" y="614" on="1"/>
        <pt x="444" y="778" on="1"/>
        <pt x="776" y="778" on="1"/>
        <pt x="776" y="614" on="1"/>
        <pt x="736" y="614" on="1"/>
        <pt x="577" y="0" on="1"/>
        <pt x="213" y="0" on="1"/>
        <pt x="54" y="614" on="1"/>
        <pt x="14" y="614" on="1"/>
        <pt x="14" y="778" on="1"/>
        <pt x="396" y="778" on="1"/>
      </contour>
    </TTGlyph>
    <TTGlyph name="W" xMin="14" yMin="0" xMax="1257" yMax="778">
      <contour>
        <pt x="193" y="0" on="1"/>
        <pt x="54" y="614" on="1"/>
        <pt x="14" y="614" on="1"/>
        <pt x="14" y="778" on="1"/>
        <pt x="411" y="778" on="1"/>
        <pt x="411" y="614" on="1"/>
        <pt x="346" y="614" on="1"/>
        <pt x="395" y="239" on="1"/>
        <pt x="405" y="239" on="1"/>
        <pt x="520" y="778" on="1"/>
        <pt x="808" y="778" on="1"/>
        <pt x="916" y="239" on="1"/>
        <pt x="926" y="239" on="1"/>
        <pt x="975" y="614" on="1"/>
        <pt x="910" y="614" on="1"/>
        <pt x="910" y="778" on="1"/>
        <pt x="1257" y="778" on="1"/>
        <pt x="1257" y="614" on="1"/>
        <pt x="1217" y="614" on="1"/>
        <pt x="1088" y="0" on="1"/>
        <pt x="739" y="0" on="1"/>
        <pt x="648" y="412" on="1"/>
        <pt x="638" y="412" on="1"/>
        <pt x="542" y="0" on="1"/>
      </contour>
    </TTGlyph>
    <TTGlyph name="X" xMin="28" yMin="0" xMax="812" yMax="778">
      <contour>
        <pt x="762" y="614" on="1"/>
        <pt x="655" y="398" on="1"/>
        <pt x="772" y="164" on="1"/>
        <pt x="812" y="164" on="1"/>
        <pt x="812" y="0" on="1"/>
        <pt x="494" y="0" on="1"/>
        <pt x="410" y="254" on="1"/>
        <pt x="390" y="254" on="1"/>
        <pt x="306" y="0" on="1"/>
        <pt x="28" y="0" on="1"/>
        <pt x="28" y="164" on="1"/>
        <pt x="68" y="164" on="1"/>
        <pt x="184" y="397" on="1"/>
        <pt x="77" y="614" on="1"/>
        <pt x="37" y="614" on="1"/>
        <pt x="37" y="778" on="1"/>
        <pt x="355" y="778" on="1"/>
        <pt x="429" y="546" on="1"/>
        <pt x="449" y="546" on="1"/>
        <pt x="524" y="778" on="1"/>
        <pt x="802" y="778" on="1"/>
        <pt x="802" y="614" on="1"/>
      </contour>
    </TTGlyph>
    <TTGlyph name="Y" xMin="12" yMin="0" xMax="755" yMax="778">
      <contour>
        <pt x="395" y="614" on="1"/>
        <pt x="360" y="614" on="1"/>
        <pt x="419" y="439" on="1"/>
        <pt x="429" y="439" on="1"/>
        <pt x="488" y="614" on="1"/>
        <pt x="453" y="614" on="1"/>
        <pt x="453" y="778" on="1"/>
        <pt x="755" y="778" on="1"/>
        <pt x="755" y="614" on="1"/>
        <pt x="720" y="614" on="1"/>
        <pt x="527" y="268" on="1"/>
        <pt x="527" y="164" on="1"/>
        <pt x="587" y="164" on="1"/>
        <pt x="587" y="0" on="1"/>
        <pt x="187" y="0" on="1"/>
        <pt x="187" y="164" on="1"/>
        <pt x="247" y="164" on="1"/>
        <pt x="247" y="268" on="1"/>
        <pt x="48" y="614" on="1"/>
        <pt x="12" y="614" on="1"/>
        <pt x="12" y="778" on="1"/>
        <pt x="395" y="778" on="1"/>
      </contour>
    </TTGlyph>
    <TTGlyph name="Yacute" xMin="12" yMin="0" xMax="755" yMax="952">
      <component glyphName="Y" x="0" y="0" flags="0x204"/>
      <component glyphName="acute.cap" x="327" y="0" flags="0x4"/>
    </TTGlyph>
    <TTGlyph name="Z" xMin="22" yMin="0" xMax="683" yMax="778">
      <contour>
        <pt x="330" y="614" on="1"/>
        <pt x="236" y="614" on="1"/>
        <pt x="236" y="532" on="1"/>
        <pt x="37" y="532" on="1"/>
        <pt x="37" y="778" on="1"/>
        <pt x="667" y="778" on="1"/>
        <pt x="667" y="634" on="1"/>
        <pt x="360" y="164" on="1"/>
        <pt x="484" y="164" on="1"/>
        <pt x="484" y="246" on="1"/>
        <pt x="683" y="246" on="1"/>
        <pt x="683" y="0" on="1"/>
        <pt x="22" y="0" on="1"/>
        <pt x="22" y="144" on="1"/>
      </contour>
    </TTGlyph>
    <TTGlyph name="a" xMin="8" yMin="-14" xMax="642" yMax="570">
      <contour>
        <pt x="368" y="68" on="1"/>
        <pt x="359" y="56" on="0"/>
        <pt x="329" y="27" on="0"/>
        <pt x="286" y="3" on="0"/>
        <pt x="229" y="-14" on="0"/>
        <pt x="193" y="-14" on="1"/>
        <pt x="106" y="-14" on="0"/>
        <pt x="8" y="66" on="0"/>
        <pt x="8" y="142" on="1"/>
        <pt x="8" y="237" on="0"/>
        <pt x="185" y="334" on="0"/>
        <pt x="368" y="334" on="1"/>
        <pt x="368" y="362" on="0"/>
        <pt x="332" y="392" on="0"/>
        <pt x="276" y="392" on="1"/>
        <pt x="216" y="392" on="0"/>
        <pt x="95" y="374" on="0"/>
        <pt x="44" y="363" on="1"/>
        <pt x="44" y="535" on="1"/>
        <pt x="95" y="549" on="0"/>
        <pt x="243" y="570" on="0"/>
        <pt x="321" y="570" on="1"/>
        <pt x="401" y="570" on="0"/>
        <pt x="508" y="540" on="0"/>
        <pt x="572" y="479" on="0"/>
        <pt x="598" y="388" on="0"/>
        <pt x="598" y="328" on="1"/>
        <pt x="598" y="164" on="1"/>
        <pt x="642" y="164" on="1"/>
        <pt x="642" y="0" on="1"/>
        <pt x="368" y="0" on="1"/>
      </contour>
      <contour>
        <pt x="368" y="234" on="1"/>
        <pt x="306" y="234" on="0"/>
        <pt x="252" y="217" on="0"/>
        <pt x="252" y="196" on="1"/>
        <pt x="252" y="164" on="0"/>
        <pt x="307" y="164" on="1"/>
        <pt x="368" y="164" on="0"/>
        <pt x="368" y="228" on="1"/>
      </contour>
    </TTGlyph>
    <TTGlyph name="aacute" xMin="8" yMin="-14" xMax="642" yMax="778">
      <component glyphName="a" x="0" y="0" flags="0x204"/>
      <component glyphName="acute" x="217" y="0" flags="0x4"/>
    </TTGlyph>
    <TTGlyph name="acircumflex" xMin="8" yMin="-14" xMax="642" yMax="778">
      <component glyphName="a" x="0" y="0" flags="0x204"/>
      <component glyphName="circumflex" x="110" y="0" flags="0x4"/>
    </TTGlyph>
    <TTGlyph name="acute" xMin="-11" yMin="611" xMax="312" yMax="778">
      <contour>
        <pt x="149" y="611" on="1"/>
        <pt x="-11" y="611" on="1"/>
        <pt x="-11" y="626" on="1"/>
        <pt x="98" y="778" on="1"/>
        <pt x="312" y="778" on="1"/>
        <pt x="312" y="751" on="1"/>
      </contour>
    </TTGlyph>
    <TTGlyph name="acute.cap" xMin="-17" yMin="841" xMax="343" yMax="952">
      <contour>
        <pt x="180" y="841" on="1"/>
        <pt x="-17" y="841" on="1"/>
        <pt x="-17" y="856" on="1"/>
        <pt x="92" y="952" on="1"/>
        <pt x="343" y="952" on="1"/>
        <pt x="343" y="926" on="1"/>
      </contour>
    </TTGlyph>
    <TTGlyph name="adieresis" xMin="8" yMin="-14" xMax="642" yMax="778">
      <component glyphName="a" x="0" y="0" flags="0x204"/>
      <component glyphName="dieresis" x="101" y="0" flags="0x4"/>
    </TTGlyph>
    <TTGlyph name="ae" xMin="8" yMin="-14" xMax="934" yMax="570">
      <contour>
        <pt x="668" y="570" on="1"/>
        <pt x="745" y="570" on="0"/>
        <pt x="847" y="525" on="0"/>
        <pt x="909" y="453" on="0"/>
        <pt x="934" y="361" on="0"/>
        <pt x="934" y="314" on="1"/>
        <pt x="934" y="242" on="1"/>
        <pt x="610" y="242" on="1"/>
        <pt x="610" y="236" on="1"/>
        <pt x="610" y="200" on="0"/>
        <pt x="651" y="164" on="0"/>
        <pt x="705" y="164" on="1"/>
        <pt x="771" y="164" on="0"/>
        <pt x="881" y="184" on="0"/>
        <pt x="917" y="196" on="1"/>
        <pt x="917" y="36" on="1"/>
        <pt x="899" y="27" on="0"/>
        <pt x="852" y="10" on="0"/>
        <pt x="792" y="-5" on="0"/>
        <pt x="716" y="-14" on="0"/>
        <pt x="668" y="-14" on="1"/>
        <pt x="505" y="-14" on="0"/>
        <pt x="429" y="88" on="1"/>
        <pt x="415" y="72" on="0"/>
        <pt x="371" y="36" on="0"/>
        <pt x="312" y="6" on="0"/>
        <pt x="238" y="-14" on="0"/>
        <pt x="193" y="-14" on="1"/>
        <pt x="106" y="-14" on="0"/>
        <pt x="8" y="66" on="0"/>
        <pt x="8" y="142" on="1"/>
        <pt x="8" y="235" on="0"/>
        <pt x="181" y="334" on="0"/>
        <pt x="368" y="334" on="1"/>
        <pt x="368" y="362" on="0"/>
        <pt x="332" y="392" on="0"/>
        <pt x="276" y="392" on="1"/>
        <pt x="216" y="392" on="0"/>
        <pt x="95" y="374" on="0"/>
        <pt x="44" y="363" on="1"/>
        <pt x="44" y="535" on="1"/>
        <pt x="90" y="546" on="0"/>
        <pt x="223" y="570" on="0"/>
        <pt x="321" y="570" on="1"/>
        <pt x="378" y="570" on="0"/>
        <pt x="466" y="547" on="0"/>
        <pt x="499" y="526" on="1"/>
        <pt x="573" y="570" on="0"/>
      </contour>
      <contour>
        <pt x="668" y="392" on="1"/>
        <pt x="639" y="392" on="0"/>
        <pt x="610" y="362" on="0"/>
        <pt x="610" y="328" on="1"/>
        <pt x="610" y="322" on="1"/>
        <pt x="726" y="322" on="1"/>
        <pt x="726" y="328" on="1"/>
        <pt x="726" y="362" on="0"/>
        <pt x="697" y="392" on="0"/>
      </contour>
      <contour>
        <pt x="368" y="234" on="1"/>
        <pt x="314" y="234" on="0"/>
        <pt x="252" y="220" on="0"/>
        <pt x="252" y="196" on="1"/>
        <pt x="252" y="164" on="0"/>
        <pt x="307" y="164" on="1"/>
        <pt x="368" y="164" on="0"/>
        <pt x="368" y="228" on="1"/>
      </contour>
    </TTGlyph>
    <TTGlyph name="agrave" xMin="8" yMin="-14" xMax="642" yMax="778">
      <component glyphName="a" x="0" y="0" flags="0x204"/>
      <component glyphName="grave" x="142" y="0" flags="0x4"/>
    </TTGlyph>
    <TTGlyph name="ampersand" xMin="-5" yMin="-14" xMax="793" yMax="792">
      <contour>
        <pt x="428" y="540" on="1"/>
        <pt x="428" y="579" on="0"/>
        <pt x="394" y="614" on="0"/>
        <pt x="360" y="614" on="1"/>
        <pt x="326" y="614" on="0"/>
        <pt x="297" y="584" on="0"/>
        <pt x="297" y="561" on="1"/>
        <pt x="297" y="550" on="0"/>
        <pt x="309" y="530" on="0"/>
        <pt x="328" y="512" on="0"/>
        <pt x="351" y="495" on="0"/>
        <pt x="362" y="486" on="1"/>
        <pt x="525" y="363" on="1"/>
        <pt x="527" y="375" on="0"/>
        <pt x="529" y="399" on="0"/>
        <pt x="529" y="411" on="1"/>
        <pt x="529" y="429" on="1"/>
        <pt x="770" y="429" on="1"/>
        <pt x="770" y="262" on="1"/>
        <pt x="712" y="262" on="1"/>
        <pt x="703" y="229" on="1"/>
        <pt x="793" y="161" on="1"/>
        <pt x="671" y="0" on="1"/>
        <pt x="598" y="56" on="1"/>
        <pt x="561" y="28" on="0"/>
        <pt x="440" y="-14" on="0"/>
        <pt x="349" y="-14" on="1"/>
        <pt x="174" y="-14" on="0"/>
        <pt x="-5" y="105" on="0"/>
        <pt x="-5" y="210" on="1"/>
        <pt x="-5" y="247" on="0"/>
        <pt x="19" y="308" on="0"/>
        <pt x="60" y="357" on="0"/>
        <pt x="113" y="395" on="0"/>
        <pt x="142" y="409" on="1"/>
        <pt x="91" y="447" on="0"/>
        <pt x="30" y="529" on="0"/>
        <pt x="30" y="589" on="1"/>
        <pt x="30" y="638" on="0"/>
        <pt x="78" y="714" on="0"/>
        <pt x="164" y="765" on="0"/>
        <pt x="281" y="792" on="0"/>
        <pt x="350" y="792" on="1"/>
        <pt x="406" y="792" on="0"/>
        <pt x="495" y="778" on="0"/>
        <pt x="565" y="756" on="0"/>
        <pt x="618" y="730" on="0"/>
        <pt x="638" y="718" on="1"/>
        <pt x="638" y="526" on="1"/>
        <pt x="428" y="526" on="1"/>
      </contour>
      <contour>
        <pt x="360" y="164" on="1"/>
        <pt x="406" y="164" on="0"/>
        <pt x="435" y="182" on="1"/>
        <pt x="308" y="280" on="1"/>
        <pt x="289" y="270" on="0"/>
        <pt x="267" y="237" on="0"/>
        <pt x="267" y="216" on="1"/>
        <pt x="267" y="190" on="0"/>
        <pt x="306" y="164" on="0"/>
      </contour>
    </TTGlyph>
    <TTGlyph name="aring" xMin="8" yMin="-14" xMax="642" yMax="847">
      <component glyphName="a" x="0" y="0" flags="0x204"/>
      <component glyphName="ring" x="224" y="0" flags="0x4"/>
    </TTGlyph>
    <TTGlyph name="asciicircum" xMin="14" yMin="522" xMax="399" yMax="778">
      <contour>
        <pt x="211" y="664" on="1"/>
        <pt x="202" y="664" on="1"/>
        <pt x="140" y="522" on="1"/>
        <pt x="14" y="522" on="1"/>
        <pt x="14" y="537" on="1"/>
        <pt x="131" y="778" on="1"/>
        <pt x="282" y="778" on="1"/>
        <pt x="399" y="537" on="1"/>
        <pt x="399" y="522" on="1"/>
        <pt x="273" y="522" on="1"/>
      </contour>
    </TTGlyph>
    <TTGlyph name="asciitilde" xMin="30" yMin="228" xMax="588" yMax="421">
      <contour>
        <pt x="30" y="239" on="1"/>
        <pt x="30" y="265" on="0"/>
        <pt x="39" y="328" on="0"/>
        <pt x="70" y="384" on="0"/>
        <pt x="130" y="421" on="0"/>
        <pt x="182" y="421" on="1"/>
        <pt x="227" y="421" on="0"/>
        <pt x="295" y="406" on="0"/>
        <pt x="358" y="389" on="0"/>
        <pt x="424" y="374" on="0"/>
        <pt x="467" y="374" on="1"/>
        <pt x="507" y="374" on="0"/>
        <pt x="532" y="398" on="0"/>
        <pt x="532" y="410" on="1"/>
        <pt x="588" y="410" on="1"/>
        <pt x="588" y="383" on="0"/>
        <pt x="581" y="319" on="0"/>
        <pt x="552" y="264" on="0"/>
        <pt x="494" y="228" on="0"/>
        <pt x="443" y="228" on="1"/>
        <pt x="398" y="228" on="0"/>
        <pt x="330" y="243" on="0"/>
        <pt x="266" y="261" on="0"/>
        <pt x="198" y="276" on="0"/>
        <pt x="153" y="276" on="1"/>
        <pt x="132" y="276" on="0"/>
        <pt x="105" y="268" on="0"/>
        <pt x="89" y="257" on="0"/>
        <pt x="83" y="244" on="0"/>
        <pt x="83" y="239" on="1"/>
      </contour>
    </TTGlyph>
    <TTGlyph name="asterisk" xMin="16" yMin="409" xMax="393" yMax="778">
      <contour>
        <pt x="247" y="667" on="1"/>
        <pt x="321" y="729" on="1"/>
        <pt x="332" y="736" on="1"/>
        <pt x="393" y="633" on="1"/>
        <pt x="381" y="626" on="1"/>
        <pt x="280" y="593" on="1"/>
        <pt x="381" y="560" on="1"/>
        <pt x="393" y="551" on="1"/>
        <pt x="332" y="451" on="1"/>
        <pt x="247" y="518" on="1"/>
        <pt x="265" y="424" on="1"/>
        <pt x="265" y="409" on="1"/>
        <pt x="145" y="409" on="1"/>
        <pt x="145" y="424" on="1"/>
        <pt x="163" y="518" on="1"/>
        <pt x="88" y="458" on="1"/>
        <pt x="76" y="451" on="1"/>
        <pt x="16" y="551" on="1"/>
        <pt x="27" y="560" on="1"/>
        <pt x="127" y="593" on="1"/>
        <pt x="27" y="626" on="1"/>
        <pt x="16" y="633" on="1"/>
        <pt x="76" y="736" on="1"/>
        <pt x="88" y="729" on="1"/>
        <pt x="163" y="667" on="1"/>
        <pt x="145" y="761" on="1"/>
        <pt x="145" y="778" on="1"/>
        <pt x="265" y="778" on="1"/>
        <pt x="265" y="761" on="1"/>
      </contour>
    </TTGlyph>
    <TTGlyph name="at" xMin="32" yMin="-236" xMax="1112" yMax="792">
      <contour>
        <pt x="520" y="208" on="1"/>
        <pt x="520" y="179" on="0"/>
        <pt x="545" y="154" on="0"/>
        <pt x="566" y="154" on="1"/>
        <pt x="588" y="154" on="0"/>
        <pt x="625" y="180" on="0"/>
        <pt x="636" y="195" on="1"/>
        <pt x="636" y="425" on="1"/>
        <pt x="628" y="427" on="0"/>
        <pt x="600" y="432" on="0"/>
        <pt x="586" y="432" on="1"/>
        <pt x="554" y="432" on="0"/>
        <pt x="520" y="382" on="0"/>
        <pt x="520" y="348" on="1"/>
      </contour>
      <contour>
        <pt x="699" y="-205" on="1"/>
        <pt x="661" y="-217" on="0"/>
        <pt x="559" y="-236" on="0"/>
        <pt x="484" y="-236" on="1"/>
        <pt x="267" y="-236" on="0"/>
        <pt x="32" y="-12" on="0"/>
        <pt x="32" y="215" on="1"/>
        <pt x="32" y="348" on="0"/>
        <pt x="126" y="562" on="0"/>
        <pt x="287" y="712" on="0"/>
        <pt x="503" y="792" on="0"/>
        <pt x="625" y="792" on="1"/>
        <pt x="739" y="792" on="0"/>
        <pt x="919" y="731" on="0"/>
        <pt x="1045" y="619" on="0"/>
        <pt x="1112" y="460" on="0"/>
        <pt x="1112" y="363" on="1"/>
        <pt x="1112" y="264" on="0"/>
        <pt x="1060" y="122" on="0"/>
        <pt x="977" y="30" on="0"/>
        <pt x="872" y="-14" on="0"/>
        <pt x="820" y="-14" on="1"/>
        <pt x="780" y="-14" on="0"/>
        <pt x="724" y="4" on="0"/>
        <pt x="686" y="33" on="0"/>
        <pt x="664" y="70" on="0"/>
        <pt x="659" y="89" on="1"/>
        <pt x="648" y="73" on="0"/>
        <pt x="613" y="37" on="0"/>
        <pt x="565" y="6" on="0"/>
        <pt x="506" y="-14" on="0"/>
        <pt x="472" y="-14" on="1"/>
        <pt x="375" y="-14" on="0"/>
        <pt x="276" y="120" on="0"/>
        <pt x="276" y="235" on="1"/>
        <pt x="276" y="320" on="0"/>
        <pt x="328" y="446" on="0"/>
        <pt x="418" y="529" on="0"/>
        <pt x="540" y="570" on="0"/>
        <pt x="610" y="570" on="1"/>
        <pt x="673" y="570" on="0"/>
        <pt x="809" y="536" on="0"/>
        <pt x="866" y="510" on="1"/>
        <pt x="866" y="161" on="1"/>
        <pt x="866" y="150" on="0"/>
        <pt x="879" y="139" on="0"/>
        <pt x="887" y="139" on="1"/>
        <pt x="910" y="139" on="0"/>
        <pt x="950" y="246" on="0"/>
        <pt x="950" y="341" on="1"/>
        <pt x="950" y="494" on="0"/>
        <pt x="768" y="642" on="0"/>
        <pt x="604" y="642" on="1"/>
        <pt x="512" y="642" on="0"/>
        <pt x="361" y="582" on="0"/>
        <pt x="253" y="473" on="0"/>
        <pt x="194" y="321" on="0"/>
        <pt x="194" y="229" on="1"/>
        <pt x="194" y="143" on="0"/>
        <pt x="239" y="24" on="0"/>
        <pt x="320" y="-51" on="0"/>
        <pt x="432" y="-84" on="0"/>
        <pt x="500" y="-84" on="1"/>
        <pt x="581" y="-84" on="0"/>
        <pt x="672" y="-70" on="0"/>
        <pt x="699" y="-60" on="1"/>
      </contour>
    </TTGlyph>
    <TTGlyph name="atilde" xMin="8" yMin="-14" xMax="642" yMax="793">
      <component glyphName="a" x="0" y="0" flags="0x204"/>
      <component glyphName="tilde" x="74" y="0" flags="0x4"/>
    </TTGlyph>
    <TTGlyph name="b" xMin="18" yMin="-14" xMax="652" yMax="778">
      <contour>
        <pt x="292" y="488" on="1"/>
        <pt x="301" y="500" on="0"/>
        <pt x="330" y="529" on="0"/>
        <pt x="370" y="553" on="0"/>
        <pt x="418" y="570" on="0"/>
        <pt x="447" y="570" on="1"/>
        <pt x="551" y="570" on="0"/>
        <pt x="652" y="417" on="0"/>
        <pt x="652" y="278" on="1"/>
        <pt x="652" y="139" on="0"/>
        <pt x="551" y="-14" on="0"/>
        <pt x="447" y="-14" on="1"/>
        <pt x="418" y="-14" on="0"/>
        <pt x="370" y="3" on="0"/>
        <pt x="330" y="27" on="0"/>
        <pt x="301" y="56" on="0"/>
        <pt x="292" y="68" on="1"/>
        <pt x="292" y="0" on="1"/>
        <pt x="18" y="0" on="1"/>
        <pt x="18" y="164" on="1"/>
        <pt x="62" y="164" on="1"/>
        <pt x="62" y="614" on="1"/>
        <pt x="18" y="614" on="1"/>
        <pt x="18" y="778" on="1"/>
        <pt x="292" y="778" on="1"/>
      </contour>
      <contour>
        <pt x="408" y="328" on="1"/>
        <pt x="408" y="362" on="0"/>
        <pt x="379" y="392" on="0"/>
        <pt x="350" y="392" on="1"/>
        <pt x="321" y="392" on="0"/>
        <pt x="292" y="362" on="0"/>
        <pt x="292" y="328" on="1"/>
        <pt x="292" y="228" on="1"/>
        <pt x="292" y="194" on="0"/>
        <pt x="321" y="164" on="0"/>
        <pt x="350" y="164" on="1"/>
        <pt x="379" y="164" on="0"/>
        <pt x="408" y="194" on="0"/>
        <pt x="408" y="228" on="1"/>
      </contour>
    </TTGlyph>
    <TTGlyph name="backslash" xMin="-20" yMin="-151" xMax="444" yMax="842">
      <contour>
        <pt x="444" y="-119" on="1"/>
        <pt x="444" y="-151" on="1"/>
        <pt x="300" y="-151" on="1"/>
        <pt x="-20" y="810" on="1"/>
        <pt x="-20" y="842" on="1"/>
        <pt x="123" y="842" on="1"/>
      </contour>
    </TTGlyph>
    <TTGlyph name="bar" xMin="62" yMin="-327" xMax="193" yMax="940">
      <contour>
        <pt x="62" y="-327" on="1"/>
        <pt x="62" y="940" on="1"/>
        <pt x="193" y="940" on="1"/>
        <pt x="193" y="-327" on="1"/>
      </contour>
    </TTGlyph>
    <TTGlyph name="braceleft" xMin="22" yMin="-247" xMax="271" yMax="853">
      <contour>
        <pt x="22" y="358" on="1"/>
        <pt x="31" y="358" on="0"/>
        <pt x="51" y="364" on="0"/>
        <pt x="67" y="380" on="0"/>
        <pt x="78" y="407" on="0"/>
        <pt x="78" y="428" on="1"/>
        <pt x="78" y="472" on="0"/>
        <pt x="70" y="537" on="0"/>
        <pt x="60" y="598" on="0"/>
        <pt x="52" y="664" on="0"/>
        <pt x="52" y="709" on="1"/>
        <pt x="52" y="760" on="0"/>
        <pt x="95" y="817" on="0"/>
        <pt x="160" y="846" on="0"/>
        <pt x="237" y="853" on="0"/>
        <pt x="271" y="853" on="1"/>
        <pt x="271" y="764" on="1"/>
        <pt x="250" y="764" on="0"/>
        <pt x="217" y="739" on="0"/>
        <pt x="217" y="699" on="1"/>
        <pt x="217" y="660" on="0"/>
        <pt x="224" y="601" on="0"/>
        <pt x="233" y="544" on="0"/>
        <pt x="241" y="482" on="0"/>
        <pt x="241" y="440" on="1"/>
        <pt x="241" y="380" on="0"/>
        <pt x="196" y="317" on="0"/>
        <pt x="164" y="303" on="1"/>
        <pt x="196" y="289" on="0"/>
        <pt x="241" y="227" on="0"/>
        <pt x="241" y="167" on="1"/>
        <pt x="241" y="125" on="0"/>
        <pt x="233" y="63" on="0"/>
        <pt x="224" y="6" on="0"/>
        <pt x="217" y="-53" on="0"/>
        <pt x="217" y="-92" on="1"/>
        <pt x="217" y="-113" on="0"/>
        <pt x="227" y="-138" on="0"/>
        <pt x="243" y="-153" on="0"/>
        <pt x="262" y="-158" on="0"/>
        <pt x="271" y="-158" on="1"/>
        <pt x="271" y="-247" on="1"/>
        <pt x="237" y="-247" on="0"/>
        <pt x="160" y="-240" on="0"/>
        <pt x="95" y="-211" on="0"/>
        <pt x="52" y="-153" on="0"/>
        <pt x="52" y="-102" on="1"/>
        <pt x="52" y="-58" on="0"/>
        <pt x="60" y="8" on="0"/>
        <pt x="70" y="69" on="0"/>
        <pt x="78" y="135" on="0"/>
        <pt x="78" y="179" on="1"/>
        <pt x="78" y="200" on="0"/>
        <pt x="67" y="227" on="0"/>
        <pt x="51" y="243" on="0"/>
        <pt x="31" y="249" on="0"/>
        <pt x="22" y="249" on="1"/>
      </contour>
    </TTGlyph>
    <TTGlyph name="braceright" xMin="28" yMin="-247" xMax="277" yMax="853">
      <contour>
        <pt x="277" y="249" on="1"/>
        <pt x="268" y="249" on="0"/>
        <pt x="249" y="243" on="0"/>
        <pt x="233" y="227" on="0"/>
        <pt x="222" y="200" on="0"/>
        <pt x="222" y="179" on="1"/>
        <pt x="222" y="135" on="0"/>
        <pt x="230" y="69" on="0"/>
        <pt x="239" y="8" on="0"/>
        <pt x="247" y="-58" on="0"/>
        <pt x="247" y="-102" on="1"/>
        <pt x="247" y="-153" on="0"/>
        <pt x="204" y="-211" on="0"/>
        <pt x="139" y="-240" on="0"/>
        <pt x="62" y="-247" on="0"/>
        <pt x="28" y="-247" on="1"/>
        <pt x="28" y="-158" on="1"/>
        <pt x="37" y="-158" on="0"/>
        <pt x="57" y="-153" on="0"/>
        <pt x="73" y="-138" on="0"/>
        <pt x="83" y="-113" on="0"/>
        <pt x="83" y="-92" on="1"/>
        <pt x="83" y="-53" on="0"/>
        <pt x="75" y="6" on="0"/>
        <pt x="66" y="63" on="0"/>
        <pt x="58" y="125" on="0"/>
        <pt x="58" y="167" on="1"/>
        <pt x="58" y="227" on="0"/>
        <pt x="104" y="289" on="0"/>
        <pt x="136" y="303" on="1"/>
        <pt x="104" y="317" on="0"/>
        <pt x="58" y="380" on="0"/>
        <pt x="58" y="440" on="1"/>
        <pt x="58" y="482" on="0"/>
        <pt x="66" y="544" on="0"/>
        <pt x="75" y="601" on="0"/>
        <pt x="83" y="660" on="0"/>
        <pt x="83" y="699" on="1"/>
        <pt x="83" y="739" on="0"/>
        <pt x="49" y="764" on="0"/>
        <pt x="28" y="764" on="1"/>
        <pt x="28" y="853" on="1"/>
        <pt x="62" y="853" on="0"/>
        <pt x="139" y="846" on="0"/>
        <pt x="204" y="817" on="0"/>
        <pt x="247" y="760" on="0"/>
        <pt x="247" y="709" on="1"/>
        <pt x="247" y="664" on="0"/>
        <pt x="239" y="598" on="0"/>
        <pt x="230" y="537" on="0"/>
        <pt x="222" y="472" on="0"/>
        <pt x="222" y="428" on="1"/>
        <pt x="222" y="407" on="0"/>
        <pt x="233" y="380" on="0"/>
        <pt x="249" y="364" on="0"/>
        <pt x="268" y="358" on="0"/>
        <pt x="277" y="358" on="1"/>
      </contour>
    </TTGlyph>
    <TTGlyph name="bracketleft" xMin="44" yMin="-286" xMax="323" yMax="896">
      <contour>
        <pt x="44" y="873" on="1"/>
        <pt x="311" y="896" on="1"/>
        <pt x="323" y="767" on="1"/>
        <pt x="212" y="744" on="1"/>
        <pt x="212" y="-134" on="1"/>
        <pt x="323" y="-157" on="1"/>
        <pt x="311" y="-286" on="1"/>
        <pt x="44" y="-263" on="1"/>
      </contour>
    </TTGlyph>
    <TTGlyph name="bracketright" xMin="2" yMin="-286" xMax="281" yMax="896">
      <contour>
        <pt x="281" y="-263" on="1"/>
        <pt x="14" y="-286" on="1"/>
        <pt x="2" y="-157" on="1"/>
        <pt x="113" y="-134" on="1"/>
        <pt x="113" y="744" on="1"/>
        <pt x="2" y="767" on="1"/>
        <pt x="14" y="896" on="1"/>
        <pt x="281" y="873" on="1"/>
      </contour>
    </TTGlyph>
    <TTGlyph name="brokenbar" xMin="62" yMin="-327" xMax="193" yMax="940">
      <contour>
        <pt x="193" y="208" on="1"/>
        <pt x="193" y="-327" on="1"/>
        <pt x="62" y="-327" on="1"/>
        <pt x="62" y="208" on="1"/>
      </contour>
      <contour>
        <pt x="62" y="406" on="1"/>
        <pt x="62" y="940" on="1"/>
        <pt x="193" y="940" on="1"/>
        <pt x="193" y="406" on="1"/>
      </contour>
    </TTGlyph>
    <TTGlyph name="bullet" xMin="35" yMin="249" xMax="308" yMax="520">
      <contour>
        <pt x="35" y="384" on="1"/>
        <pt x="35" y="412" on="0"/>
        <pt x="56" y="462" on="0"/>
        <pt x="94" y="499" on="0"/>
        <pt x="143" y="520" on="0"/>
        <pt x="172" y="520" on="1"/>
        <pt x="200" y="520" on="0"/>
        <pt x="249" y="499" on="0"/>
        <pt x="286" y="462" on="0"/>
        <pt x="308" y="412" on="0"/>
        <pt x="308" y="384" on="1"/>
        <pt x="308" y="356" on="0"/>
        <pt x="286" y="307" on="0"/>
        <pt x="249" y="270" on="0"/>
        <pt x="200" y="249" on="0"/>
        <pt x="172" y="249" on="1"/>
        <pt x="143" y="249" on="0"/>
        <pt x="94" y="270" on="0"/>
        <pt x="56" y="307" on="0"/>
        <pt x="35" y="356" on="0"/>
      </contour>
    </TTGlyph>
    <TTGlyph name="c" xMin="8" yMin="-14" xMax="540" yMax="570">
      <contour>
        <pt x="252" y="242" on="1"/>
        <pt x="252" y="205" on="0"/>
        <pt x="293" y="164" on="0"/>
        <pt x="341" y="164" on="1"/>
        <pt x="390" y="164" on="0"/>
        <pt x="488" y="174" on="0"/>
        <pt x="534" y="182" on="1"/>
        <pt x="534" y="25" on="1"/>
        <pt x="515" y="18" on="0"/>
        <pt x="471" y="4" on="0"/>
        <pt x="417" y="-7" on="0"/>
        <pt x="352" y="-14" on="0"/>
        <pt x="311" y="-14" on="1"/>
        <pt x="241" y="-14" on="0"/>
        <pt x="129" y="22" on="0"/>
        <pt x="50" y="95" on="0"/>
        <pt x="8" y="204" on="0"/>
        <pt x="8" y="278" on="1"/>
        <pt x="8" y="351" on="0"/>
        <pt x="50" y="461" on="0"/>
        <pt x="129" y="534" on="0"/>
        <pt x="241" y="570" on="0"/>
        <pt x="310" y="570" on="1"/>
        <pt x="352" y="570" on="0"/>
        <pt x="421" y="558" on="0"/>
        <pt x="477" y="540" on="0"/>
        <pt x="522" y="518" on="0"/>
        <pt x="540" y="508" on="1"/>
        <pt x="540" y="310" on="1"/>
        <pt x="368" y="310" on="1"/>
        <pt x="368" y="328" on="1"/>
        <pt x="368" y="362" on="0"/>
        <pt x="339" y="392" on="0"/>
        <pt x="310" y="392" on="1"/>
        <pt x="282" y="392" on="0"/>
        <pt x="252" y="362" on="0"/>
        <pt x="252" y="328" on="1"/>
      </contour>
    </TTGlyph>
    <TTGlyph name="caron" xMin="0" yMin="611" xMax="431" yMax="778">
      <contour>
        <pt x="282" y="778" on="1"/>
        <pt x="431" y="778" on="1"/>
        <pt x="431" y="763" on="1"/>
        <pt x="314" y="611" on="1"/>
        <pt x="117" y="611" on="1"/>
        <pt x="0" y="763" on="1"/>
        <pt x="0" y="778" on="1"/>
        <pt x="149" y="778" on="1"/>
        <pt x="211" y="713" on="1"/>
        <pt x="220" y="713" on="1"/>
      </contour>
    </TTGlyph>
    <TTGlyph name="caron.cap" xMin="-43" yMin="841" xMax="474" yMax="952">
      <contour>
        <pt x="306" y="952" on="1"/>
        <pt x="474" y="952" on="1"/>
        <pt x="474" y="937" on="1"/>
        <pt x="347" y="841" on="1"/>
        <pt x="84" y="841" on="1"/>
        <pt x="-43" y="937" on="1"/>
        <pt x="-43" y="952" on="1"/>
        <pt x="125" y="952" on="1"/>
        <pt x="204" y="895" on="1"/>
        <pt x="227" y="895" on="1"/>
      </contour>
    </TTGlyph>
    <TTGlyph name="ccedilla" xMin="8" yMin="-246" xMax="540" yMax="570">
      <contour>
        <pt x="252" y="242" on="1"/>
        <pt x="252" y="205" on="0"/>
        <pt x="293" y="164" on="0"/>
        <pt x="341" y="164" on="1"/>
        <pt x="390" y="164" on="0"/>
        <pt x="488" y="174" on="0"/>
        <pt x="534" y="182" on="1"/>
        <pt x="534" y="25" on="1"/>
        <pt x="515" y="18" on="0"/>
        <pt x="471" y="4" on="0"/>
        <pt x="417" y="-7" on="0"/>
        <pt x="384" y="-10" on="1"/>
        <pt x="364" y="-12" on="0"/>
        <pt x="340" y="-13" on="1"/>
        <pt x="340" y="-39" on="1"/>
        <pt x="385" y="-39" on="0"/>
        <pt x="441" y="-85" on="0"/>
        <pt x="441" y="-133" on="1"/>
        <pt x="441" y="-187" on="0"/>
        <pt x="366" y="-246" on="0"/>
        <pt x="300" y="-246" on="1"/>
        <pt x="265" y="-246" on="0"/>
        <pt x="202" y="-235" on="0"/>
        <pt x="177" y="-228" on="1"/>
        <pt x="177" y="-157" on="1"/>
        <pt x="197" y="-162" on="0"/>
        <pt x="255" y="-171" on="0"/>
        <pt x="289" y="-171" on="1"/>
        <pt x="307" y="-171" on="0"/>
        <pt x="323" y="-153" on="0"/>
        <pt x="323" y="-139" on="1"/>
        <pt x="323" y="-125" on="0"/>
        <pt x="307" y="-107" on="0"/>
        <pt x="289" y="-107" on="1"/>
        <pt x="245" y="-107" on="1"/>
        <pt x="245" y="-9" on="1"/>
        <pt x="213" y="-5" on="0"/>
        <pt x="185" y="4" on="1"/>
        <pt x="129" y="22" on="0"/>
        <pt x="50" y="95" on="0"/>
        <pt x="8" y="204" on="0"/>
        <pt x="8" y="278" on="1"/>
        <pt x="8" y="351" on="0"/>
        <pt x="50" y="461" on="0"/>
        <pt x="129" y="534" on="0"/>
        <pt x="241" y="570" on="0"/>
        <pt x="310" y="570" on="1"/>
        <pt x="352" y="570" on="0"/>
        <pt x="421" y="558" on="0"/>
        <pt x="477" y="540" on="0"/>
        <pt x="522" y="518" on="0"/>
        <pt x="540" y="508" on="1"/>
        <pt x="540" y="310" on="1"/>
        <pt x="368" y="310" on="1"/>
        <pt x="368" y="328" on="1"/>
        <pt x="368" y="362" on="0"/>
        <pt x="339" y="392" on="0"/>
        <pt x="310" y="392" on="1"/>
        <pt x="282" y="392" on="0"/>
        <pt x="252" y="362" on="0"/>
        <pt x="252" y="328" on="1"/>
      </contour>
    </TTGlyph>
    <TTGlyph name="cedilla" xMin="183" yMin="-246" xMax="447" yMax="0">
      <contour>
        <pt x="251" y="0" on="1"/>
        <pt x="346" y="0" on="1"/>
        <pt x="346" y="-39" on="1"/>
        <pt x="391" y="-39" on="0"/>
        <pt x="447" y="-85" on="0"/>
        <pt x="447" y="-133" on="1"/>
        <pt x="447" y="-187" on="0"/>
        <pt x="372" y="-246" on="0"/>
        <pt x="306" y="-246" on="1"/>
        <pt x="271" y="-246" on="0"/>
        <pt x="208" y="-235" on="0"/>
        <pt x="183" y="-228" on="1"/>
        <pt x="183" y="-157" on="1"/>
        <pt x="203" y="-162" on="0"/>
        <pt x="261" y="-171" on="0"/>
        <pt x="295" y="-171" on="1"/>
        <pt x="313" y="-171" on="0"/>
        <pt x="329" y="-153" on="0"/>
        <pt x="329" y="-139" on="1"/>
        <pt x="329" y="-125" on="0"/>
        <pt x="313" y="-107" on="0"/>
        <pt x="295" y="-107" on="1"/>
        <pt x="251" y="-107" on="1"/>
      </contour>
    </TTGlyph>
    <TTGlyph name="cent" xMin="8" yMin="-104" xMax="540" yMax="657">
      <contour>
        <pt x="234" y="-104" on="1"/>
        <pt x="234" y="-8" on="1"/>
        <pt x="128" y="10" on="0"/>
        <pt x="8" y="151" on="0"/>
        <pt x="8" y="278" on="1"/>
        <pt x="8" y="404" on="0"/>
        <pt x="128" y="546" on="0"/>
        <pt x="234" y="564" on="1"/>
        <pt x="234" y="657" on="1"/>
        <pt x="365" y="657" on="1"/>
        <pt x="365" y="567" on="1"/>
        <pt x="429" y="559" on="0"/>
        <pt x="512" y="526" on="0"/>
        <pt x="540" y="508" on="1"/>
        <pt x="540" y="310" on="1"/>
        <pt x="368" y="310" on="1"/>
        <pt x="368" y="328" on="1"/>
        <pt x="368" y="362" on="0"/>
        <pt x="339" y="392" on="0"/>
        <pt x="310" y="392" on="1"/>
        <pt x="282" y="392" on="0"/>
        <pt x="252" y="362" on="0"/>
        <pt x="252" y="328" on="1"/>
        <pt x="252" y="242" on="1"/>
        <pt x="252" y="205" on="0"/>
        <pt x="293" y="164" on="0"/>
        <pt x="341" y="164" on="1"/>
        <pt x="390" y="164" on="0"/>
        <pt x="488" y="174" on="0"/>
        <pt x="534" y="182" on="1"/>
        <pt x="534" y="25" on="1"/>
        <pt x="505" y="14" on="0"/>
        <pt x="425" y="-7" on="0"/>
        <pt x="365" y="-12" on="1"/>
        <pt x="365" y="-104" on="1"/>
      </contour>
    </TTGlyph>
    <TTGlyph name="circumflex" xMin="0" yMin="611" xMax="431" yMax="778">
      <contour>
        <pt x="220" y="676" on="1"/>
        <pt x="211" y="676" on="1"/>
        <pt x="149" y="611" on="1"/>
        <pt x="0" y="611" on="1"/>
        <pt x="0" y="626" on="1"/>
        <pt x="117" y="778" on="1"/>
        <pt x="314" y="778" on="1"/>
        <pt x="431" y="626" on="1"/>
        <pt x="431" y="611" on="1"/>
        <pt x="282" y="611" on="1"/>
      </contour>
    </TTGlyph>
    <TTGlyph name="circumflex.cap" xMin="-43" yMin="841" xMax="474" yMax="952">
      <contour>
        <pt x="227" y="898" on="1"/>
        <pt x="204" y="898" on="1"/>
        <pt x="125" y="841" on="1"/>
        <pt x="-43" y="841" on="1"/>
        <pt x="-43" y="856" on="1"/>
        <pt x="84" y="952" on="1"/>
        <pt x="347" y="952" on="1"/>
        <pt x="474" y="856" on="1"/>
        <pt x="474" y="841" on="1"/>
        <pt x="306" y="841" on="1"/>
      </contour>
    </TTGlyph>
    <TTGlyph name="colon" xMin="40" yMin="0" xMax="196" yMax="519">
      <contour>
        <pt x="40" y="519" on="1"/>
        <pt x="196" y="519" on="1"/>
        <pt x="196" y="355" on="1"/>
        <pt x="40" y="355" on="1"/>
      </contour>
      <contour>
        <pt x="40" y="164" on="1"/>
        <pt x="196" y="164" on="1"/>
        <pt x="196" y="0" on="1"/>
        <pt x="40" y="0" on="1"/>
      </contour>
    </TTGlyph>
    <TTGlyph name="comma" xMin="40" yMin="-161" xMax="197" yMax="164">
      <contour>
        <pt x="41" y="164" on="1"/>
        <pt x="197" y="164" on="1"/>
        <pt x="197" y="0" on="1"/>
        <pt x="126" y="-161" on="1"/>
        <pt x="40" y="-161" on="1"/>
        <pt x="92" y="0" on="1"/>
        <pt x="41" y="0" on="1"/>
      </contour>
    </TTGlyph>
    <TTGlyph name="commaaccent" xMin="75" yMin="-333" xMax="225" yMax="-78">
      <contour>
        <pt x="75" y="-78" on="1"/>
        <pt x="225" y="-78" on="1"/>
        <pt x="225" y="-220" on="1"/>
        <pt x="170" y="-333" on="1"/>
        <pt x="84" y="-333" on="1"/>
        <pt x="116" y="-220" on="1"/>
        <pt x="75" y="-220" on="1"/>
      </contour>
    </TTGlyph>
    <TTGlyph name="copyright" xMin="24" yMin="126" xMax="690" yMax="792">
      <contour>
        <pt x="392" y="403" on="1"/>
        <pt x="477" y="403" on="1"/>
        <pt x="477" y="331" on="1"/>
        <pt x="460" y="320" on="0"/>
        <pt x="403" y="300" on="0"/>
        <pt x="356" y="300" on="1"/>
        <pt x="287" y="300" on="0"/>
        <pt x="207" y="374" on="0"/>
        <pt x="207" y="460" on="1"/>
        <pt x="207" y="546" on="0"/>
        <pt x="286" y="620" on="0"/>
        <pt x="355" y="620" on="1"/>
        <pt x="402" y="620" on="0"/>
        <pt x="460" y="599" on="0"/>
        <pt x="477" y="588" on="1"/>
        <pt x="477" y="520" on="1"/>
        <pt x="392" y="520" on="1"/>
        <pt x="392" y="530" on="1"/>
        <pt x="392" y="558" on="0"/>
        <pt x="355" y="558" on="1"/>
        <pt x="319" y="558" on="0"/>
        <pt x="319" y="530" on="1"/>
        <pt x="319" y="389" on="1"/>
        <pt x="319" y="362" on="0"/>
        <pt x="355" y="362" on="1"/>
        <pt x="392" y="362" on="0"/>
        <pt x="392" y="389" on="1"/>
      </contour>
      <contour>
        <pt x="24" y="459" on="1"/>
        <pt x="24" y="528" on="0"/>
        <pt x="76" y="649" on="0"/>
        <pt x="167" y="740" on="0"/>
        <pt x="288" y="792" on="0"/>
        <pt x="357" y="792" on="1"/>
        <pt x="426" y="792" on="0"/>
        <pt x="547" y="740" on="0"/>
        <pt x="638" y="649" on="0"/>
        <pt x="690" y="528" on="0"/>
        <pt x="690" y="459" on="1"/>
        <pt x="690" y="390" on="0"/>
        <pt x="638" y="269" on="0"/>
        <pt x="547" y="178" on="0"/>
        <pt x="426" y="126" on="0"/>
        <pt x="357" y="126" on="1"/>
        <pt x="288" y="126" on="0"/>
        <pt x="167" y="178" on="0"/>
        <pt x="76" y="269" on="0"/>
        <pt x="24" y="390" on="0"/>
      </contour>
      <contour>
        <pt x="129" y="459" on="1"/>
        <pt x="129" y="411" on="0"/>
        <pt x="165" y="328" on="0"/>
        <pt x="226" y="267" on="0"/>
        <pt x="309" y="231" on="0"/>
        <pt x="357" y="231" on="1"/>
        <pt x="404" y="231" on="0"/>
        <pt x="487" y="267" on="0"/>
        <pt x="549" y="328" on="0"/>
        <pt x="585" y="411" on="0"/>
        <pt x="585" y="459" on="1"/>
        <pt x="585" y="506" on="0"/>
        <pt x="549" y="589" on="0"/>
        <pt x="487" y="651" on="0"/>
        <pt x="404" y="687" on="0"/>
        <pt x="357" y="687" on="1"/>
        <pt x="309" y="687" on="0"/>
        <pt x="226" y="651" on="0"/>
        <pt x="165" y="589" on="0"/>
        <pt x="129" y="506" on="0"/>
      </contour>
    </TTGlyph>
    <TTGlyph name="currency" xMin="8" yMin="53" xMax="576" yMax="601">
      <contour>
        <pt x="8" y="160" on="1"/>
        <pt x="88" y="240" on="1"/>
        <pt x="83" y="260" on="0"/>
        <pt x="79" y="303" on="0"/>
        <pt x="79" y="327" on="1"/>
        <pt x="79" y="374" on="0"/>
        <pt x="88" y="412" on="1"/>
        <pt x="8" y="493" on="1"/>
        <pt x="116" y="601" on="1"/>
        <pt x="181" y="535" on="1"/>
        <pt x="226" y="556" on="0"/>
        <pt x="292" y="556" on="1"/>
        <pt x="358" y="556" on="0"/>
        <pt x="403" y="535" on="1"/>
        <pt x="469" y="601" on="1"/>
        <pt x="576" y="493" on="1"/>
        <pt x="496" y="413" on="1"/>
        <pt x="506" y="379" on="0"/>
        <pt x="506" y="327" on="1"/>
        <pt x="506" y="278" on="0"/>
        <pt x="496" y="239" on="1"/>
        <pt x="576" y="160" on="1"/>
        <pt x="469" y="53" on="1"/>
        <pt x="402" y="119" on="1"/>
        <pt x="358" y="98" on="0"/>
        <pt x="292" y="98" on="1"/>
        <pt x="225" y="98" on="0"/>
        <pt x="182" y="119" on="1"/>
        <pt x="116" y="53" on="1"/>
      </contour>
      <contour>
        <pt x="222" y="327" on="1"/>
        <pt x="222" y="270" on="0"/>
        <pt x="254" y="221" on="0"/>
        <pt x="292" y="221" on="1"/>
        <pt x="330" y="221" on="0"/>
        <pt x="363" y="270" on="0"/>
        <pt x="363" y="327" on="1"/>
        <pt x="363" y="384" on="0"/>
        <pt x="330" y="433" on="0"/>
        <pt x="292" y="433" on="1"/>
        <pt x="254" y="433" on="0"/>
        <pt x="222" y="384" on="0"/>
      </contour>
    </TTGlyph>
    <TTGlyph name="d" xMin="12" yMin="-14" xMax="646" yMax="778">
      <contour>
        <pt x="372" y="614" on="1"/>
        <pt x="313" y="614" on="1"/>
        <pt x="313" y="778" on="1"/>
        <pt x="602" y="778" on="1"/>
        <pt x="602" y="164" on="1"/>
        <pt x="646" y="164" on="1"/>
        <pt x="646" y="0" on="1"/>
        <pt x="372" y="0" on="1"/>
        <pt x="372" y="68" on="1"/>
        <pt x="363" y="56" on="0"/>
        <pt x="333" y="27" on="0"/>
        <pt x="294" y="3" on="0"/>
        <pt x="245" y="-14" on="0"/>
        <pt x="217" y="-14" on="1"/>
        <pt x="113" y="-14" on="0"/>
        <pt x="12" y="139" on="0"/>
        <pt x="12" y="278" on="1"/>
        <pt x="12" y="417" on="0"/>
        <pt x="113" y="570" on="0"/>
        <pt x="217" y="570" on="1"/>
        <pt x="245" y="570" on="0"/>
        <pt x="294" y="553" on="0"/>
        <pt x="333" y="529" on="0"/>
        <pt x="363" y="500" on="0"/>
        <pt x="372" y="488" on="1"/>
      </contour>
      <contour>
        <pt x="256" y="228" on="1"/>
        <pt x="256" y="194" on="0"/>
        <pt x="285" y="164" on="0"/>
        <pt x="314" y="164" on="1"/>
        <pt x="343" y="164" on="0"/>
        <pt x="372" y="194" on="0"/>
        <pt x="372" y="228" on="1"/>
        <pt x="372" y="328" on="1"/>
        <pt x="372" y="362" on="0"/>
        <pt x="343" y="392" on="0"/>
        <pt x="314" y="392" on="1"/>
        <pt x="285" y="392" on="0"/>
        <pt x="256" y="362" on="0"/>
        <pt x="256" y="328" on="1"/>
      </contour>
    </TTGlyph>
    <TTGlyph name="degree" xMin="4" yMin="556" xMax="240" yMax="792">
      <contour>
        <pt x="4" y="674" on="1"/>
        <pt x="4" y="698" on="0"/>
        <pt x="22" y="741" on="0"/>
        <pt x="54" y="773" on="0"/>
        <pt x="97" y="792" on="0"/>
        <pt x="122" y="792" on="1"/>
        <pt x="146" y="792" on="0"/>
        <pt x="189" y="773" on="0"/>
        <pt x="221" y="741" on="0"/>
        <pt x="240" y="698" on="0"/>
        <pt x="240" y="674" on="1"/>
        <pt x="240" y="649" on="0"/>
        <pt x="221" y="606" on="0"/>
        <pt x="189" y="574" on="0"/>
        <pt x="146" y="556" on="0"/>
        <pt x="122" y="556" on="1"/>
        <pt x="71" y="556" on="0"/>
        <pt x="4" y="623" on="0"/>
      </contour>
      <contour>
        <pt x="76" y="674" on="1"/>
        <pt x="76" y="655" on="0"/>
        <pt x="103" y="628" on="0"/>
        <pt x="122" y="628" on="1"/>
        <pt x="140" y="628" on="0"/>
        <pt x="167" y="655" on="0"/>
        <pt x="167" y="674" on="1"/>
        <pt x="167" y="692" on="0"/>
        <pt x="140" y="719" on="0"/>
        <pt x="122" y="719" on="1"/>
        <pt x="103" y="719" on="0"/>
        <pt x="76" y="692" on="0"/>
      </contour>
    </TTGlyph>
    <TTGlyph name="dieresis" xMin="15" yMin="611" xMax="437" yMax="778">
      <contour>
        <pt x="15" y="778" on="1"/>
        <pt x="182" y="778" on="1"/>
        <pt x="182" y="611" on="1"/>
        <pt x="15" y="611" on="1"/>
      </contour>
      <contour>
        <pt x="271" y="778" on="1"/>
        <pt x="437" y="778" on="1"/>
        <pt x="437" y="611" on="1"/>
        <pt x="271" y="611" on="1"/>
      </contour>
    </TTGlyph>
    <TTGlyph name="dieresis.cap" xMin="-6" yMin="841" xMax="466" yMax="952">
      <contour>
        <pt x="-6" y="952" on="1"/>
        <pt x="181" y="952" on="1"/>
        <pt x="181" y="841" on="1"/>
        <pt x="-6" y="841" on="1"/>
      </contour>
      <contour>
        <pt x="280" y="952" on="1"/>
        <pt x="466" y="952" on="1"/>
        <pt x="466" y="841" on="1"/>
        <pt x="280" y="841" on="1"/>
      </contour>
    </TTGlyph>
    <TTGlyph name="divide" xMin="40" yMin="52" xMax="481" yMax="608">
      <contour>
        <pt x="179" y="608" on="1"/>
        <pt x="335" y="608" on="1"/>
        <pt x="335" y="456" on="1"/>
        <pt x="179" y="456" on="1"/>
      </contour>
      <contour>
        <pt x="179" y="204" on="1"/>
        <pt x="335" y="204" on="1"/>
        <pt x="335" y="52" on="1"/>
        <pt x="179" y="52" on="1"/>
      </contour>
      <contour>
        <pt x="40" y="260" on="1"/>
        <pt x="40" y="404" on="1"/>
        <pt x="481" y="404" on="1"/>
        <pt x="481" y="260" on="1"/>
      </contour>
    </TTGlyph>
    <TTGlyph name="dollar" xMin="22" yMin="-132" xMax="674" yMax="903">
      <contour>
        <pt x="279" y="-132" on="1"/>
        <pt x="279" y="-12" on="1"/>
        <pt x="185" y="-6" on="0"/>
        <pt x="69" y="26" on="0"/>
        <pt x="31" y="40" on="1"/>
        <pt x="31" y="238" on="1"/>
        <pt x="251" y="238" on="1"/>
        <pt x="251" y="208" on="0"/>
        <pt x="275" y="179" on="0"/>
        <pt x="313" y="179" on="1"/>
        <pt x="346" y="179" on="0"/>
        <pt x="374" y="199" on="0"/>
        <pt x="374" y="219" on="1"/>
        <pt x="374" y="233" on="0"/>
        <pt x="351" y="254" on="0"/>
        <pt x="316" y="268" on="1"/>
        <pt x="242" y="296" on="0"/>
        <pt x="131" y="347" on="0"/>
        <pt x="58" y="409" on="0"/>
        <pt x="22" y="492" on="0"/>
        <pt x="22" y="551" on="1"/>
        <pt x="22" y="600" on="0"/>
        <pt x="49" y="681" on="0"/>
        <pt x="109" y="742" on="0"/>
        <pt x="207" y="781" on="0"/>
        <pt x="279" y="788" on="1"/>
        <pt x="279" y="903" on="1"/>
        <pt x="410" y="903" on="1"/>
        <pt x="410" y="790" on="1"/>
        <pt x="457" y="787" on="0"/>
        <pt x="529" y="774" on="0"/>
        <pt x="589" y="757" on="0"/>
        <pt x="639" y="738" on="0"/>
        <pt x="655" y="728" on="1"/>
        <pt x="655" y="549" on="1"/>
        <pt x="445" y="549" on="1"/>
        <pt x="445" y="578" on="0"/>
        <pt x="413" y="599" on="0"/>
        <pt x="390" y="599" on="1"/>
        <pt x="357" y="599" on="0"/>
        <pt x="328" y="582" on="0"/>
        <pt x="328" y="561" on="1"/>
        <pt x="328" y="544" on="0"/>
        <pt x="359" y="528" on="0"/>
        <pt x="390" y="518" on="1"/>
        <pt x="448" y="499" on="0"/>
        <pt x="551" y="457" on="0"/>
        <pt x="629" y="395" on="0"/>
        <pt x="674" y="307" on="0"/>
        <pt x="674" y="243" on="1"/>
        <pt x="674" y="128" on="0"/>
        <pt x="540" y="1" on="0"/>
        <pt x="410" y="-11" on="1"/>
        <pt x="410" y="-132" on="1"/>
      </contour>
    </TTGlyph>
    <TTGlyph name="dotaccentcmb" xMin="67" yMin="611" xMax="251" yMax="778">
      <contour>
        <pt x="67" y="778" on="1"/>
        <pt x="251" y="778" on="1"/>
        <pt x="251" y="611" on="1"/>
        <pt x="67" y="611" on="1"/>
      </contour>
    </TTGlyph>
    <TTGlyph name="dotaccentcmb.cap" xMin="67" yMin="832" xMax="251" yMax="959">
      <contour>
        <pt x="67" y="959" on="1"/>
        <pt x="251" y="959" on="1"/>
        <pt x="251" y="832" on="1"/>
        <pt x="67" y="832" on="1"/>
      </contour>
    </TTGlyph>
    <TTGlyph name="dotlessi" xMin="18" yMin="0" xMax="336" yMax="556">
      <contour>
        <pt x="292" y="164" on="1"/>
        <pt x="336" y="164" on="1"/>
        <pt x="336" y="0" on="1"/>
        <pt x="18" y="0" on="1"/>
        <pt x="18" y="164" on="1"/>
        <pt x="62" y="164" on="1"/>
        <pt x="62" y="392" on="1"/>
        <pt x="18" y="392" on="1"/>
        <pt x="18" y="556" on="1"/>
        <pt x="292" y="556" on="1"/>
      </contour>
    </TTGlyph>
    <TTGlyph name="dotlessj" xMin="-90" yMin="-236" xMax="301" yMax="556">
      <contour>
        <pt x="4" y="556" on="1"/>
        <pt x="301" y="556" on="1"/>
        <pt x="301" y="34" on="1"/>
        <pt x="301" y="-105" on="0"/>
        <pt x="186" y="-236" on="0"/>
        <pt x="68" y="-236" on="1"/>
        <pt x="27" y="-236" on="0"/>
        <pt x="-54" y="-224" on="0"/>
        <pt x="-90" y="-214" on="1"/>
        <pt x="-90" y="-51" on="1"/>
        <pt x="-59" y="-55" on="0"/>
        <pt x="-10" y="-58" on="0"/>
        <pt x="4" y="-58" on="1"/>
        <pt x="36" y="-58" on="0"/>
        <pt x="71" y="-24" on="0"/>
        <pt x="71" y="14" on="1"/>
        <pt x="71" y="392" on="1"/>
        <pt x="4" y="392" on="1"/>
      </contour>
    </TTGlyph>
    <TTGlyph name="e" xMin="8" yMin="-14" xMax="576" yMax="570">
      <contour>
        <pt x="310" y="570" on="1"/>
        <pt x="387" y="570" on="0"/>
        <pt x="489" y="525" on="0"/>
        <pt x="551" y="453" on="0"/>
        <pt x="576" y="361" on="0"/>
        <pt x="576" y="314" on="1"/>
        <pt x="576" y="242" on="1"/>
        <pt x="252" y="242" on="1"/>
        <pt x="252" y="236" on="1"/>
        <pt x="252" y="200" on="0"/>
        <pt x="293" y="164" on="0"/>
        <pt x="347" y="164" on="1"/>
        <pt x="413" y="164" on="0"/>
        <pt x="523" y="184" on="0"/>
        <pt x="559" y="196" on="1"/>
        <pt x="559" y="36" on="1"/>
        <pt x="541" y="27" on="0"/>
        <pt x="494" y="10" on="0"/>
        <pt x="434" y="-5" on="0"/>
        <pt x="358" y="-14" on="0"/>
        <pt x="310" y="-14" on="1"/>
        <pt x="241" y="-14" on="0"/>
        <pt x="129" y="22" on="0"/>
        <pt x="50" y="95" on="0"/>
        <pt x="8" y="204" on="0"/>
        <pt x="8" y="278" on="1"/>
        <pt x="8" y="351" on="0"/>
        <pt x="50" y="461" on="0"/>
        <pt x="129" y="534" on="0"/>
        <pt x="241" y="570" on="0"/>
      </contour>
      <contour>
        <pt x="310" y="392" on="1"/>
        <pt x="281" y="392" on="0"/>
        <pt x="252" y="362" on="0"/>
        <pt x="252" y="328" on="1"/>
        <pt x="252" y="322" on="1"/>
        <pt x="368" y="322" on="1"/>
        <pt x="368" y="328" on="1"/>
        <pt x="368" y="362" on="0"/>
        <pt x="339" y="392" on="0"/>
      </contour>
    </TTGlyph>
    <TTGlyph name="eacute" xMin="8" yMin="-14" xMax="576" yMax="778">
      <component glyphName="e" x="0" y="0" flags="0x204"/>
      <component glyphName="acute" x="205" y="0" flags="0x4"/>
    </TTGlyph>
    <TTGlyph name="ecircumflex" xMin="8" yMin="-14" xMax="576" yMax="778">
      <component glyphName="e" x="0" y="0" flags="0x204"/>
      <component glyphName="circumflex" x="98" y="0" flags="0x4"/>
    </TTGlyph>
    <TTGlyph name="edieresis" xMin="8" yMin="-14" xMax="576" yMax="778">
      <component glyphName="e" x="0" y="0" flags="0x204"/>
      <component glyphName="dieresis" x="89" y="0" flags="0x4"/>
    </TTGlyph>
    <TTGlyph name="egrave" xMin="8" yMin="-14" xMax="576" yMax="778">
      <component glyphName="e" x="0" y="0" flags="0x204"/>
      <component glyphName="grave" x="130" y="0" flags="0x4"/>
    </TTGlyph>
    <TTGlyph name="eight" xMin="10" yMin="-14" xMax="690" yMax="792">
      <contour>
        <pt x="10" y="212" on="1"/>
        <pt x="10" y="258" on="0"/>
        <pt x="38" y="323" on="0"/>
        <pt x="80" y="368" on="0"/>
        <pt x="129" y="394" on="0"/>
        <pt x="150" y="400" on="1"/>
        <pt x="150" y="410" on="1"/>
        <pt x="131" y="416" on="0"/>
        <pt x="89" y="439" on="0"/>
        <pt x="55" y="477" on="0"/>
        <pt x="32" y="532" on="0"/>
        <pt x="32" y="570" on="1"/>
        <pt x="32" y="616" on="0"/>
        <pt x="72" y="697" on="0"/>
        <pt x="152" y="757" on="0"/>
        <pt x="271" y="792" on="0"/>
        <pt x="350" y="792" on="1"/>
        <pt x="429" y="792" on="0"/>
        <pt x="548" y="757" on="0"/>
        <pt x="627" y="697" on="0"/>
        <pt x="666" y="616" on="0"/>
        <pt x="666" y="570" on="1"/>
        <pt x="666" y="532" on="0"/>
        <pt x="642" y="476" on="0"/>
        <pt x="607" y="438" on="0"/>
        <pt x="566" y="416" on="0"/>
        <pt x="549" y="410" on="1"/>
        <pt x="549" y="400" on="1"/>
        <pt x="570" y="394" on="0"/>
        <pt x="619" y="368" on="0"/>
        <pt x="661" y="325" on="0"/>
        <pt x="690" y="262" on="0"/>
        <pt x="690" y="218" on="1"/>
        <pt x="690" y="165" on="0"/>
        <pt x="645" y="80" on="0"/>
        <pt x="559" y="19" on="0"/>
        <pt x="432" y="-14" on="0"/>
        <pt x="350" y="-14" on="1"/>
        <pt x="268" y="-14" on="0"/>
        <pt x="141" y="19" on="0"/>
        <pt x="55" y="79" on="0"/>
        <pt x="10" y="162" on="0"/>
      </contour>
      <contour>
        <pt x="428" y="238" on="1"/>
        <pt x="428" y="286" on="0"/>
        <pt x="389" y="326" on="0"/>
        <pt x="350" y="326" on="1"/>
        <pt x="311" y="326" on="0"/>
        <pt x="272" y="286" on="0"/>
        <pt x="272" y="238" on="1"/>
        <pt x="272" y="199" on="0"/>
        <pt x="311" y="164" on="0"/>
        <pt x="350" y="164" on="1"/>
        <pt x="389" y="164" on="0"/>
        <pt x="428" y="199" on="0"/>
      </contour>
      <contour>
        <pt x="282" y="540" on="1"/>
        <pt x="282" y="513" on="0"/>
        <pt x="316" y="478" on="0"/>
        <pt x="350" y="478" on="1"/>
        <pt x="384" y="478" on="0"/>
        <pt x="418" y="513" on="0"/>
        <pt x="418" y="540" on="1"/>
        <pt x="418" y="579" on="0"/>
        <pt x="384" y="614" on="0"/>
        <pt x="350" y="614" on="1"/>
        <pt x="316" y="614" on="0"/>
        <pt x="282" y="579" on="0"/>
      </contour>
    </TTGlyph>
    <TTGlyph name="emdash" xMin="24" yMin="212" xMax="963" yMax="363">
      <contour>
        <pt x="24" y="212" on="1"/>
        <pt x="24" y="363" on="1"/>
        <pt x="963" y="363" on="1"/>
        <pt x="963" y="212" on="1"/>
      </contour>
    </TTGlyph>
    <TTGlyph name="endash" xMin="24" yMin="212" xMax="577" yMax="363">
      <contour>
        <pt x="24" y="212" on="1"/>
        <pt x="24" y="363" on="1"/>
        <pt x="577" y="363" on="1"/>
        <pt x="577" y="212" on="1"/>
      </contour>
    </TTGlyph>
    <TTGlyph name="equal" xMin="40" yMin="122" xMax="455" yMax="553">
      <contour>
        <pt x="455" y="289" on="1"/>
        <pt x="455" y="122" on="1"/>
        <pt x="40" y="122" on="1"/>
        <pt x="40" y="289" on="1"/>
      </contour>
      <contour>
        <pt x="455" y="553" on="1"/>
        <pt x="455" y="387" on="1"/>
        <pt x="40" y="387" on="1"/>
        <pt x="40" y="553" on="1"/>
      </contour>
    </TTGlyph>
    <TTGlyph name="eth" xMin="8" yMin="-14" xMax="612" yMax="830">
      <contour>
        <pt x="231" y="693" on="1"/>
        <pt x="217" y="708" on="0"/>
        <pt x="190" y="730" on="0"/>
        <pt x="179" y="738" on="1"/>
        <pt x="179" y="759" on="1"/>
        <pt x="293" y="830" on="1"/>
        <pt x="322" y="811" on="0"/>
        <pt x="374" y="772" on="0"/>
        <pt x="397" y="750" on="1"/>
        <pt x="519" y="792" on="1"/>
        <pt x="535" y="792" on="1"/>
        <pt x="535" y="700" on="1"/>
        <pt x="468" y="677" on="1"/>
        <pt x="607" y="511" on="0"/>
        <pt x="612" y="292" on="1"/>
        <pt x="612" y="278" on="1"/>
        <pt x="612" y="204" on="0"/>
        <pt x="570" y="95" on="0"/>
        <pt x="491" y="22" on="0"/>
        <pt x="379" y="-14" on="0"/>
        <pt x="310" y="-14" on="1"/>
        <pt x="241" y="-14" on="0"/>
        <pt x="129" y="22" on="0"/>
        <pt x="50" y="95" on="0"/>
        <pt x="8" y="204" on="0"/>
        <pt x="8" y="278" on="1"/>
        <pt x="8" y="351" on="0"/>
        <pt x="50" y="461" on="0"/>
        <pt x="129" y="534" on="0"/>
        <pt x="241" y="570" on="0"/>
        <pt x="310" y="570" on="1"/>
        <pt x="315" y="570" on="1"/>
        <pt x="304" y="596" on="0"/>
        <pt x="291" y="617" on="1"/>
        <pt x="175" y="578" on="1"/>
        <pt x="159" y="578" on="1"/>
        <pt x="159" y="669" on="1"/>
      </contour>
      <contour>
        <pt x="310" y="164" on="1"/>
        <pt x="339" y="164" on="0"/>
        <pt x="368" y="194" on="0"/>
        <pt x="368" y="228" on="1"/>
        <pt x="368" y="328" on="1"/>
        <pt x="368" y="362" on="0"/>
        <pt x="339" y="392" on="0"/>
        <pt x="310" y="392" on="1"/>
        <pt x="281" y="392" on="0"/>
        <pt x="252" y="362" on="0"/>
        <pt x="252" y="328" on="1"/>
        <pt x="252" y="228" on="1"/>
        <pt x="252" y="194" on="0"/>
        <pt x="281" y="164" on="0"/>
      </contour>
    </TTGlyph>
    <TTGlyph name="exclam" xMin="20" yMin="0" xMax="319" yMax="778">
      <contour>
        <pt x="53" y="153" on="1"/>
        <pt x="284" y="153" on="1"/>
        <pt x="284" y="0" on="1"/>
        <pt x="53" y="0" on="1"/>
      </contour>
      <contour>
        <pt x="20" y="727" on="1"/>
        <pt x="20" y="778" on="1"/>
        <pt x="319" y="778" on="1"/>
        <pt x="319" y="727" on="1"/>
        <pt x="272" y="187" on="1"/>
        <pt x="66" y="187" on="1"/>
      </contour>
    </TTGlyph>
    <TTGlyph name="exclamdown" xMin="24" yMin="-222" xMax="323" yMax="556">
      <contour>
        <pt x="290" y="403" on="1"/>
        <pt x="59" y="403" on="1"/>
        <pt x="59" y="556" on="1"/>
        <pt x="290" y="556" on="1"/>
      </contour>
      <contour>
        <pt x="323" y="-171" on="1"/>
        <pt x="323" y="-222" on="1"/>
        <pt x="24" y="-222" on="1"/>
        <pt x="24" y="-171" on="1"/>
        <pt x="71" y="349" on="1"/>
        <pt x="277" y="349" on="1"/>
      </contour>
    </TTGlyph>
    <TTGlyph name="f" xMin="18" yMin="0" xMax="439" yMax="792">
      <contour>
        <pt x="18" y="556" on="1"/>
        <pt x="64" y="556" on="1"/>
        <pt x="64" y="677" on="0"/>
        <pt x="184" y="792" on="0"/>
        <pt x="297" y="792" on="1"/>
        <pt x="340" y="792" on="0"/>
        <pt x="414" y="777" on="0"/>
        <pt x="439" y="766" on="1"/>
        <pt x="439" y="609" on="1"/>
        <pt x="414" y="612" on="0"/>
        <pt x="381" y="614" on="0"/>
        <pt x="361" y="614" on="1"/>
        <pt x="322" y="614" on="0"/>
        <pt x="292" y="588" on="0"/>
        <pt x="292" y="556" on="1"/>
        <pt x="370" y="556" on="1"/>
        <pt x="370" y="392" on="1"/>
        <pt x="292" y="392" on="1"/>
        <pt x="292" y="164" on="1"/>
        <pt x="370" y="164" on="1"/>
        <pt x="370" y="0" on="1"/>
        <pt x="18" y="0" on="1"/>
        <pt x="18" y="164" on="1"/>
        <pt x="62" y="164" on="1"/>
        <pt x="62" y="392" on="1"/>
        <pt x="18" y="392" on="1"/>
      </contour>
    </TTGlyph>
    <TTGlyph name="five" xMin="28" yMin="-24" xMax="637" yMax="778">
      <contour>
        <pt x="65" y="778" on="1"/>
        <pt x="597" y="778" on="1"/>
        <pt x="597" y="584" on="1"/>
        <pt x="265" y="584" on="1"/>
        <pt x="256" y="480" on="1"/>
        <pt x="282" y="495" on="0"/>
        <pt x="360" y="514" on="0"/>
        <pt x="392" y="514" on="1"/>
        <pt x="450" y="514" on="0"/>
        <pt x="542" y="478" on="0"/>
        <pt x="604" y="413" on="0"/>
        <pt x="637" y="322" on="0"/>
        <pt x="637" y="267" on="1"/>
        <pt x="637" y="128" on="0"/>
        <pt x="473" y="-24" on="0"/>
        <pt x="323" y="-24" on="1"/>
        <pt x="268" y="-24" on="0"/>
        <pt x="179" y="-11" on="0"/>
        <pt x="107" y="10" on="0"/>
        <pt x="52" y="36" on="0"/>
        <pt x="31" y="48" on="1"/>
        <pt x="31" y="249" on="1"/>
        <pt x="263" y="249" on="1"/>
        <pt x="263" y="214" on="0"/>
        <pt x="284" y="176" on="0"/>
        <pt x="317" y="176" on="1"/>
        <pt x="346" y="176" on="0"/>
        <pt x="369" y="218" on="0"/>
        <pt x="369" y="266" on="1"/>
        <pt x="369" y="317" on="0"/>
        <pt x="346" y="363" on="0"/>
        <pt x="315" y="363" on="1"/>
        <pt x="285" y="363" on="0"/>
        <pt x="263" y="326" on="0"/>
        <pt x="263" y="303" on="1"/>
        <pt x="73" y="303" on="1"/>
        <pt x="28" y="372" on="1"/>
      </contour>
    </TTGlyph>
    <TTGlyph name="foundryicon" xMin="44" yMin="-222" xMax="1044" yMax="778">
      <contour>
        <pt x="44" y="778" on="1"/>
        <pt x="1044" y="778" on="1"/>
        <pt x="1044" y="-222" on="1"/>
        <pt x="44" y="-222" on="1"/>
      </contour>
      <contour>
        <pt x="539" y="-18" on="1"/>
        <pt x="585" y="-18" on="0"/>
        <pt x="662" y="7" on="0"/>
        <pt x="719" y="52" on="0"/>
        <pt x="751" y="117" on="0"/>
        <pt x="751" y="157" on="1"/>
        <pt x="751" y="202" on="0"/>
        <pt x="709" y="275" on="0"/>
        <pt x="658" y="312" on="1"/>
        <pt x="419" y="484" on="1"/>
        <pt x="442" y="509" on="0"/>
        <pt x="513" y="529" on="0"/>
        <pt x="549" y="529" on="1"/>
        <pt x="588" y="529" on="0"/>
        <pt x="647" y="506" on="0"/>
        <pt x="670" y="492" on="1"/>
        <pt x="667" y="455" on="1"/>
        <pt x="667" y="441" on="0"/>
        <pt x="682" y="425" on="0"/>
        <pt x="696" y="425" on="1"/>
        <pt x="705" y="425" on="0"/>
        <pt x="722" y="439" on="0"/>
        <pt x="723" y="450" on="1"/>
        <pt x="727" y="504" on="1"/>
        <pt x="727" y="507" on="1"/>
        <pt x="727" y="520" on="0"/>
        <pt x="694" y="547" on="0"/>
        <pt x="642" y="569" on="0"/>
        <pt x="577" y="584" on="0"/>
        <pt x="546" y="584" on="1"/>
        <pt x="511" y="584" on="0"/>
        <pt x="437" y="565" on="0"/>
        <pt x="375" y="524" on="0"/>
        <pt x="335" y="458" on="0"/>
        <pt x="335" y="412" on="1"/>
        <pt x="335" y="366" on="0"/>
        <pt x="376" y="292" on="0"/>
        <pt x="427" y="256" on="1"/>
        <pt x="667" y="84" on="1"/>
        <pt x="645" y="61" on="0"/>
        <pt x="582" y="38" on="0"/>
        <pt x="547" y="38" on="1"/>
        <pt x="505" y="38" on="0"/>
        <pt x="430" y="61" on="0"/>
        <pt x="405" y="75" on="1"/>
        <pt x="408" y="113" on="1"/>
        <pt x="408" y="127" on="0"/>
        <pt x="396" y="144" on="0"/>
        <pt x="383" y="144" on="1"/>
        <pt x="369" y="144" on="0"/>
        <pt x="356" y="129" on="0"/>
        <pt x="354" y="118" on="1"/>
        <pt x="348" y="62" on="1"/>
        <pt x="348" y="58" on="1"/>
        <pt x="348" y="44" on="0"/>
        <pt x="385" y="16" on="0"/>
        <pt x="441" y="-5" on="0"/>
        <pt x="508" y="-18" on="0"/>
      </contour>
      <contour>
        <pt x="625" y="268" on="1"/>
        <pt x="648" y="251" on="0"/>
        <pt x="676" y="222" on="0"/>
        <pt x="691" y="195" on="0"/>
        <pt x="695" y="170" on="0"/>
        <pt x="695" y="157" on="1"/>
        <pt x="695" y="149" on="0"/>
        <pt x="694" y="137" on="0"/>
        <pt x="693" y="132" on="1"/>
        <pt x="461" y="299" on="1"/>
        <pt x="423" y="327" on="0"/>
        <pt x="390" y="387" on="0"/>
        <pt x="390" y="413" on="1"/>
        <pt x="390" y="420" on="0"/>
        <pt x="390" y="429" on="0"/>
        <pt x="391" y="434" on="1"/>
      </contour>
    </TTGlyph>
    <TTGlyph name="four" xMin="18" yMin="0" xMax="682" yMax="778">
      <contour>
        <pt x="139" y="778" on="1"/>
        <pt x="376" y="778" on="1"/>
        <pt x="253" y="383" on="1"/>
        <pt x="343" y="383" on="1"/>
        <pt x="343" y="520" on="1"/>
        <pt x="602" y="520" on="1"/>
        <pt x="602" y="383" on="1"/>
        <pt x="682" y="383" on="1"/>
        <pt x="682" y="231" on="1"/>
        <pt x="602" y="231" on="1"/>
        <pt x="602" y="176" on="1"/>
        <pt x="663" y="176" on="1"/>
        <pt x="663" y="0" on="1"/>
        <pt x="216" y="0" on="1"/>
        <pt x="216" y="176" on="1"/>
        <pt x="343" y="176" on="1"/>
        <pt x="343" y="231" on="1"/>
        <pt x="18" y="231" on="1"/>
        <pt x="18" y="402" on="1"/>
      </contour>
    </TTGlyph>
    <TTGlyph name="g" xMin="12" yMin="-236" xMax="646" yMax="570">
      <contour>
        <pt x="372" y="556" on="1"/>
        <pt x="646" y="556" on="1"/>
        <pt x="646" y="392" on="1"/>
        <pt x="602" y="392" on="1"/>
        <pt x="602" y="40" on="1"/>
        <pt x="602" y="-34" on="0"/>
        <pt x="565" y="-139" on="0"/>
        <pt x="491" y="-205" on="0"/>
        <pt x="383" y="-236" on="0"/>
        <pt x="313" y="-236" on="1"/>
        <pt x="247" y="-236" on="0"/>
        <pt x="111" y="-216" on="0"/>
        <pt x="74" y="-203" on="1"/>
        <pt x="74" y="-39" on="1"/>
        <pt x="116" y="-47" on="0"/>
        <pt x="215" y="-58" on="0"/>
        <pt x="264" y="-58" on="1"/>
        <pt x="323" y="-58" on="0"/>
        <pt x="372" y="-21" on="0"/>
        <pt x="372" y="25" on="1"/>
        <pt x="372" y="68" on="1"/>
        <pt x="363" y="56" on="0"/>
        <pt x="333" y="27" on="0"/>
        <pt x="294" y="3" on="0"/>
        <pt x="245" y="-14" on="0"/>
        <pt x="217" y="-14" on="1"/>
        <pt x="113" y="-14" on="0"/>
        <pt x="12" y="139" on="0"/>
        <pt x="12" y="278" on="1"/>
        <pt x="12" y="417" on="0"/>
        <pt x="113" y="570" on="0"/>
        <pt x="217" y="570" on="1"/>
        <pt x="245" y="570" on="0"/>
        <pt x="294" y="553" on="0"/>
        <pt x="333" y="529" on="0"/>
        <pt x="363" y="500" on="0"/>
        <pt x="372" y="488" on="1"/>
      </contour>
      <contour>
        <pt x="256" y="228" on="1"/>
        <pt x="256" y="194" on="0"/>
        <pt x="285" y="164" on="0"/>
        <pt x="314" y="164" on="1"/>
        <pt x="343" y="164" on="0"/>
        <pt x="372" y="194" on="0"/>
        <pt x="372" y="228" on="1"/>
        <pt x="372" y="328" on="1"/>
        <pt x="372" y="362" on="0"/>
        <pt x="343" y="392" on="0"/>
        <pt x="314" y="392" on="1"/>
        <pt x="285" y="392" on="0"/>
        <pt x="256" y="362" on="0"/>
        <pt x="256" y="328" on="1"/>
      </contour>
    </TTGlyph>
    <TTGlyph name="germandbls" xMin="18" yMin="-14" xMax="695" yMax="792">
      <contour>
        <pt x="342" y="156" on="1"/>
        <pt x="375" y="147" on="1"/>
        <pt x="389" y="143" on="0"/>
        <pt x="419" y="138" on="0"/>
        <pt x="431" y="138" on="1"/>
        <pt x="457" y="138" on="0"/>
        <pt x="473" y="152" on="0"/>
        <pt x="473" y="164" on="1"/>
        <pt x="473" y="178" on="0"/>
        <pt x="447" y="199" on="0"/>
        <pt x="421" y="214" on="1"/>
        <pt x="370" y="243" on="0"/>
        <pt x="323" y="307" on="0"/>
        <pt x="323" y="355" on="1"/>
        <pt x="323" y="386" on="0"/>
        <pt x="347" y="444" on="0"/>
        <pt x="375" y="497" on="0"/>
        <pt x="399" y="545" on="0"/>
        <pt x="399" y="567" on="1"/>
        <pt x="399" y="592" on="0"/>
        <pt x="375" y="614" on="0"/>
        <pt x="345" y="614" on="1"/>
        <pt x="315" y="614" on="0"/>
        <pt x="292" y="589" on="0"/>
        <pt x="292" y="555" on="1"/>
        <pt x="292" y="0" on="1"/>
        <pt x="18" y="0" on="1"/>
        <pt x="18" y="164" on="1"/>
        <pt x="62" y="164" on="1"/>
        <pt x="62" y="392" on="1"/>
        <pt x="18" y="392" on="1"/>
        <pt x="18" y="556" on="1"/>
        <pt x="64" y="556" on="1"/>
        <pt x="64" y="622" on="0"/>
        <pt x="98" y="712" on="0"/>
        <pt x="168" y="767" on="0"/>
        <pt x="278" y="792" on="0"/>
        <pt x="353" y="792" on="1"/>
        <pt x="411" y="792" on="0"/>
        <pt x="509" y="772" on="0"/>
        <pt x="579" y="728" on="0"/>
        <pt x="618" y="658" on="0"/>
        <pt x="618" y="609" on="1"/>
        <pt x="618" y="565" on="0"/>
        <pt x="591" y="505" on="0"/>
        <pt x="560" y="460" on="0"/>
        <pt x="533" y="424" on="0"/>
        <pt x="533" y="405" on="1"/>
        <pt x="533" y="397" on="0"/>
        <pt x="537" y="384" on="0"/>
        <pt x="551" y="371" on="0"/>
        <pt x="576" y="354" on="0"/>
        <pt x="597" y="342" on="1"/>
        <pt x="616" y="330" on="0"/>
        <pt x="652" y="301" on="0"/>
        <pt x="679" y="260" on="0"/>
        <pt x="695" y="205" on="0"/>
        <pt x="695" y="168" on="1"/>
        <pt x="695" y="129" on="0"/>
        <pt x="670" y="62" on="0"/>
        <pt x="620" y="13" on="0"/>
        <pt x="543" y="-14" on="0"/>
        <pt x="491" y="-14" on="1"/>
        <pt x="441" y="-14" on="0"/>
        <pt x="366" y="6" on="0"/>
        <pt x="342" y="17" on="1"/>
      </contour>
    </TTGlyph>
    <TTGlyph name="grave" xMin="-42" yMin="611" xMax="281" yMax="778">
      <contour>
        <pt x="-42" y="751" on="1"/>
        <pt x="-42" y="778" on="1"/>
        <pt x="172" y="778" on="1"/>
        <pt x="281" y="626" on="1"/>
        <pt x="281" y="611" on="1"/>
        <pt x="121" y="611" on="1"/>
      </contour>
    </TTGlyph>
    <TTGlyph name="grave.cap" xMin="-55" yMin="841" xMax="305" yMax="952">
      <contour>
        <pt x="-55" y="926" on="1"/>
        <pt x="-55" y="952" on="1"/>
        <pt x="196" y="952" on="1"/>
        <pt x="305" y="856" on="1"/>
        <pt x="305" y="841" on="1"/>
        <pt x="108" y="841" on="1"/>
      </contour>
    </TTGlyph>
    <TTGlyph name="greater" xMin="44" yMin="69" xMax="463" yMax="576">
      <contour>
        <pt x="44" y="69" on="1"/>
        <pt x="44" y="224" on="1"/>
        <pt x="315" y="317" on="1"/>
        <pt x="315" y="328" on="1"/>
        <pt x="44" y="420" on="1"/>
        <pt x="44" y="576" on="1"/>
        <pt x="65" y="576" on="1"/>
        <pt x="463" y="414" on="1"/>
        <pt x="463" y="230" on="1"/>
        <pt x="65" y="69" on="1"/>
      </contour>
    </TTGlyph>
    <TTGlyph name="guillemotleft" xMin="42" yMin="61" xMax="510" yMax="492">
      <contour>
        <pt x="210" y="284" on="1"/>
        <pt x="210" y="269" on="1"/>
        <pt x="289" y="61" on="1"/>
        <pt x="158" y="61" on="1"/>
        <pt x="42" y="253" on="1"/>
        <pt x="42" y="300" on="1"/>
        <pt x="158" y="492" on="1"/>
        <pt x="289" y="492" on="1"/>
      </contour>
      <contour>
        <pt x="431" y="284" on="1"/>
        <pt x="431" y="269" on="1"/>
        <pt x="510" y="61" on="1"/>
        <pt x="379" y="61" on="1"/>
        <pt x="263" y="253" on="1"/>
        <pt x="263" y="300" on="1"/>
        <pt x="379" y="492" on="1"/>
        <pt x="510" y="492" on="1"/>
      </contour>
    </TTGlyph>
    <TTGlyph name="guillemotright" xMin="10" yMin="61" xMax="478" yMax="492">
      <contour>
        <pt x="231" y="492" on="1"/>
        <pt x="362" y="492" on="1"/>
        <pt x="478" y="300" on="1"/>
        <pt x="478" y="253" on="1"/>
        <pt x="362" y="61" on="1"/>
        <pt x="231" y="61" on="1"/>
        <pt x="310" y="269" on="1"/>
        <pt x="310" y="284" on="1"/>
      </contour>
      <contour>
        <pt x="10" y="492" on="1"/>
        <pt x="141" y="492" on="1"/>
        <pt x="257" y="300" on="1"/>
        <pt x="257" y="253" on="1"/>
        <pt x="141" y="61" on="1"/>
        <pt x="10" y="61" on="1"/>
        <pt x="89" y="269" on="1"/>
        <pt x="89" y="284" on="1"/>
      </contour>
    </TTGlyph>
    <TTGlyph name="guilsinglleft" xMin="42" yMin="61" xMax="289" yMax="492">
      <contour>
        <pt x="210" y="284" on="1"/>
        <pt x="210" y="269" on="1"/>
        <pt x="289" y="61" on="1"/>
        <pt x="158" y="61" on="1"/>
        <pt x="42" y="253" on="1"/>
        <pt x="42" y="300" on="1"/>
        <pt x="158" y="492" on="1"/>
        <pt x="289" y="492" on="1"/>
      </contour>
    </TTGlyph>
    <TTGlyph name="guilsinglright" xMin="10" yMin="61" xMax="257" yMax="492">
      <contour>
        <pt x="10" y="492" on="1"/>
        <pt x="141" y="492" on="1"/>
        <pt x="257" y="300" on="1"/>
        <pt x="257" y="253" on="1"/>
        <pt x="141" y="61" on="1"/>
        <pt x="10" y="61" on="1"/>
        <pt x="89" y="269" on="1"/>
        <pt x="89" y="284" on="1"/>
      </contour>
    </TTGlyph>
    <TTGlyph name="h" xMin="18" yMin="0" xMax="682" yMax="778">
      <contour>
        <pt x="364" y="164" on="1"/>
        <pt x="408" y="164" on="1"/>
        <pt x="408" y="328" on="1"/>
        <pt x="408" y="362" on="0"/>
        <pt x="379" y="392" on="0"/>
        <pt x="350" y="392" on="1"/>
        <pt x="321" y="392" on="0"/>
        <pt x="292" y="362" on="0"/>
        <pt x="292" y="328" on="1"/>
        <pt x="292" y="164" on="1"/>
        <pt x="336" y="164" on="1"/>
        <pt x="336" y="0" on="1"/>
        <pt x="18" y="0" on="1"/>
        <pt x="18" y="164" on="1"/>
        <pt x="62" y="164" on="1"/>
        <pt x="62" y="614" on="1"/>
        <pt x="18" y="614" on="1"/>
        <pt x="18" y="778" on="1"/>
        <pt x="292" y="778" on="1"/>
        <pt x="292" y="488" on="1"/>
        <pt x="304" y="500" on="0"/>
        <pt x="334" y="529" on="0"/>
        <pt x="375" y="553" on="0"/>
        <pt x="427" y="570" on="0"/>
        <pt x="461" y="570" on="1"/>
        <pt x="543" y="570" on="0"/>
        <pt x="638" y="453" on="0"/>
        <pt x="638" y="328" on="1"/>
        <pt x="638" y="164" on="1"/>
        <pt x="682" y="164" on="1"/>
        <pt x="682" y="0" on="1"/>
        <pt x="364" y="0" on="1"/>
      </contour>
    </TTGlyph>
    <TTGlyph name="hbar" xMin="-32" yMin="0" xMax="682" yMax="778">
      <contour>
        <pt x="364" y="164" on="1"/>
        <pt x="408" y="164" on="1"/>
        <pt x="408" y="328" on="1"/>
        <pt x="408" y="362" on="0"/>
        <pt x="379" y="392" on="0"/>
        <pt x="350" y="392" on="1"/>
        <pt x="321" y="392" on="0"/>
        <pt x="292" y="362" on="0"/>
        <pt x="292" y="328" on="1"/>
        <pt x="292" y="164" on="1"/>
        <pt x="336" y="164" on="1"/>
        <pt x="336" y="0" on="1"/>
        <pt x="18" y="0" on="1"/>
        <pt x="18" y="164" on="1"/>
        <pt x="62" y="164" on="1"/>
        <pt x="62" y="614" on="1"/>
        <pt x="-32" y="614" on="1"/>
        <pt x="-32" y="693" on="1"/>
        <pt x="18" y="693" on="1"/>
        <pt x="18" y="778" on="1"/>
        <pt x="292" y="778" on="1"/>
        <pt x="292" y="693" on="1"/>
        <pt x="453" y="693" on="1"/>
        <pt x="453" y="614" on="1"/>
        <pt x="292" y="614" on="1"/>
        <pt x="292" y="488" on="1"/>
        <pt x="304" y="500" on="0"/>
        <pt x="334" y="529" on="0"/>
        <pt x="375" y="553" on="0"/>
        <pt x="427" y="570" on="0"/>
        <pt x="461" y="570" on="1"/>
        <pt x="543" y="570" on="0"/>
        <pt x="638" y="453" on="0"/>
        <pt x="638" y="328" on="1"/>
        <pt x="638" y="164" on="1"/>
        <pt x="682" y="164" on="1"/>
        <pt x="682" y="0" on="1"/>
        <pt x="364" y="0" on="1"/>
      </contour>
    </TTGlyph>
    <TTGlyph name="hyphen" xMin="34" yMin="237" xMax="355" yMax="401">
      <contour>
        <pt x="34" y="237" on="1"/>
        <pt x="34" y="401" on="1"/>
        <pt x="355" y="401" on="1"/>
        <pt x="355" y="237" on="1"/>
      </contour>
    </TTGlyph>
    <TTGlyph name="i" xMin="18" yMin="0" xMax="336" yMax="778">
      <contour>
        <pt x="292" y="164" on="1"/>
        <pt x="336" y="164" on="1"/>
        <pt x="336" y="0" on="1"/>
        <pt x="18" y="0" on="1"/>
        <pt x="18" y="164" on="1"/>
        <pt x="62" y="164" on="1"/>
        <pt x="62" y="392" on="1"/>
        <pt x="18" y="392" on="1"/>
        <pt x="18" y="556" on="1"/>
        <pt x="292" y="556" on="1"/>
      </contour>
      <contour>
        <pt x="86" y="778" on="1"/>
        <pt x="270" y="778" on="1"/>
        <pt x="270" y="611" on="1"/>
        <pt x="86" y="611" on="1"/>
      </contour>
    </TTGlyph>
    <TTGlyph name="iacute" xMin="18" yMin="0" xMax="377" yMax="778">
      <component glyphName="dotlessi" x="0" y="0" flags="0x204"/>
      <component glyphName="acute" x="65" y="0" flags="0x4"/>
    </TTGlyph>
    <TTGlyph name="icircumflex" xMin="-41" yMin="0" xMax="390" yMax="778">
      <component glyphName="dotlessi" x="0" y="0" flags="0x204"/>
      <component glyphName="circumflex" x="-41" y="0" flags="0x4"/>
    </TTGlyph>
    <TTGlyph name="idieresis" xMin="-35" yMin="0" xMax="387" yMax="778">
      <component glyphName="dotlessi" x="0" y="0" flags="0x204"/>
      <component glyphName="dieresis" x="-50" y="0" flags="0x4"/>
    </TTGlyph>
    <TTGlyph name="igrave" xMin="-51" yMin="0" xMax="336" yMax="778">
      <component glyphName="dotlessi" x="0" y="0" flags="0x204"/>
      <component glyphName="grave" x="-9" y="0" flags="0x4"/>
    </TTGlyph>
    <TTGlyph name="ij" xMin="18" yMin="-236" xMax="627" yMax="778">
      <component glyphName="i" x="0" y="0" flags="0x4"/>
      <component glyphName="j" x="326" y="0" flags="0x4"/>
    </TTGlyph>
    <TTGlyph name="itilde" xMin="-36" yMin="0" xMax="389" yMax="793">
      <component glyphName="dotlessi" x="0" y="0" flags="0x204"/>
      <component glyphName="tilde" x="-77" y="0" flags="0x4"/>
    </TTGlyph>
    <TTGlyph name="j" xMin="-90" yMin="-236" xMax="301" yMax="778">
      <contour>
        <pt x="4" y="556" on="1"/>
        <pt x="301" y="556" on="1"/>
        <pt x="301" y="34" on="1"/>
        <pt x="301" y="-105" on="0"/>
        <pt x="186" y="-236" on="0"/>
        <pt x="68" y="-236" on="1"/>
        <pt x="26" y="-236" on="0"/>
        <pt x="-54" y="-224" on="0"/>
        <pt x="-90" y="-214" on="1"/>
        <pt x="-90" y="-51" on="1"/>
        <pt x="-59" y="-55" on="0"/>
        <pt x="-12" y="-58" on="0"/>
        <pt x="4" y="-58" on="1"/>
        <pt x="36" y="-58" on="0"/>
        <pt x="71" y="-24" on="0"/>
        <pt x="71" y="14" on="1"/>
        <pt x="71" y="392" on="1"/>
        <pt x="4" y="392" on="1"/>
      </contour>
      <contour>
        <pt x="95" y="778" on="1"/>
        <pt x="279" y="778" on="1"/>
        <pt x="279" y="611" on="1"/>
        <pt x="95" y="611" on="1"/>
      </contour>
    </TTGlyph>
    <TTGlyph name="jcircumflex" xMin="-90" yMin="-236" xMax="396" yMax="778">
      <component glyphName="dotlessj" x="0" y="0" flags="0x204"/>
      <component glyphName="circumflex" x="-35" y="0" flags="0x4"/>
    </TTGlyph>
    <TTGlyph name="k" xMin="18" yMin="0" xMax="664" yMax="778">
      <contour>
        <pt x="610" y="392" on="1"/>
        <pt x="525" y="297" on="1"/>
        <pt x="621" y="164" on="1"/>
        <pt x="664" y="164" on="1"/>
        <pt x="664" y="0" on="1"/>
        <pt x="419" y="0" on="1"/>
        <pt x="316" y="192" on="1"/>
        <pt x="292" y="192" on="1"/>
        <pt x="292" y="0" on="1"/>
        <pt x="18" y="0" on="1"/>
        <pt x="18" y="164" on="1"/>
        <pt x="62" y="164" on="1"/>
        <pt x="62" y="614" on="1"/>
        <pt x="18" y="614" on="1"/>
        <pt x="18" y="778" on="1"/>
        <pt x="292" y="778" on="1"/>
        <pt x="292" y="372" on="1"/>
        <pt x="316" y="372" on="1"/>
        <pt x="440" y="556" on="1"/>
        <pt x="651" y="556" on="1"/>
        <pt x="651" y="392" on="1"/>
      </contour>
    </TTGlyph>
    <TTGlyph name="kcommaaccent" xMin="18" yMin="-333" xMax="664" yMax="778">
      <component glyphName="k" x="0" y="0" flags="0x204"/>
      <component glyphName="commaaccent" x="180" y="0" flags="0x4"/>
    </TTGlyph>
    <TTGlyph name="kgreenlandic" xMin="18" yMin="0" xMax="664" yMax="556">
      <contour>
        <pt x="610" y="392" on="1"/>
        <pt x="525" y="297" on="1"/>
        <pt x="621" y="164" on="1"/>
        <pt x="664" y="164" on="1"/>
        <pt x="664" y="0" on="1"/>
        <pt x="419" y="0" on="1"/>
        <pt x="316" y="192" on="1"/>
        <pt x="292" y="192" on="1"/>
        <pt x="292" y="0" on="1"/>
        <pt x="18" y="0" on="1"/>
        <pt x="18" y="164" on="1"/>
        <pt x="62" y="164" on="1"/>
        <pt x="62" y="392" on="1"/>
        <pt x="18" y="392" on="1"/>
        <pt x="18" y="556" on="1"/>
        <pt x="292" y="556" on="1"/>
        <pt x="292" y="372" on="1"/>
        <pt x="316" y="372" on="1"/>
        <pt x="440" y="556" on="1"/>
        <pt x="651" y="556" on="1"/>
        <pt x="651" y="392" on="1"/>
      </contour>
    </TTGlyph>
    <TTGlyph name="l" xMin="18" yMin="0" xMax="336" yMax="778">
      <contour>
        <pt x="18" y="778" on="1"/>
        <pt x="292" y="778" on="1"/>
        <pt x="292" y="164" on="1"/>
        <pt x="336" y="164" on="1"/>
        <pt x="336" y="0" on="1"/>
        <pt x="18" y="0" on="1"/>
        <pt x="18" y="164" on="1"/>
        <pt x="62" y="164" on="1"/>
        <pt x="62" y="614" on="1"/>
        <pt x="18" y="614" on="1"/>
      </contour>
    </TTGlyph>
    <TTGlyph name="ldot" xMin="18" yMin="0" xMax="524" yMax="778">
      <component glyphName="l" x="0" y="0" flags="0x4"/>
      <component glyphName="periodcentered" x="346" y="0" flags="0x4"/>
    </TTGlyph>
    <TTGlyph name="less" xMin="36" yMin="69" xMax="455" yMax="576">
      <contour>
        <pt x="434" y="69" on="1"/>
        <pt x="36" y="230" on="1"/>
        <pt x="36" y="414" on="1"/>
        <pt x="434" y="576" on="1"/>
        <pt x="455" y="576" on="1"/>
        <pt x="455" y="420" on="1"/>
        <pt x="184" y="328" on="1"/>
        <pt x="184" y="317" on="1"/>
        <pt x="455" y="224" on="1"/>
        <pt x="455" y="69" on="1"/>
      </contour>
    </TTGlyph>
    <TTGlyph name="logicalnot" xMin="40" yMin="124" xMax="501" yMax="426">
      <contour>
        <pt x="340" y="124" on="1"/>
        <pt x="340" y="282" on="1"/>
        <pt x="40" y="282" on="1"/>
        <pt x="40" y="426" on="1"/>
        <pt x="501" y="426" on="1"/>
        <pt x="501" y="124" on="1"/>
      </contour>
    </TTGlyph>
    <TTGlyph name="lslash" xMin="-35" yMin="0" xMax="418" yMax="778">
      <contour>
        <pt x="36" y="778" on="1"/>
        <pt x="310" y="778" on="1"/>
        <pt x="310" y="538" on="1"/>
        <pt x="418" y="593" on="1"/>
        <pt x="418" y="472" on="1"/>
        <pt x="310" y="417" on="1"/>
        <pt x="310" y="164" on="1"/>
        <pt x="354" y="164" on="1"/>
        <pt x="354" y="0" on="1"/>
        <pt x="36" y="0" on="1"/>
        <pt x="36" y="164" on="1"/>
        <pt x="80" y="164" on="1"/>
        <pt x="80" y="300" on="1"/>
        <pt x="-35" y="242" on="1"/>
        <pt x="-35" y="363" on="1"/>
        <pt x="80" y="421" on="1"/>
        <pt x="80" y="614" on="1"/>
        <pt x="36" y="614" on="1"/>
      </contour>
    </TTGlyph>
    <TTGlyph name="m" xMin="18" yMin="0" xMax="1028" yMax="570">
      <contour>
        <pt x="364" y="164" on="1"/>
        <pt x="408" y="164" on="1"/>
        <pt x="408" y="328" on="1"/>
        <pt x="408" y="362" on="0"/>
        <pt x="379" y="392" on="0"/>
        <pt x="350" y="392" on="1"/>
        <pt x="321" y="392" on="0"/>
        <pt x="292" y="362" on="0"/>
        <pt x="292" y="328" on="1"/>
        <pt x="292" y="164" on="1"/>
        <pt x="336" y="164" on="1"/>
        <pt x="336" y="0" on="1"/>
        <pt x="18" y="0" on="1"/>
        <pt x="18" y="164" on="1"/>
        <pt x="62" y="164" on="1"/>
        <pt x="62" y="392" on="1"/>
        <pt x="18" y="392" on="1"/>
        <pt x="18" y="556" on="1"/>
        <pt x="292" y="556" on="1"/>
        <pt x="292" y="488" on="1"/>
        <pt x="304" y="500" on="0"/>
        <pt x="334" y="529" on="0"/>
        <pt x="375" y="553" on="0"/>
        <pt x="427" y="570" on="0"/>
        <pt x="461" y="570" on="1"/>
        <pt x="495" y="570" on="0"/>
        <pt x="545" y="555" on="0"/>
        <pt x="582" y="532" on="0"/>
        <pt x="608" y="503" on="0"/>
        <pt x="618" y="488" on="1"/>
        <pt x="633" y="502" on="0"/>
        <pt x="667" y="531" on="0"/>
        <pt x="712" y="555" on="0"/>
        <pt x="769" y="570" on="0"/>
        <pt x="807" y="570" on="1"/>
        <pt x="889" y="570" on="0"/>
        <pt x="984" y="453" on="0"/>
        <pt x="984" y="328" on="1"/>
        <pt x="984" y="164" on="1"/>
        <pt x="1028" y="164" on="1"/>
        <pt x="1028" y="0" on="1"/>
        <pt x="710" y="0" on="1"/>
        <pt x="710" y="164" on="1"/>
        <pt x="754" y="164" on="1"/>
        <pt x="754" y="328" on="1"/>
        <pt x="754" y="362" on="0"/>
        <pt x="725" y="392" on="0"/>
        <pt x="696" y="392" on="1"/>
        <pt x="667" y="392" on="0"/>
        <pt x="638" y="362" on="0"/>
        <pt x="638" y="328" on="1"/>
        <pt x="638" y="164" on="1"/>
        <pt x="682" y="164" on="1"/>
        <pt x="682" y="0" on="1"/>
        <pt x="364" y="0" on="1"/>
      </contour>
    </TTGlyph>
    <TTGlyph name="macron" xMin="189" yMin="634" xMax="546" yMax="738">
      <contour>
        <pt x="189" y="738" on="1"/>
        <pt x="546" y="738" on="1"/>
        <pt x="546" y="634" on="1"/>
        <pt x="189" y="634" on="1"/>
      </contour>
    </TTGlyph>
    <TTGlyph name="mu" xMin="0" yMin="-222" xMax="664" yMax="556">
      <contour>
        <pt x="44" y="392" on="1"/>
        <pt x="0" y="392" on="1"/>
        <pt x="0" y="556" on="1"/>
        <pt x="274" y="556" on="1"/>
        <pt x="274" y="228" on="1"/>
        <pt x="274" y="194" on="0"/>
        <pt x="303" y="164" on="0"/>
        <pt x="332" y="164" on="1"/>
        <pt x="361" y="164" on="0"/>
        <pt x="390" y="194" on="0"/>
        <pt x="390" y="228" on="1"/>
        <pt x="390" y="392" on="1"/>
        <pt x="336" y="392" on="1"/>
        <pt x="336" y="556" on="1"/>
        <pt x="620" y="556" on="1"/>
        <pt x="620" y="164" on="1"/>
        <pt x="664" y="164" on="1"/>
        <pt x="664" y="0" on="1"/>
        <pt x="390" y="0" on="1"/>
        <pt x="390" y="68" on="1"/>
        <pt x="381" y="56" on="0"/>
        <pt x="351" y="27" on="0"/>
        <pt x="312" y="3" on="0"/>
        <pt x="264" y="-14" on="0"/>
        <pt x="237" y="-14" on="1"/>
        <pt x="274" y="-222" on="1"/>
        <pt x="44" y="-222" on="1"/>
      </contour>
    </TTGlyph>
    <TTGlyph name="multiply" xMin="32" yMin="80" xMax="538" yMax="586">
      <contour>
        <pt x="285" y="209" on="1"/>
        <pt x="156" y="80" on="1"/>
        <pt x="32" y="203" on="1"/>
        <pt x="161" y="332" on="1"/>
        <pt x="32" y="462" on="1"/>
        <pt x="156" y="586" on="1"/>
        <pt x="285" y="456" on="1"/>
        <pt x="415" y="586" on="1"/>
        <pt x="538" y="462" on="1"/>
        <pt x="408" y="332" on="1"/>
        <pt x="538" y="203" on="1"/>
        <pt x="415" y="80" on="1"/>
      </contour>
    </TTGlyph>
    <TTGlyph name="n" xMin="16" yMin="0" xMax="680" yMax="570">
      <contour>
        <pt x="362" y="164" on="1"/>
        <pt x="406" y="164" on="1"/>
        <pt x="406" y="328" on="1"/>
        <pt x="406" y="362" on="0"/>
        <pt x="377" y="392" on="0"/>
        <pt x="348" y="392" on="1"/>
        <pt x="319" y="392" on="0"/>
        <pt x="290" y="362" on="0"/>
        <pt x="290" y="328" on="1"/>
        <pt x="290" y="164" on="1"/>
        <pt x="334" y="164" on="1"/>
        <pt x="334" y="0" on="1"/>
        <pt x="16" y="0" on="1"/>
        <pt x="16" y="164" on="1"/>
        <pt x="60" y="164" on="1"/>
        <pt x="60" y="392" on="1"/>
        <pt x="16" y="392" on="1"/>
        <pt x="16" y="556" on="1"/>
        <pt x="290" y="556" on="1"/>
        <pt x="290" y="488" on="1"/>
        <pt x="302" y="500" on="0"/>
        <pt x="332" y="529" on="0"/>
        <pt x="373" y="553" on="0"/>
        <pt x="425" y="570" on="0"/>
        <pt x="459" y="570" on="1"/>
        <pt x="541" y="570" on="0"/>
        <pt x="636" y="453" on="0"/>
        <pt x="636" y="328" on="1"/>
        <pt x="636" y="164" on="1"/>
        <pt x="680" y="164" on="1"/>
        <pt x="680" y="0" on="1"/>
        <pt x="362" y="0" on="1"/>
      </contour>
    </TTGlyph>
    <TTGlyph name="nacute" xMin="16" yMin="0" xMax="680" yMax="778">
      <component glyphName="n" x="0" y="0" flags="0x204"/>
      <component glyphName="acute" x="263" y="0" flags="0x4"/>
    </TTGlyph>
    <TTGlyph name="nine" xMin="10" yMin="-14" xMax="677" yMax="792">
      <contour>
        <pt x="54" y="197" on="1"/>
        <pt x="93" y="184" on="0"/>
        <pt x="202" y="164" on="0"/>
        <pt x="271" y="164" on="1"/>
        <pt x="332" y="164" on="0"/>
        <pt x="393" y="235" on="0"/>
        <pt x="393" y="301" on="1"/>
        <pt x="393" y="322" on="1"/>
        <pt x="366" y="312" on="0"/>
        <pt x="294" y="294" on="0"/>
        <pt x="246" y="294" on="1"/>
        <pt x="201" y="294" on="0"/>
        <pt x="116" y="314" on="0"/>
        <pt x="50" y="365" on="0"/>
        <pt x="10" y="452" on="0"/>
        <pt x="10" y="520" on="1"/>
        <pt x="10" y="662" on="0"/>
        <pt x="173" y="792" on="0"/>
        <pt x="325" y="792" on="1"/>
        <pt x="408" y="792" on="0"/>
        <pt x="539" y="750" on="0"/>
        <pt x="629" y="664" on="0"/>
        <pt x="677" y="533" on="0"/>
        <pt x="677" y="444" on="1"/>
        <pt x="677" y="317" on="0"/>
        <pt x="626" y="142" on="0"/>
        <pt x="528" y="34" on="0"/>
        <pt x="388" y="-14" on="0"/>
        <pt x="300" y="-14" on="1"/>
        <pt x="215" y="-14" on="0"/>
        <pt x="96" y="19" on="0"/>
        <pt x="54" y="36" on="1"/>
      </contour>
      <contour>
        <pt x="328" y="451" on="1"/>
        <pt x="347" y="451" on="0"/>
        <pt x="380" y="459" on="0"/>
        <pt x="393" y="464" on="1"/>
        <pt x="393" y="540" on="1"/>
        <pt x="393" y="579" on="0"/>
        <pt x="359" y="614" on="0"/>
        <pt x="325" y="614" on="1"/>
        <pt x="291" y="614" on="0"/>
        <pt x="257" y="578" on="0"/>
        <pt x="257" y="530" on="1"/>
        <pt x="257" y="451" on="0"/>
      </contour>
    </TTGlyph>
    <TTGlyph name="ntilde" xMin="16" yMin="0" xMax="680" yMax="793">
      <component glyphName="n" x="0" y="0" flags="0x204"/>
      <component glyphName="tilde" x="120" y="0" flags="0x4"/>
    </TTGlyph>
    <TTGlyph name="numbersign" xMin="22" yMin="0" xMax="710" yMax="778">
      <contour>
        <pt x="398" y="193" on="1"/>
        <pt x="279" y="193" on="1"/>
        <pt x="256" y="0" on="1"/>
        <pt x="113" y="0" on="1"/>
        <pt x="113" y="22" on="1"/>
        <pt x="134" y="193" on="1"/>
        <pt x="22" y="193" on="1"/>
        <pt x="38" y="332" on="1"/>
        <pt x="151" y="332" on="1"/>
        <pt x="164" y="437" on="1"/>
        <pt x="42" y="437" on="1"/>
        <pt x="58" y="576" on="1"/>
        <pt x="182" y="576" on="1"/>
        <pt x="207" y="778" on="1"/>
        <pt x="349" y="778" on="1"/>
        <pt x="349" y="756" on="1"/>
        <pt x="326" y="576" on="1"/>
        <pt x="446" y="576" on="1"/>
        <pt x="471" y="778" on="1"/>
        <pt x="613" y="778" on="1"/>
        <pt x="613" y="756" on="1"/>
        <pt x="590" y="576" on="1"/>
        <pt x="710" y="576" on="1"/>
        <pt x="694" y="437" on="1"/>
        <pt x="573" y="437" on="1"/>
        <pt x="560" y="332" on="1"/>
        <pt x="690" y="332" on="1"/>
        <pt x="674" y="193" on="1"/>
        <pt x="543" y="193" on="1"/>
        <pt x="520" y="0" on="1"/>
        <pt x="377" y="0" on="1"/>
        <pt x="377" y="22" on="1"/>
      </contour>
      <contour>
        <pt x="296" y="332" on="1"/>
        <pt x="415" y="332" on="1"/>
        <pt x="428" y="437" on="1"/>
        <pt x="309" y="437" on="1"/>
      </contour>
    </TTGlyph>
    <TTGlyph name="o" xMin="8" yMin="-14" xMax="612" yMax="570">
      <contour>
        <pt x="612" y="278" on="1"/>
        <pt x="612" y="204" on="0"/>
        <pt x="570" y="95" on="0"/>
        <pt x="491" y="22" on="0"/>
        <pt x="379" y="-14" on="0"/>
        <pt x="310" y="-14" on="1"/>
        <pt x="241" y="-14" on="0"/>
        <pt x="129" y="22" on="0"/>
        <pt x="50" y="95" on="0"/>
        <pt x="8" y="204" on="0"/>
        <pt x="8" y="278" on="1"/>
        <pt x="8" y="351" on="0"/>
        <pt x="50" y="461" on="0"/>
        <pt x="129" y="534" on="0"/>
        <pt x="241" y="570" on="0"/>
        <pt x="310" y="570" on="1"/>
        <pt x="379" y="570" on="0"/>
        <pt x="491" y="534" on="0"/>
        <pt x="570" y="461" on="0"/>
        <pt x="612" y="351" on="0"/>
      </contour>
      <contour>
        <pt x="310" y="164" on="1"/>
        <pt x="339" y="164" on="0"/>
        <pt x="368" y="194" on="0"/>
        <pt x="368" y="228" on="1"/>
        <pt x="368" y="328" on="1"/>
        <pt x="368" y="362" on="0"/>
        <pt x="339" y="392" on="0"/>
        <pt x="310" y="392" on="1"/>
        <pt x="281" y="392" on="0"/>
        <pt x="252" y="362" on="0"/>
        <pt x="252" y="328" on="1"/>
        <pt x="252" y="228" on="1"/>
        <pt x="252" y="194" on="0"/>
        <pt x="281" y="164" on="0"/>
      </contour>
    </TTGlyph>
    <TTGlyph name="oacute" xMin="8" yMin="-14" xMax="612" yMax="778">
      <component glyphName="o" x="0" y="0" flags="0x204"/>
      <component glyphName="acute" x="210" y="0" flags="0x4"/>
    </TTGlyph>
    <TTGlyph name="ocircumflex" xMin="8" yMin="-14" xMax="612" yMax="778">
      <component glyphName="o" x="0" y="0" flags="0x204"/>
      <component glyphName="circumflex" x="103" y="0" flags="0x4"/>
    </TTGlyph>
    <TTGlyph name="odieresis" xMin="8" yMin="-14" xMax="612" yMax="778">
      <component glyphName="o" x="0" y="0" flags="0x204"/>
      <component glyphName="dieresis" x="94" y="0" flags="0x4"/>
    </TTGlyph>
    <TTGlyph name="oe" xMin="8" yMin="-14" xMax="936" yMax="570">
      <contour>
        <pt x="670" y="570" on="1"/>
        <pt x="747" y="570" on="0"/>
        <pt x="849" y="525" on="0"/>
        <pt x="911" y="453" on="0"/>
        <pt x="936" y="361" on="0"/>
        <pt x="936" y="314" on="1"/>
        <pt x="936" y="242" on="1"/>
        <pt x="612" y="242" on="1"/>
        <pt x="612" y="236" on="1"/>
        <pt x="612" y="200" on="0"/>
        <pt x="653" y="164" on="0"/>
        <pt x="707" y="164" on="1"/>
        <pt x="773" y="164" on="0"/>
        <pt x="883" y="184" on="0"/>
        <pt x="919" y="196" on="1"/>
        <pt x="919" y="36" on="1"/>
        <pt x="901" y="27" on="0"/>
        <pt x="854" y="10" on="0"/>
        <pt x="794" y="-5" on="0"/>
        <pt x="718" y="-14" on="0"/>
        <pt x="670" y="-14" on="1"/>
        <pt x="601" y="-14" on="0"/>
        <pt x="545" y="4" on="1"/>
        <pt x="515" y="13" on="0"/>
        <pt x="490" y="28" on="1"/>
        <pt x="465" y="13" on="0"/>
        <pt x="435" y="4" on="1"/>
        <pt x="379" y="-14" on="0"/>
        <pt x="310" y="-14" on="1"/>
        <pt x="241" y="-14" on="0"/>
        <pt x="129" y="22" on="0"/>
        <pt x="50" y="95" on="0"/>
        <pt x="8" y="204" on="0"/>
        <pt x="8" y="278" on="1"/>
        <pt x="8" y="351" on="0"/>
        <pt x="50" y="461" on="0"/>
        <pt x="129" y="534" on="0"/>
        <pt x="241" y="570" on="0"/>
        <pt x="310" y="570" on="1"/>
        <pt x="379" y="570" on="0"/>
        <pt x="435" y="552" on="1"/>
        <pt x="464" y="542" on="0"/>
        <pt x="489" y="527" on="1"/>
        <pt x="515" y="542" on="0"/>
        <pt x="545" y="552" on="1"/>
        <pt x="601" y="570" on="0"/>
      </contour>
      <contour>
        <pt x="310" y="164" on="1"/>
        <pt x="339" y="164" on="0"/>
        <pt x="368" y="194" on="0"/>
        <pt x="368" y="228" on="1"/>
        <pt x="368" y="328" on="1"/>
        <pt x="368" y="362" on="0"/>
        <pt x="339" y="392" on="0"/>
        <pt x="310" y="392" on="1"/>
        <pt x="281" y="392" on="0"/>
        <pt x="252" y="362" on="0"/>
        <pt x="252" y="328" on="1"/>
        <pt x="252" y="228" on="1"/>
        <pt x="252" y="194" on="0"/>
        <pt x="281" y="164" on="0"/>
      </contour>
      <contour>
        <pt x="670" y="392" on="1"/>
        <pt x="641" y="392" on="0"/>
        <pt x="612" y="362" on="0"/>
        <pt x="612" y="328" on="1"/>
        <pt x="612" y="322" on="1"/>
        <pt x="728" y="322" on="1"/>
        <pt x="728" y="328" on="1"/>
        <pt x="728" y="362" on="0"/>
        <pt x="699" y="392" on="0"/>
      </contour>
    </TTGlyph>
    <TTGlyph name="ograve" xMin="8" yMin="-14" xMax="612" yMax="778">
      <component glyphName="o" x="0" y="0" flags="0x204"/>
      <component glyphName="grave" x="135" y="0" flags="0x4"/>
    </TTGlyph>
    <TTGlyph name="one" xMin="14" yMin="0" xMax="513" yMax="778">
      <contour>
        <pt x="14" y="727" on="1"/>
        <pt x="236" y="778" on="1"/>
        <pt x="429" y="778" on="1"/>
        <pt x="429" y="164" on="1"/>
        <pt x="513" y="164" on="1"/>
        <pt x="513" y="0" on="1"/>
        <pt x="44" y="0" on="1"/>
        <pt x="44" y="164" on="1"/>
        <pt x="140" y="164" on="1"/>
        <pt x="140" y="614" on="1"/>
        <pt x="14" y="614" on="1"/>
      </contour>
    </TTGlyph>
    <TTGlyph name="onehalf" xMin="-3" yMin="0" xMax="772" yMax="778">
      <contour>
        <pt x="528" y="778" on="1"/>
        <pt x="670" y="778" on="1"/>
        <pt x="670" y="746" on="1"/>
        <pt x="206" y="0" on="1"/>
        <pt x="63" y="0" on="1"/>
        <pt x="63" y="32" on="1"/>
      </contour>
      <contour>
        <pt x="492" y="104" on="1"/>
        <pt x="512" y="120" on="0"/>
        <pt x="556" y="159" on="0"/>
        <pt x="592" y="198" on="0"/>
        <pt x="616" y="237" on="0"/>
        <pt x="616" y="254" on="1"/>
        <pt x="616" y="271" on="0"/>
        <pt x="597" y="284" on="0"/>
        <pt x="580" y="284" on="1"/>
        <pt x="567" y="284" on="0"/>
        <pt x="539" y="279" on="0"/>
        <pt x="527" y="277" on="1"/>
        <pt x="499" y="271" on="1"/>
        <pt x="499" y="367" on="1"/>
        <pt x="517" y="376" on="0"/>
        <pt x="580" y="394" on="0"/>
        <pt x="628" y="394" on="1"/>
        <pt x="691" y="394" on="0"/>
        <pt x="762" y="335" on="0"/>
        <pt x="762" y="286" on="1"/>
        <pt x="762" y="237" on="0"/>
        <pt x="704" y="146" on="0"/>
        <pt x="653" y="104" on="1"/>
        <pt x="772" y="104" on="1"/>
        <pt x="772" y="0" on="1"/>
        <pt x="492" y="0" on="1"/>
      </contour>
      <contour>
        <pt x="-3" y="741" on="1"/>
        <pt x="87" y="778" on="1"/>
        <pt x="195" y="778" on="1"/>
        <pt x="195" y="503" on="1"/>
        <pt x="236" y="503" on="1"/>
        <pt x="236" y="396" on="1"/>
        <pt x="7" y="396" on="1"/>
        <pt x="7" y="503" on="1"/>
        <pt x="54" y="503" on="1"/>
        <pt x="54" y="673" on="1"/>
        <pt x="-3" y="673" on="1"/>
      </contour>
    </TTGlyph>
    <TTGlyph name="onequarter" xMin="-3" yMin="0" xMax="797" yMax="778">
      <contour>
        <pt x="528" y="778" on="1"/>
        <pt x="670" y="778" on="1"/>
        <pt x="670" y="746" on="1"/>
        <pt x="206" y="0" on="1"/>
        <pt x="63" y="0" on="1"/>
        <pt x="63" y="32" on="1"/>
      </contour>
      <contour>
        <pt x="576" y="181" on="1"/>
        <pt x="631" y="181" on="1"/>
        <pt x="631" y="262" on="1"/>
        <pt x="758" y="262" on="1"/>
        <pt x="758" y="181" on="1"/>
        <pt x="797" y="181" on="1"/>
        <pt x="797" y="85" on="1"/>
        <pt x="758" y="85" on="1"/>
        <pt x="758" y="0" on="1"/>
        <pt x="631" y="0" on="1"/>
        <pt x="631" y="85" on="1"/>
        <pt x="459" y="85" on="1"/>
        <pt x="459" y="167" on="1"/>
        <pt x="507" y="381" on="1"/>
        <pt x="619" y="381" on="1"/>
      </contour>
      <contour>
        <pt x="-3" y="741" on="1"/>
        <pt x="87" y="778" on="1"/>
        <pt x="195" y="778" on="1"/>
        <pt x="195" y="503" on="1"/>
        <pt x="236" y="503" on="1"/>
        <pt x="236" y="396" on="1"/>
        <pt x="7" y="396" on="1"/>
        <pt x="7" y="503" on="1"/>
        <pt x="54" y="503" on="1"/>
        <pt x="54" y="673" on="1"/>
        <pt x="-3" y="673" on="1"/>
      </contour>
    </TTGlyph>
    <TTGlyph name="onesuperior" xMin="10" yMin="429" xMax="249" yMax="811">
      <contour>
        <pt x="10" y="774" on="1"/>
        <pt x="100" y="811" on="1"/>
        <pt x="208" y="811" on="1"/>
        <pt x="208" y="536" on="1"/>
        <pt x="249" y="536" on="1"/>
        <pt x="249" y="429" on="1"/>
        <pt x="20" y="429" on="1"/>
        <pt x="20" y="536" on="1"/>
        <pt x="67" y="536" on="1"/>
        <pt x="67" y="706" on="1"/>
        <pt x="10" y="706" on="1"/>
      </contour>
    </TTGlyph>
    <TTGlyph name="ordfeminine" xMin="8" yMin="500" xMax="325" yMax="792">
      <contour>
        <pt x="188" y="541" on="1"/>
        <pt x="179" y="529" on="0"/>
        <pt x="137" y="500" on="0"/>
        <pt x="101" y="500" on="1"/>
        <pt x="58" y="500" on="0"/>
        <pt x="8" y="540" on="0"/>
        <pt x="8" y="578" on="1"/>
        <pt x="8" y="626" on="0"/>
        <pt x="94" y="674" on="0"/>
        <pt x="188" y="674" on="1"/>
        <pt x="188" y="694" on="0"/>
        <pt x="171" y="713" on="0"/>
        <pt x="142" y="713" on="1"/>
        <pt x="113" y="713" on="0"/>
        <pt x="53" y="705" on="0"/>
        <pt x="26" y="698" on="1"/>
        <pt x="26" y="774" on="1"/>
        <pt x="69" y="785" on="0"/>
        <pt x="135" y="792" on="0"/>
        <pt x="165" y="792" on="1"/>
        <pt x="205" y="792" on="0"/>
        <pt x="258" y="777" on="0"/>
        <pt x="290" y="746" on="0"/>
        <pt x="303" y="701" on="0"/>
        <pt x="303" y="671" on="1"/>
        <pt x="303" y="589" on="1"/>
        <pt x="325" y="589" on="1"/>
        <pt x="325" y="507" on="1"/>
        <pt x="188" y="507" on="1"/>
      </contour>
      <contour>
        <pt x="188" y="624" on="1"/>
        <pt x="145" y="624" on="0"/>
        <pt x="110" y="614" on="0"/>
        <pt x="110" y="598" on="1"/>
        <pt x="110" y="579" on="0"/>
        <pt x="141" y="579" on="1"/>
        <pt x="161" y="579" on="0"/>
        <pt x="188" y="601" on="0"/>
        <pt x="188" y="621" on="1"/>
      </contour>
    </TTGlyph>
    <TTGlyph name="ordmasculine" xMin="10" yMin="500" xMax="312" yMax="792">
      <contour>
        <pt x="312" y="646" on="1"/>
        <pt x="312" y="571" on="0"/>
        <pt x="230" y="500" on="0"/>
        <pt x="161" y="500" on="1"/>
        <pt x="91" y="500" on="0"/>
        <pt x="10" y="571" on="0"/>
        <pt x="10" y="646" on="1"/>
        <pt x="10" y="719" on="0"/>
        <pt x="91" y="792" on="0"/>
        <pt x="161" y="792" on="1"/>
        <pt x="230" y="792" on="0"/>
        <pt x="312" y="719" on="0"/>
      </contour>
      <contour>
        <pt x="161" y="579" on="1"/>
        <pt x="200" y="579" on="0"/>
        <pt x="200" y="611" on="1"/>
        <pt x="200" y="681" on="1"/>
        <pt x="200" y="713" on="0"/>
        <pt x="161" y="713" on="1"/>
        <pt x="122" y="713" on="0"/>
        <pt x="122" y="681" on="1"/>
        <pt x="122" y="611" on="1"/>
        <pt x="122" y="579" on="0"/>
      </contour>
    </TTGlyph>
    <TTGlyph name="oslash" xMin="8" yMin="-121" xMax="612" yMax="674">
      <contour>
        <pt x="612" y="278" on="1"/>
        <pt x="612" y="204" on="0"/>
        <pt x="570" y="95" on="0"/>
        <pt x="491" y="22" on="0"/>
        <pt x="379" y="-14" on="0"/>
        <pt x="310" y="-14" on="1"/>
        <pt x="293" y="-14" on="1"/>
        <pt x="275" y="-121" on="1"/>
        <pt x="218" y="-121" on="1"/>
        <pt x="218" y="-95" on="1"/>
        <pt x="232" y="-7" on="1"/>
        <pt x="208" y="-3" on="0"/>
        <pt x="185" y="4" on="1"/>
        <pt x="129" y="22" on="0"/>
        <pt x="50" y="95" on="0"/>
        <pt x="8" y="204" on="0"/>
        <pt x="8" y="278" on="1"/>
        <pt x="8" y="351" on="0"/>
        <pt x="50" y="461" on="0"/>
        <pt x="129" y="534" on="0"/>
        <pt x="241" y="570" on="0"/>
        <pt x="310" y="570" on="1"/>
        <pt x="328" y="570" on="1"/>
        <pt x="346" y="674" on="1"/>
        <pt x="403" y="674" on="1"/>
        <pt x="403" y="648" on="1"/>
        <pt x="389" y="563" on="1"/>
        <pt x="413" y="559" on="0"/>
        <pt x="435" y="552" on="1"/>
        <pt x="491" y="534" on="0"/>
        <pt x="570" y="461" on="0"/>
        <pt x="612" y="351" on="0"/>
      </contour>
      <contour>
        <pt x="266" y="377" on="1"/>
        <pt x="252" y="362" on="0"/>
        <pt x="252" y="328" on="1"/>
        <pt x="252" y="228" on="1"/>
        <pt x="252" y="197" on="0"/>
        <pt x="264" y="181" on="1"/>
        <pt x="299" y="391" on="1"/>
        <pt x="278" y="389" on="0"/>
      </contour>
      <contour>
        <pt x="353" y="179" on="1"/>
        <pt x="368" y="194" on="0"/>
        <pt x="368" y="228" on="1"/>
        <pt x="368" y="328" on="1"/>
        <pt x="368" y="357" on="0"/>
        <pt x="357" y="373" on="1"/>
        <pt x="322" y="164" on="1"/>
        <pt x="342" y="167" on="0"/>
      </contour>
    </TTGlyph>
    <TTGlyph name="otilde" xMin="8" yMin="-14" xMax="612" yMax="793">
      <component glyphName="o" x="0" y="0" flags="0x204"/>
      <component glyphName="tilde" x="67" y="0" flags="0x4"/>
    </TTGlyph>
    <TTGlyph name="p" xMin="4" yMin="-222" xMax="638" yMax="570">
      <contour>
        <pt x="347" y="-222" on="1"/>
        <pt x="4" y="-222" on="1"/>
        <pt x="4" y="-58" on="1"/>
        <pt x="48" y="-58" on="1"/>
        <pt x="48" y="392" on="1"/>
        <pt x="4" y="392" on="1"/>
        <pt x="4" y="556" on="1"/>
        <pt x="278" y="556" on="1"/>
        <pt x="278" y="488" on="1"/>
        <pt x="287" y="500" on="0"/>
        <pt x="316" y="529" on="0"/>
        <pt x="356" y="553" on="0"/>
        <pt x="404" y="570" on="0"/>
        <pt x="433" y="570" on="1"/>
        <pt x="537" y="570" on="0"/>
        <pt x="638" y="417" on="0"/>
        <pt x="638" y="278" on="1"/>
        <pt x="638" y="139" on="0"/>
        <pt x="537" y="-14" on="0"/>
        <pt x="433" y="-14" on="1"/>
        <pt x="404" y="-14" on="0"/>
        <pt x="356" y="3" on="0"/>
        <pt x="316" y="27" on="0"/>
        <pt x="287" y="56" on="0"/>
        <pt x="278" y="68" on="1"/>
        <pt x="278" y="-58" on="1"/>
        <pt x="347" y="-58" on="1"/>
      </contour>
      <contour>
        <pt x="394" y="328" on="1"/>
        <pt x="394" y="362" on="0"/>
        <pt x="365" y="392" on="0"/>
        <pt x="336" y="392" on="1"/>
        <pt x="307" y="392" on="0"/>
        <pt x="278" y="362" on="0"/>
        <pt x="278" y="328" on="1"/>
        <pt x="278" y="228" on="1"/>
        <pt x="278" y="194" on="0"/>
        <pt x="307" y="164" on="0"/>
        <pt x="336" y="164" on="1"/>
        <pt x="365" y="164" on="0"/>
        <pt x="394" y="194" on="0"/>
        <pt x="394" y="228" on="1"/>
      </contour>
    </TTGlyph>
    <TTGlyph name="paragraph" xMin="14" yMin="-160" xMax="757" yMax="792">
      <contour>
        <pt x="523" y="-160" on="1"/>
        <pt x="523" y="600" on="1"/>
        <pt x="503" y="602" on="0"/>
        <pt x="470" y="610" on="0"/>
        <pt x="453" y="615" on="1"/>
        <pt x="453" y="-160" on="1"/>
        <pt x="290" y="-160" on="1"/>
        <pt x="290" y="301" on="1"/>
        <pt x="219" y="301" on="0"/>
        <pt x="115" y="337" on="0"/>
        <pt x="47" y="402" on="0"/>
        <pt x="14" y="493" on="0"/>
        <pt x="14" y="547" on="1"/>
        <pt x="14" y="592" on="0"/>
        <pt x="46" y="680" on="0"/>
        <pt x="112" y="749" on="0"/>
        <pt x="211" y="792" on="0"/>
        <pt x="278" y="792" on="1"/>
        <pt x="332" y="792" on="0"/>
        <pt x="412" y="776" on="0"/>
        <pt x="483" y="758" on="0"/>
        <pt x="556" y="742" on="0"/>
        <pt x="604" y="742" on="1"/>
        <pt x="658" y="742" on="0"/>
        <pt x="701" y="772" on="0"/>
        <pt x="701" y="792" on="1"/>
        <pt x="757" y="792" on="1"/>
        <pt x="757" y="769" on="0"/>
        <pt x="753" y="722" on="0"/>
        <pt x="739" y="678" on="0"/>
        <pt x="711" y="639" on="0"/>
        <pt x="687" y="624" on="1"/>
        <pt x="687" y="-160" on="1"/>
      </contour>
    </TTGlyph>
    <TTGlyph name="parenleft" xMin="36" yMin="-229" xMax="364" yMax="888">
      <contour>
        <pt x="36" y="328" on="1"/>
        <pt x="36" y="439" on="0"/>
        <pt x="78" y="616" on="0"/>
        <pt x="142" y="753" on="0"/>
        <pt x="220" y="853" on="0"/>
        <pt x="255" y="888" on="1"/>
        <pt x="364" y="838" on="1"/>
        <pt x="340" y="801" on="0"/>
        <pt x="290" y="702" on="0"/>
        <pt x="248" y="576" on="0"/>
        <pt x="222" y="421" on="0"/>
        <pt x="222" y="328" on="1"/>
        <pt x="222" y="234" on="0"/>
        <pt x="249" y="79" on="0"/>
        <pt x="290" y="-45" on="0"/>
        <pt x="340" y="-142" on="0"/>
        <pt x="364" y="-177" on="1"/>
        <pt x="255" y="-229" on="1"/>
        <pt x="220" y="-196" on="0"/>
        <pt x="143" y="-98" on="0"/>
        <pt x="78" y="39" on="0"/>
        <pt x="36" y="216" on="0"/>
      </contour>
    </TTGlyph>
    <TTGlyph name="parenright" xMin="-14" yMin="-229" xMax="314" yMax="888">
      <contour>
        <pt x="314" y="328" on="1"/>
        <pt x="314" y="216" on="0"/>
        <pt x="271" y="38" on="0"/>
        <pt x="206" y="-98" on="0"/>
        <pt x="129" y="-197" on="0"/>
        <pt x="95" y="-229" on="1"/>
        <pt x="-14" y="-177" on="1"/>
        <pt x="9" y="-141" on="0"/>
        <pt x="59" y="-45" on="0"/>
        <pt x="101" y="80" on="0"/>
        <pt x="128" y="234" on="0"/>
        <pt x="128" y="328" on="1"/>
        <pt x="128" y="421" on="0"/>
        <pt x="101" y="575" on="0"/>
        <pt x="59" y="701" on="0"/>
        <pt x="9" y="800" on="0"/>
        <pt x="-14" y="838" on="1"/>
        <pt x="95" y="888" on="1"/>
        <pt x="129" y="854" on="0"/>
        <pt x="207" y="754" on="0"/>
        <pt x="271" y="616" on="0"/>
        <pt x="314" y="439" on="0"/>
      </contour>
    </TTGlyph>
    <TTGlyph name="percent" xMin="14" yMin="-14" xMax="836" yMax="792">
      <contour>
        <pt x="629" y="778" on="1"/>
        <pt x="771" y="778" on="1"/>
        <pt x="771" y="746" on="1"/>
        <pt x="221" y="0" on="1"/>
        <pt x="78" y="0" on="1"/>
        <pt x="78" y="32" on="1"/>
      </contour>
      <contour>
        <pt x="487" y="187" on="1"/>
        <pt x="487" y="244" on="0"/>
        <pt x="512" y="321" on="0"/>
        <pt x="558" y="368" on="0"/>
        <pt x="623" y="388" on="0"/>
        <pt x="663" y="388" on="1"/>
        <pt x="702" y="388" on="0"/>
        <pt x="766" y="367" on="0"/>
        <pt x="811" y="320" on="0"/>
        <pt x="836" y="243" on="0"/>
        <pt x="836" y="187" on="1"/>
        <pt x="836" y="130" on="0"/>
        <pt x="811" y="53" on="0"/>
        <pt x="766" y="6" on="0"/>
        <pt x="702" y="-14" on="0"/>
        <pt x="663" y="-14" on="1"/>
        <pt x="623" y="-14" on="0"/>
        <pt x="558" y="6" on="0"/>
        <pt x="512" y="53" on="0"/>
        <pt x="487" y="130" on="0"/>
      </contour>
      <contour>
        <pt x="627" y="190" on="1"/>
        <pt x="627" y="158" on="0"/>
        <pt x="630" y="119" on="0"/>
        <pt x="637" y="98" on="0"/>
        <pt x="650" y="92" on="0"/>
        <pt x="660" y="92" on="1"/>
        <pt x="670" y="92" on="0"/>
        <pt x="684" y="100" on="0"/>
        <pt x="691" y="122" on="0"/>
        <pt x="694" y="160" on="0"/>
        <pt x="694" y="190" on="1"/>
        <pt x="694" y="220" on="0"/>
        <pt x="692" y="258" on="0"/>
        <pt x="684" y="280" on="0"/>
        <pt x="671" y="288" on="0"/>
        <pt x="660" y="288" on="1"/>
        <pt x="650" y="288" on="0"/>
        <pt x="637" y="280" on="0"/>
        <pt x="630" y="258" on="0"/>
        <pt x="627" y="220" on="0"/>
      </contour>
      <contour>
        <pt x="14" y="591" on="1"/>
        <pt x="14" y="648" on="0"/>
        <pt x="39" y="725" on="0"/>
        <pt x="85" y="772" on="0"/>
        <pt x="150" y="792" on="0"/>
        <pt x="190" y="792" on="1"/>
        <pt x="229" y="792" on="0"/>
        <pt x="293" y="771" on="0"/>
        <pt x="338" y="724" on="0"/>
        <pt x="363" y="647" on="0"/>
        <pt x="363" y="591" on="1"/>
        <pt x="363" y="534" on="0"/>
        <pt x="338" y="457" on="0"/>
        <pt x="293" y="410" on="0"/>
        <pt x="229" y="390" on="0"/>
        <pt x="190" y="390" on="1"/>
        <pt x="150" y="390" on="0"/>
        <pt x="85" y="410" on="0"/>
        <pt x="39" y="457" on="0"/>
        <pt x="14" y="534" on="0"/>
      </contour>
      <contour>
        <pt x="154" y="594" on="1"/>
        <pt x="154" y="562" on="0"/>
        <pt x="157" y="523" on="0"/>
        <pt x="164" y="502" on="0"/>
        <pt x="177" y="496" on="0"/>
        <pt x="187" y="496" on="1"/>
        <pt x="198" y="496" on="0"/>
        <pt x="211" y="504" on="0"/>
        <pt x="219" y="526" on="0"/>
        <pt x="221" y="564" on="0"/>
        <pt x="221" y="594" on="1"/>
        <pt x="221" y="624" on="0"/>
        <pt x="219" y="662" on="0"/>
        <pt x="211" y="684" on="0"/>
        <pt x="198" y="692" on="0"/>
        <pt x="187" y="692" on="1"/>
        <pt x="177" y="692" on="0"/>
        <pt x="164" y="684" on="0"/>
        <pt x="157" y="662" on="0"/>
        <pt x="154" y="624" on="0"/>
      </contour>
    </TTGlyph>
    <TTGlyph name="period" xMin="40" yMin="0" xMax="196" yMax="164">
      <contour>
        <pt x="40" y="164" on="1"/>
        <pt x="196" y="164" on="1"/>
        <pt x="196" y="0" on="1"/>
        <pt x="40" y="0" on="1"/>
      </contour>
    </TTGlyph>
    <TTGlyph name="periodcentered" xMin="22" yMin="320" xMax="178" yMax="472">
      <contour>
        <pt x="22" y="472" on="1"/>
        <pt x="178" y="472" on="1"/>
        <pt x="178" y="320" on="1"/>
        <pt x="22" y="320" on="1"/>
      </contour>
    </TTGlyph>
    <TTGlyph name="plus" xMin="40" yMin="94" xMax="536" yMax="591">
      <contour>
        <pt x="205" y="426" on="1"/>
        <pt x="205" y="591" on="1"/>
        <pt x="372" y="591" on="1"/>
        <pt x="372" y="426" on="1"/>
        <pt x="536" y="426" on="1"/>
        <pt x="536" y="259" on="1"/>
        <pt x="372" y="259" on="1"/>
        <pt x="372" y="94" on="1"/>
        <pt x="205" y="94" on="1"/>
        <pt x="205" y="259" on="1"/>
        <pt x="40" y="259" on="1"/>
        <pt x="40" y="426" on="1"/>
      </contour>
    </TTGlyph>
    <TTGlyph name="plusminus" xMin="40" yMin="42" xMax="537" yMax="748">
      <contour>
        <pt x="206" y="582" on="1"/>
        <pt x="206" y="748" on="1"/>
        <pt x="373" y="748" on="1"/>
        <pt x="373" y="582" on="1"/>
        <pt x="537" y="582" on="1"/>
        <pt x="537" y="415" on="1"/>
        <pt x="373" y="415" on="1"/>
        <pt x="373" y="251" on="1"/>
        <pt x="206" y="251" on="1"/>
        <pt x="206" y="415" on="1"/>
        <pt x="40" y="415" on="1"/>
        <pt x="40" y="582" on="1"/>
      </contour>
      <contour>
        <pt x="517" y="200" on="1"/>
        <pt x="517" y="42" on="1"/>
        <pt x="57" y="42" on="1"/>
        <pt x="57" y="200" on="1"/>
      </contour>
    </TTGlyph>
    <TTGlyph name="q" xMin="12" yMin="-222" xMax="646" yMax="570">
      <contour>
        <pt x="372" y="68" on="1"/>
        <pt x="363" y="56" on="0"/>
        <pt x="333" y="27" on="0"/>
        <pt x="294" y="3" on="0"/>
        <pt x="245" y="-14" on="0"/>
        <pt x="217" y="-14" on="1"/>
        <pt x="113" y="-14" on="0"/>
        <pt x="12" y="139" on="0"/>
        <pt x="12" y="278" on="1"/>
        <pt x="12" y="417" on="0"/>
        <pt x="113" y="570" on="0"/>
        <pt x="217" y="570" on="1"/>
        <pt x="245" y="570" on="0"/>
        <pt x="294" y="553" on="0"/>
        <pt x="333" y="529" on="0"/>
        <pt x="363" y="500" on="0"/>
        <pt x="372" y="488" on="1"/>
        <pt x="372" y="556" on="1"/>
        <pt x="646" y="556" on="1"/>
        <pt x="646" y="392" on="1"/>
        <pt x="602" y="392" on="1"/>
        <pt x="602" y="-222" on="1"/>
        <pt x="303" y="-222" on="1"/>
        <pt x="303" y="-58" on="1"/>
        <pt x="372" y="-58" on="1"/>
      </contour>
      <contour>
        <pt x="256" y="228" on="1"/>
        <pt x="256" y="194" on="0"/>
        <pt x="285" y="164" on="0"/>
        <pt x="314" y="164" on="1"/>
        <pt x="343" y="164" on="0"/>
        <pt x="372" y="194" on="0"/>
        <pt x="372" y="228" on="1"/>
        <pt x="372" y="328" on="1"/>
        <pt x="372" y="362" on="0"/>
        <pt x="343" y="392" on="0"/>
        <pt x="314" y="392" on="1"/>
        <pt x="285" y="392" on="0"/>
        <pt x="256" y="362" on="0"/>
        <pt x="256" y="328" on="1"/>
      </contour>
    </TTGlyph>
    <TTGlyph name="question" xMin="2" yMin="0" xMax="608" yMax="792">
      <contour>
        <pt x="141" y="211" on="1"/>
        <pt x="141" y="265" on="1"/>
        <pt x="141" y="307" on="0"/>
        <pt x="168" y="367" on="0"/>
        <pt x="210" y="411" on="0"/>
        <pt x="257" y="444" on="0"/>
        <pt x="299" y="475" on="0"/>
        <pt x="326" y="508" on="0"/>
        <pt x="326" y="530" on="1"/>
        <pt x="326" y="547" on="0"/>
        <pt x="300" y="570" on="0"/>
        <pt x="266" y="570" on="1"/>
        <pt x="237" y="570" on="0"/>
        <pt x="179" y="559" on="0"/>
        <pt x="125" y="542" on="0"/>
        <pt x="76" y="521" on="0"/>
        <pt x="55" y="511" on="1"/>
        <pt x="2" y="715" on="1"/>
        <pt x="29" y="728" on="0"/>
        <pt x="96" y="755" on="0"/>
        <pt x="175" y="777" on="0"/>
        <pt x="267" y="792" on="0"/>
        <pt x="318" y="792" on="1"/>
        <pt x="385" y="792" on="0"/>
        <pt x="493" y="759" on="0"/>
        <pt x="568" y="700" on="0"/>
        <pt x="608" y="621" on="0"/>
        <pt x="608" y="575" on="1"/>
        <pt x="608" y="516" on="0"/>
        <pt x="574" y="442" on="0"/>
        <pt x="524" y="391" on="0"/>
        <pt x="464" y="354" on="0"/>
        <pt x="414" y="313" on="0"/>
        <pt x="380" y="256" on="0"/>
        <pt x="380" y="211" on="1"/>
      </contour>
      <contour>
        <pt x="141" y="164" on="1"/>
        <pt x="379" y="164" on="1"/>
        <pt x="379" y="0" on="1"/>
        <pt x="141" y="0" on="1"/>
      </contour>
    </TTGlyph>
    <TTGlyph name="questiondown" xMin="6" yMin="-236" xMax="612" yMax="556">
      <contour>
        <pt x="473" y="345" on="1"/>
        <pt x="473" y="291" on="1"/>
        <pt x="473" y="249" on="0"/>
        <pt x="446" y="189" on="0"/>
        <pt x="404" y="145" on="0"/>
        <pt x="357" y="112" on="0"/>
        <pt x="315" y="81" on="0"/>
        <pt x="288" y="48" on="0"/>
        <pt x="288" y="26" on="1"/>
        <pt x="288" y="9" on="0"/>
        <pt x="314" y="-14" on="0"/>
        <pt x="348" y="-14" on="1"/>
        <pt x="407" y="-14" on="0"/>
        <pt x="515" y="24" on="0"/>
        <pt x="559" y="45" on="1"/>
        <pt x="612" y="-159" on="1"/>
        <pt x="558" y="-187" on="0"/>
        <pt x="398" y="-236" on="0"/>
        <pt x="296" y="-236" on="1"/>
        <pt x="228" y="-236" on="0"/>
        <pt x="121" y="-203" on="0"/>
        <pt x="46" y="-144" on="0"/>
        <pt x="6" y="-65" on="0"/>
        <pt x="6" y="-19" on="1"/>
        <pt x="6" y="40" on="0"/>
        <pt x="40" y="114" on="0"/>
        <pt x="90" y="165" on="0"/>
        <pt x="150" y="202" on="0"/>
        <pt x="200" y="243" on="0"/>
        <pt x="234" y="300" on="0"/>
        <pt x="234" y="345" on="1"/>
      </contour>
      <contour>
        <pt x="473" y="392" on="1"/>
        <pt x="235" y="392" on="1"/>
        <pt x="235" y="556" on="1"/>
        <pt x="473" y="556" on="1"/>
      </contour>
    </TTGlyph>
    <TTGlyph name="quotedbl" xMin="28" yMin="556" xMax="377" yMax="778">
      <contour>
        <pt x="71" y="778" on="1"/>
        <pt x="205" y="778" on="1"/>
        <pt x="128" y="556" on="1"/>
        <pt x="28" y="556" on="1"/>
      </contour>
      <contour>
        <pt x="244" y="778" on="1"/>
        <pt x="377" y="778" on="1"/>
        <pt x="301" y="556" on="1"/>
        <pt x="201" y="556" on="1"/>
      </contour>
    </TTGlyph>
    <TTGlyph name="quotedblbase" xMin="30" yMin="-102" xMax="346" yMax="128">
      <contour>
        <pt x="30" y="128" on="1"/>
        <pt x="170" y="128" on="1"/>
        <pt x="170" y="0" on="1"/>
        <pt x="103" y="-102" on="1"/>
        <pt x="36" y="-102" on="1"/>
        <pt x="79" y="0" on="1"/>
        <pt x="30" y="0" on="1"/>
      </contour>
      <contour>
        <pt x="206" y="128" on="1"/>
        <pt x="346" y="128" on="1"/>
        <pt x="346" y="0" on="1"/>
        <pt x="279" y="-102" on="1"/>
        <pt x="212" y="-102" on="1"/>
        <pt x="255" y="0" on="1"/>
        <pt x="206" y="0" on="1"/>
      </contour>
    </TTGlyph>
    <TTGlyph name="quotedblleft" xMin="40" yMin="548" xMax="356" yMax="778">
      <contour>
        <pt x="356" y="548" on="1"/>
        <pt x="216" y="548" on="1"/>
        <pt x="216" y="676" on="1"/>
        <pt x="283" y="778" on="1"/>
        <pt x="350" y="778" on="1"/>
        <pt x="307" y="676" on="1"/>
        <pt x="356" y="676" on="1"/>
      </contour>
      <contour>
        <pt x="180" y="548" on="1"/>
        <pt x="40" y="548" on="1"/>
        <pt x="40" y="676" on="1"/>
        <pt x="107" y="778" on="1"/>
        <pt x="174" y="778" on="1"/>
        <pt x="131" y="676" on="1"/>
        <pt x="180" y="676" on="1"/>
      </contour>
    </TTGlyph>
    <TTGlyph name="quotedblright" xMin="30" yMin="548" xMax="346" yMax="778">
      <contour>
        <pt x="30" y="778" on="1"/>
        <pt x="170" y="778" on="1"/>
        <pt x="170" y="650" on="1"/>
        <pt x="103" y="548" on="1"/>
        <pt x="36" y="548" on="1"/>
        <pt x="79" y="650" on="1"/>
        <pt x="30" y="650" on="1"/>
      </contour>
      <contour>
        <pt x="206" y="778" on="1"/>
        <pt x="346" y="778" on="1"/>
        <pt x="346" y="650" on="1"/>
        <pt x="279" y="548" on="1"/>
        <pt x="212" y="548" on="1"/>
        <pt x="255" y="650" on="1"/>
        <pt x="206" y="650" on="1"/>
      </contour>
    </TTGlyph>
    <TTGlyph name="quoteleft" xMin="40" yMin="548" xMax="180" yMax="778">
      <contour>
        <pt x="180" y="548" on="1"/>
        <pt x="40" y="548" on="1"/>
        <pt x="40" y="676" on="1"/>
        <pt x="107" y="778" on="1"/>
        <pt x="174" y="778" on="1"/>
        <pt x="131" y="676" on="1"/>
        <pt x="180" y="676" on="1"/>
      </contour>
    </TTGlyph>
    <TTGlyph name="quoteright" xMin="30" yMin="548" xMax="170" yMax="778">
      <contour>
        <pt x="30" y="778" on="1"/>
        <pt x="170" y="778" on="1"/>
        <pt x="170" y="650" on="1"/>
        <pt x="103" y="548" on="1"/>
        <pt x="36" y="548" on="1"/>
        <pt x="79" y="650" on="1"/>
        <pt x="30" y="650" on="1"/>
      </contour>
    </TTGlyph>
    <TTGlyph name="quotesinglbase" xMin="30" yMin="-102" xMax="170" yMax="128">
      <contour>
        <pt x="30" y="128" on="1"/>
        <pt x="170" y="128" on="1"/>
        <pt x="170" y="0" on="1"/>
        <pt x="103" y="-102" on="1"/>
        <pt x="36" y="-102" on="1"/>
        <pt x="79" y="0" on="1"/>
        <pt x="30" y="0" on="1"/>
      </contour>
    </TTGlyph>
    <TTGlyph name="quotesingle" xMin="28" yMin="556" xMax="228" yMax="778">
      <contour>
        <pt x="71" y="778" on="1"/>
        <pt x="228" y="778" on="1"/>
        <pt x="151" y="556" on="1"/>
        <pt x="28" y="556" on="1"/>
      </contour>
    </TTGlyph>
    <TTGlyph name="r" xMin="18" yMin="0" xMax="511" yMax="570">
      <contour>
        <pt x="18" y="556" on="1"/>
        <pt x="292" y="556" on="1"/>
        <pt x="292" y="490" on="1"/>
        <pt x="302" y="487" on="1"/>
        <pt x="309" y="501" on="0"/>
        <pt x="331" y="531" on="0"/>
        <pt x="363" y="555" on="0"/>
        <pt x="404" y="570" on="0"/>
        <pt x="430" y="570" on="1"/>
        <pt x="451" y="570" on="0"/>
        <pt x="491" y="564" on="0"/>
        <pt x="511" y="556" on="1"/>
        <pt x="511" y="383" on="1"/>
        <pt x="478" y="389" on="0"/>
        <pt x="433" y="392" on="0"/>
        <pt x="418" y="392" on="1"/>
        <pt x="352" y="392" on="0"/>
        <pt x="292" y="333" on="0"/>
        <pt x="292" y="261" on="1"/>
        <pt x="292" y="164" on="1"/>
        <pt x="383" y="164" on="1"/>
        <pt x="383" y="0" on="1"/>
        <pt x="18" y="0" on="1"/>
        <pt x="18" y="164" on="1"/>
        <pt x="62" y="164" on="1"/>
        <pt x="62" y="392" on="1"/>
        <pt x="18" y="392" on="1"/>
      </contour>
    </TTGlyph>
    <TTGlyph name="rcaron" xMin="18" yMin="0" xMax="511" yMax="778">
      <component glyphName="r" x="0" y="0" flags="0x204"/>
      <component glyphName="caron" x="64" y="0" flags="0x4"/>
    </TTGlyph>
    <TTGlyph name="rcommaaccent" xMin="18" yMin="-333" xMax="511" yMax="570">
      <component glyphName="r" x="0" y="0" flags="0x204"/>
      <component glyphName="commaaccent" x="31" y="0" flags="0x4"/>
    </TTGlyph>
    <TTGlyph name="registered" xMin="24" yMin="126" xMax="690" yMax="792">
      <contour>
        <pt x="340" y="375" on="1"/>
        <pt x="366" y="375" on="1"/>
        <pt x="366" y="306" on="1"/>
        <pt x="211" y="306" on="1"/>
        <pt x="211" y="375" on="1"/>
        <pt x="238" y="375" on="1"/>
        <pt x="238" y="546" on="1"/>
        <pt x="211" y="546" on="1"/>
        <pt x="211" y="616" on="1"/>
        <pt x="396" y="616" on="1"/>
        <pt x="447" y="616" on="0"/>
        <pt x="501" y="575" on="0"/>
        <pt x="501" y="527" on="1"/>
        <pt x="501" y="471" on="0"/>
        <pt x="461" y="452" on="1"/>
        <pt x="461" y="448" on="1"/>
        <pt x="479" y="444" on="0"/>
        <pt x="499" y="424" on="0"/>
        <pt x="499" y="401" on="1"/>
        <pt x="499" y="375" on="1"/>
        <pt x="519" y="375" on="1"/>
        <pt x="519" y="306" on="1"/>
        <pt x="398" y="306" on="1"/>
        <pt x="398" y="398" on="1"/>
        <pt x="398" y="424" on="0"/>
        <pt x="366" y="436" on="0"/>
        <pt x="340" y="436" on="1"/>
      </contour>
      <contour>
        <pt x="376" y="485" on="1"/>
        <pt x="386" y="485" on="0"/>
        <pt x="396" y="496" on="0"/>
        <pt x="396" y="510" on="1"/>
        <pt x="396" y="531" on="1"/>
        <pt x="396" y="556" on="0"/>
        <pt x="376" y="556" on="1"/>
        <pt x="340" y="556" on="1"/>
        <pt x="340" y="485" on="1"/>
      </contour>
      <contour>
        <pt x="24" y="459" on="1"/>
        <pt x="24" y="528" on="0"/>
        <pt x="76" y="649" on="0"/>
        <pt x="167" y="740" on="0"/>
        <pt x="288" y="792" on="0"/>
        <pt x="357" y="792" on="1"/>
        <pt x="426" y="792" on="0"/>
        <pt x="547" y="740" on="0"/>
        <pt x="638" y="649" on="0"/>
        <pt x="690" y="528" on="0"/>
        <pt x="690" y="459" on="1"/>
        <pt x="690" y="390" on="0"/>
        <pt x="638" y="269" on="0"/>
        <pt x="547" y="178" on="0"/>
        <pt x="426" y="126" on="0"/>
        <pt x="357" y="126" on="1"/>
        <pt x="288" y="126" on="0"/>
        <pt x="167" y="178" on="0"/>
        <pt x="76" y="269" on="0"/>
        <pt x="24" y="390" on="0"/>
      </contour>
      <contour>
        <pt x="129" y="459" on="1"/>
        <pt x="129" y="411" on="0"/>
        <pt x="165" y="328" on="0"/>
        <pt x="226" y="267" on="0"/>
        <pt x="309" y="231" on="0"/>
        <pt x="357" y="231" on="1"/>
        <pt x="404" y="231" on="0"/>
        <pt x="487" y="267" on="0"/>
        <pt x="549" y="328" on="0"/>
        <pt x="585" y="411" on="0"/>
        <pt x="585" y="459" on="1"/>
        <pt x="585" y="506" on="0"/>
        <pt x="549" y="589" on="0"/>
        <pt x="487" y="651" on="0"/>
        <pt x="404" y="687" on="0"/>
        <pt x="357" y="687" on="1"/>
        <pt x="309" y="687" on="0"/>
        <pt x="226" y="651" on="0"/>
        <pt x="165" y="589" on="0"/>
        <pt x="129" y="506" on="0"/>
      </contour>
    </TTGlyph>
    <TTGlyph name="ring" xMin="-29" yMin="603" xMax="215" yMax="847">
      <contour>
        <pt x="-29" y="725" on="1"/>
        <pt x="-29" y="750" on="0"/>
        <pt x="-10" y="795" on="0"/>
        <pt x="23" y="828" on="0"/>
        <pt x="67" y="847" on="0"/>
        <pt x="93" y="847" on="1"/>
        <pt x="118" y="847" on="0"/>
        <pt x="163" y="828" on="0"/>
        <pt x="196" y="795" on="0"/>
        <pt x="215" y="750" on="0"/>
        <pt x="215" y="725" on="1"/>
        <pt x="215" y="699" on="0"/>
        <pt x="196" y="655" on="0"/>
        <pt x="163" y="622" on="0"/>
        <pt x="118" y="603" on="0"/>
        <pt x="93" y="603" on="1"/>
        <pt x="67" y="603" on="0"/>
        <pt x="23" y="622" on="0"/>
        <pt x="-10" y="655" on="0"/>
        <pt x="-29" y="699" on="0"/>
      </contour>
      <contour>
        <pt x="53" y="725" on="1"/>
        <pt x="53" y="708" on="0"/>
        <pt x="76" y="685" on="0"/>
        <pt x="93" y="685" on="1"/>
        <pt x="109" y="685" on="0"/>
        <pt x="132" y="708" on="0"/>
        <pt x="132" y="725" on="1"/>
        <pt x="132" y="741" on="0"/>
        <pt x="109" y="764" on="0"/>
        <pt x="93" y="764" on="1"/>
        <pt x="76" y="764" on="0"/>
        <pt x="53" y="741" on="0"/>
      </contour>
    </TTGlyph>
    <TTGlyph name="ring.cap" xMin="-22" yMin="792" xMax="222" yMax="1036">
      <contour>
        <pt x="-22" y="914" on="1"/>
        <pt x="-22" y="939" on="0"/>
        <pt x="-3" y="984" on="0"/>
        <pt x="30" y="1017" on="0"/>
        <pt x="74" y="1036" on="0"/>
        <pt x="100" y="1036" on="1"/>
        <pt x="125" y="1036" on="0"/>
        <pt x="170" y="1017" on="0"/>
        <pt x="203" y="984" on="0"/>
        <pt x="222" y="939" on="0"/>
        <pt x="222" y="914" on="1"/>
        <pt x="222" y="888" on="0"/>
        <pt x="203" y="844" on="0"/>
        <pt x="170" y="811" on="0"/>
        <pt x="125" y="792" on="0"/>
        <pt x="100" y="792" on="1"/>
        <pt x="74" y="792" on="0"/>
        <pt x="30" y="811" on="0"/>
        <pt x="-3" y="844" on="0"/>
        <pt x="-22" y="888" on="0"/>
      </contour>
      <contour>
        <pt x="60" y="914" on="1"/>
        <pt x="60" y="897" on="0"/>
        <pt x="83" y="874" on="0"/>
        <pt x="100" y="874" on="1"/>
        <pt x="116" y="874" on="0"/>
        <pt x="139" y="897" on="0"/>
        <pt x="139" y="914" on="1"/>
        <pt x="139" y="930" on="0"/>
        <pt x="116" y="953" on="0"/>
        <pt x="100" y="953" on="1"/>
        <pt x="83" y="953" on="0"/>
        <pt x="60" y="930" on="0"/>
      </contour>
    </TTGlyph>
    <TTGlyph name="s" xMin="6" yMin="-14" xMax="528" yMax="570">
      <contour>
        <pt x="35" y="156" on="1"/>
        <pt x="110" y="145" on="0"/>
        <pt x="206" y="138" on="0"/>
        <pt x="234" y="138" on="1"/>
        <pt x="278" y="138" on="0"/>
        <pt x="306" y="152" on="0"/>
        <pt x="306" y="164" on="1"/>
        <pt x="306" y="177" on="0"/>
        <pt x="276" y="190" on="0"/>
        <pt x="229" y="197" on="1"/>
        <pt x="125" y="211" on="0"/>
        <pt x="6" y="303" on="0"/>
        <pt x="6" y="387" on="1"/>
        <pt x="6" y="426" on="0"/>
        <pt x="34" y="493" on="0"/>
        <pt x="96" y="542" on="0"/>
        <pt x="193" y="570" on="0"/>
        <pt x="261" y="570" on="1"/>
        <pt x="335" y="570" on="0"/>
        <pt x="454" y="553" on="0"/>
        <pt x="493" y="540" on="1"/>
        <pt x="493" y="405" on="1"/>
        <pt x="445" y="411" on="0"/>
        <pt x="347" y="419" on="0"/>
        <pt x="303" y="419" on="1"/>
        <pt x="261" y="419" on="0"/>
        <pt x="226" y="407" on="0"/>
        <pt x="226" y="395" on="1"/>
        <pt x="226" y="389" on="0"/>
        <pt x="232" y="380" on="0"/>
        <pt x="249" y="373" on="0"/>
        <pt x="279" y="368" on="0"/>
        <pt x="302" y="366" on="1"/>
        <pt x="418" y="355" on="0"/>
        <pt x="528" y="263" on="0"/>
        <pt x="528" y="178" on="1"/>
        <pt x="528" y="89" on="0"/>
        <pt x="406" y="-14" on="0"/>
        <pt x="276" y="-14" on="1"/>
        <pt x="200" y="-14" on="0"/>
        <pt x="75" y="4" on="0"/>
        <pt x="35" y="17" on="1"/>
      </contour>
    </TTGlyph>
    <TTGlyph name="section" xMin="22" yMin="-94" xMax="578" yMax="716">
      <contour>
        <pt x="76" y="76" on="1"/>
        <pt x="160" y="63" on="0"/>
        <pt x="217" y="58" on="0"/>
        <pt x="240" y="58" on="1"/>
        <pt x="284" y="58" on="0"/>
        <pt x="312" y="73" on="0"/>
        <pt x="312" y="87" on="1"/>
        <pt x="312" y="94" on="0"/>
        <pt x="306" y="104" on="0"/>
        <pt x="289" y="112" on="0"/>
        <pt x="259" y="121" on="0"/>
        <pt x="235" y="127" on="1"/>
        <pt x="189" y="138" on="0"/>
        <pt x="111" y="168" on="0"/>
        <pt x="54" y="212" on="0"/>
        <pt x="22" y="271" on="0"/>
        <pt x="22" y="312" on="1"/>
        <pt x="22" y="399" on="0"/>
        <pt x="86" y="448" on="1"/>
        <pt x="66" y="486" on="0"/>
        <pt x="66" y="533" on="1"/>
        <pt x="66" y="572" on="0"/>
        <pt x="94" y="639" on="0"/>
        <pt x="156" y="688" on="0"/>
        <pt x="253" y="716" on="0"/>
        <pt x="321" y="716" on="1"/>
        <pt x="389" y="716" on="0"/>
        <pt x="489" y="696" on="0"/>
        <pt x="518" y="686" on="1"/>
        <pt x="518" y="551" on="1"/>
        <pt x="482" y="556" on="0"/>
        <pt x="406" y="565" on="0"/>
        <pt x="363" y="565" on="1"/>
        <pt x="321" y="565" on="0"/>
        <pt x="286" y="552" on="0"/>
        <pt x="286" y="538" on="1"/>
        <pt x="286" y="531" on="0"/>
        <pt x="292" y="521" on="0"/>
        <pt x="309" y="514" on="0"/>
        <pt x="339" y="506" on="0"/>
        <pt x="362" y="502" on="1"/>
        <pt x="464" y="482" on="0"/>
        <pt x="578" y="397" on="0"/>
        <pt x="578" y="320" on="1"/>
        <pt x="578" y="278" on="0"/>
        <pt x="548" y="202" on="0"/>
        <pt x="519" y="177" on="1"/>
        <pt x="534" y="144" on="0"/>
        <pt x="534" y="98" on="1"/>
        <pt x="534" y="9" on="0"/>
        <pt x="412" y="-94" on="0"/>
        <pt x="282" y="-94" on="1"/>
        <pt x="211" y="-94" on="0"/>
        <pt x="106" y="-74" on="0"/>
        <pt x="76" y="-63" on="1"/>
      </contour>
      <contour>
        <pt x="398" y="299" on="1"/>
        <pt x="398" y="316" on="0"/>
        <pt x="367" y="340" on="0"/>
        <pt x="316" y="351" on="1"/>
        <pt x="269" y="360" on="0"/>
        <pt x="246" y="360" on="1"/>
        <pt x="223" y="360" on="0"/>
        <pt x="209" y="344" on="0"/>
        <pt x="209" y="330" on="1"/>
        <pt x="209" y="310" on="0"/>
        <pt x="246" y="288" on="0"/>
        <pt x="302" y="278" on="1"/>
        <pt x="340" y="271" on="0"/>
        <pt x="363" y="271" on="1"/>
        <pt x="386" y="271" on="0"/>
        <pt x="398" y="286" on="0"/>
      </contour>
    </TTGlyph>
    <TTGlyph name="semicolon" xMin="40" yMin="-161" xMax="197" yMax="519">
      <contour>
        <pt x="41" y="164" on="1"/>
        <pt x="197" y="164" on="1"/>
        <pt x="197" y="0" on="1"/>
        <pt x="126" y="-161" on="1"/>
        <pt x="40" y="-161" on="1"/>
        <pt x="92" y="0" on="1"/>
        <pt x="41" y="0" on="1"/>
      </contour>
      <contour>
        <pt x="41" y="519" on="1"/>
        <pt x="197" y="519" on="1"/>
        <pt x="197" y="355" on="1"/>
        <pt x="41" y="355" on="1"/>
      </contour>
    </TTGlyph>
    <TTGlyph name="seven" xMin="10" yMin="0" xMax="638" yMax="778">
      <contour>
        <pt x="10" y="778" on="1"/>
        <pt x="638" y="778" on="1"/>
        <pt x="638" y="626" on="1"/>
        <pt x="574" y="522" on="0"/>
        <pt x="506" y="381" on="0"/>
        <pt x="458" y="268" on="0"/>
        <pt x="425" y="160" on="0"/>
        <pt x="405" y="51" on="0"/>
        <pt x="405" y="0" on="1"/>
        <pt x="122" y="0" on="1"/>
        <pt x="122" y="78" on="0"/>
        <pt x="169" y="235" on="0"/>
        <pt x="241" y="384" on="0"/>
        <pt x="328" y="528" on="0"/>
        <pt x="369" y="584" on="1"/>
        <pt x="220" y="584" on="1"/>
        <pt x="220" y="492" on="1"/>
        <pt x="10" y="492" on="1"/>
      </contour>
    </TTGlyph>
    <TTGlyph name="six" xMin="18" yMin="-14" xMax="685" yMax="792">
      <contour>
        <pt x="636" y="581" on="1"/>
        <pt x="601" y="592" on="0"/>
        <pt x="499" y="614" on="0"/>
        <pt x="439" y="614" on="1"/>
        <pt x="367" y="614" on="0"/>
        <pt x="302" y="537" on="0"/>
        <pt x="302" y="477" on="1"/>
        <pt x="302" y="448" on="1"/>
        <pt x="332" y="459" on="0"/>
        <pt x="412" y="476" on="0"/>
        <pt x="449" y="476" on="1"/>
        <pt x="494" y="476" on="0"/>
        <pt x="579" y="456" on="0"/>
        <pt x="645" y="405" on="0"/>
        <pt x="685" y="319" on="0"/>
        <pt x="685" y="253" on="1"/>
        <pt x="685" y="114" on="0"/>
        <pt x="521" y="-14" on="0"/>
        <pt x="370" y="-14" on="1"/>
        <pt x="289" y="-14" on="0"/>
        <pt x="159" y="28" on="0"/>
        <pt x="68" y="114" on="0"/>
        <pt x="18" y="245" on="0"/>
        <pt x="18" y="334" on="1"/>
        <pt x="18" y="457" on="0"/>
        <pt x="73" y="631" on="0"/>
        <pt x="173" y="741" on="0"/>
        <pt x="311" y="792" on="0"/>
        <pt x="395" y="792" on="1"/>
        <pt x="438" y="792" on="0"/>
        <pt x="510" y="783" on="0"/>
        <pt x="570" y="768" on="0"/>
        <pt x="617" y="750" on="0"/>
        <pt x="636" y="742" on="1"/>
      </contour>
      <contour>
        <pt x="367" y="319" on="1"/>
        <pt x="355" y="319" on="0"/>
        <pt x="321" y="313" on="0"/>
        <pt x="302" y="306" on="1"/>
        <pt x="302" y="238" on="1"/>
        <pt x="302" y="199" on="0"/>
        <pt x="336" y="164" on="0"/>
        <pt x="370" y="164" on="1"/>
        <pt x="404" y="164" on="0"/>
        <pt x="438" y="199" on="0"/>
        <pt x="438" y="238" on="1"/>
        <pt x="438" y="319" on="0"/>
      </contour>
    </TTGlyph>
    <TTGlyph name="slash" xMin="-20" yMin="-151" xMax="443" yMax="842">
      <contour>
        <pt x="301" y="842" on="1"/>
        <pt x="443" y="842" on="1"/>
        <pt x="443" y="810" on="1"/>
        <pt x="123" y="-151" on="1"/>
        <pt x="-20" y="-151" on="1"/>
        <pt x="-20" y="-119" on="1"/>
      </contour>
    </TTGlyph>
    <TTGlyph name="sterling" xMin="24" yMin="-14" xMax="612" yMax="792">
      <contour>
        <pt x="25" y="440" on="1"/>
        <pt x="73" y="440" on="1"/>
        <pt x="63" y="462" on="0"/>
        <pt x="50" y="522" on="0"/>
        <pt x="50" y="567" on="1"/>
        <pt x="50" y="612" on="0"/>
        <pt x="85" y="693" on="0"/>
        <pt x="157" y="755" on="0"/>
        <pt x="268" y="792" on="0"/>
        <pt x="345" y="792" on="1"/>
        <pt x="420" y="792" on="0"/>
        <pt x="546" y="761" on="0"/>
        <pt x="591" y="735" on="1"/>
        <pt x="591" y="569" on="1"/>
        <pt x="410" y="569" on="1"/>
        <pt x="410" y="590" on="1"/>
        <pt x="408" y="598" on="0"/>
        <pt x="384" y="618" on="0"/>
        <pt x="355" y="618" on="1"/>
        <pt x="322" y="618" on="0"/>
        <pt x="290" y="586" on="0"/>
        <pt x="290" y="548" on="1"/>
        <pt x="290" y="520" on="0"/>
        <pt x="303" y="467" on="0"/>
        <pt x="311" y="440" on="1"/>
        <pt x="477" y="440" on="1"/>
        <pt x="477" y="315" on="1"/>
        <pt x="330" y="315" on="1"/>
        <pt x="329" y="280" on="0"/>
        <pt x="314" y="220" on="0"/>
        <pt x="301" y="197" on="1"/>
        <pt x="321" y="189" on="0"/>
        <pt x="362" y="177" on="0"/>
        <pt x="391" y="177" on="1"/>
        <pt x="414" y="177" on="0"/>
        <pt x="443" y="187" on="0"/>
        <pt x="460" y="203" on="0"/>
        <pt x="466" y="220" on="0"/>
        <pt x="466" y="228" on="1"/>
        <pt x="612" y="228" on="1"/>
        <pt x="612" y="190" on="0"/>
        <pt x="599" y="105" on="0"/>
        <pt x="556" y="33" on="0"/>
        <pt x="472" y="-14" on="0"/>
        <pt x="402" y="-14" on="1"/>
        <pt x="367" y="-14" on="0"/>
        <pt x="318" y="-3" on="0"/>
        <pt x="275" y="9" on="0"/>
        <pt x="231" y="20" on="0"/>
        <pt x="202" y="20" on="1"/>
        <pt x="162" y="20" on="0"/>
        <pt x="118" y="0" on="0"/>
        <pt x="110" y="-10" on="1"/>
        <pt x="24" y="76" on="1"/>
        <pt x="37" y="92" on="0"/>
        <pt x="67" y="134" on="0"/>
        <pt x="93" y="186" on="0"/>
        <pt x="110" y="247" on="0"/>
        <pt x="110" y="283" on="1"/>
        <pt x="110" y="291" on="0"/>
        <pt x="110" y="307" on="0"/>
        <pt x="109" y="315" on="1"/>
        <pt x="25" y="315" on="1"/>
      </contour>
    </TTGlyph>
    <TTGlyph name="t" xMin="4" yMin="-14" xMax="433" yMax="674">
      <contour>
        <pt x="292" y="556" on="1"/>
        <pt x="427" y="556" on="1"/>
        <pt x="427" y="392" on="1"/>
        <pt x="292" y="392" on="1"/>
        <pt x="292" y="228" on="1"/>
        <pt x="292" y="194" on="0"/>
        <pt x="321" y="164" on="0"/>
        <pt x="350" y="164" on="1"/>
        <pt x="390" y="164" on="0"/>
        <pt x="433" y="173" on="1"/>
        <pt x="433" y="16" on="1"/>
        <pt x="401" y="4" on="0"/>
        <pt x="312" y="-14" on="0"/>
        <pt x="261" y="-14" on="1"/>
        <pt x="210" y="-14" on="0"/>
        <pt x="131" y="8" on="0"/>
        <pt x="77" y="61" on="0"/>
        <pt x="48" y="147" on="0"/>
        <pt x="48" y="211" on="1"/>
        <pt x="48" y="392" on="1"/>
        <pt x="4" y="392" on="1"/>
        <pt x="4" y="556" on="1"/>
        <pt x="44" y="556" on="0"/>
        <pt x="80" y="597" on="0"/>
        <pt x="80" y="629" on="1"/>
        <pt x="80" y="674" on="1"/>
        <pt x="292" y="674" on="1"/>
      </contour>
    </TTGlyph>
    <TTGlyph name="thorn" xMin="6" yMin="-222" xMax="640" yMax="778">
      <contour>
        <pt x="6" y="778" on="1"/>
        <pt x="280" y="778" on="1"/>
        <pt x="280" y="488" on="1"/>
        <pt x="289" y="500" on="0"/>
        <pt x="318" y="529" on="0"/>
        <pt x="358" y="553" on="0"/>
        <pt x="406" y="570" on="0"/>
        <pt x="435" y="570" on="1"/>
        <pt x="539" y="570" on="0"/>
        <pt x="640" y="417" on="0"/>
        <pt x="640" y="278" on="1"/>
        <pt x="640" y="139" on="0"/>
        <pt x="539" y="-14" on="0"/>
        <pt x="435" y="-14" on="1"/>
        <pt x="406" y="-14" on="0"/>
        <pt x="358" y="3" on="0"/>
        <pt x="318" y="27" on="0"/>
        <pt x="289" y="56" on="0"/>
        <pt x="280" y="68" on="1"/>
        <pt x="280" y="-58" on="1"/>
        <pt x="349" y="-58" on="1"/>
        <pt x="349" y="-222" on="1"/>
        <pt x="6" y="-222" on="1"/>
        <pt x="6" y="-58" on="1"/>
        <pt x="50" y="-58" on="1"/>
        <pt x="50" y="614" on="1"/>
        <pt x="6" y="614" on="1"/>
      </contour>
      <contour>
        <pt x="396" y="328" on="1"/>
        <pt x="396" y="362" on="0"/>
        <pt x="367" y="392" on="0"/>
        <pt x="338" y="392" on="1"/>
        <pt x="309" y="392" on="0"/>
        <pt x="280" y="362" on="0"/>
        <pt x="280" y="328" on="1"/>
        <pt x="280" y="228" on="1"/>
        <pt x="280" y="194" on="0"/>
        <pt x="309" y="164" on="0"/>
        <pt x="338" y="164" on="1"/>
        <pt x="367" y="164" on="0"/>
        <pt x="396" y="194" on="0"/>
        <pt x="396" y="228" on="1"/>
      </contour>
    </TTGlyph>
    <TTGlyph name="three" xMin="24" yMin="-14" xMax="611" yMax="792">
      <contour>
        <pt x="218" y="473" on="1"/>
        <pt x="289" y="473" on="1"/>
        <pt x="327" y="473" on="0"/>
        <pt x="360" y="509" on="0"/>
        <pt x="360" y="540" on="1"/>
        <pt x="360" y="579" on="0"/>
        <pt x="326" y="614" on="0"/>
        <pt x="292" y="614" on="1"/>
        <pt x="258" y="614" on="0"/>
        <pt x="224" y="579" on="0"/>
        <pt x="224" y="540" on="1"/>
        <pt x="224" y="523" on="1"/>
        <pt x="24" y="523" on="1"/>
        <pt x="24" y="727" on="1"/>
        <pt x="42" y="737" on="0"/>
        <pt x="93" y="760" on="0"/>
        <pt x="163" y="780" on="0"/>
        <pt x="253" y="792" on="0"/>
        <pt x="310" y="792" on="1"/>
        <pt x="451" y="792" on="0"/>
        <pt x="596" y="676" on="0"/>
        <pt x="596" y="570" on="1"/>
        <pt x="596" y="536" on="0"/>
        <pt x="578" y="483" on="0"/>
        <pt x="551" y="443" on="0"/>
        <pt x="518" y="413" on="0"/>
        <pt x="504" y="402" on="1"/>
        <pt x="504" y="392" on="1"/>
        <pt x="520" y="382" on="0"/>
        <pt x="557" y="354" on="0"/>
        <pt x="589" y="314" on="0"/>
        <pt x="611" y="258" on="0"/>
        <pt x="611" y="221" on="1"/>
        <pt x="611" y="168" on="0"/>
        <pt x="573" y="81" on="0"/>
        <pt x="496" y="19" on="0"/>
        <pt x="379" y="-14" on="0"/>
        <pt x="300" y="-14" on="1"/>
        <pt x="246" y="-14" on="0"/>
        <pt x="161" y="-1" on="0"/>
        <pt x="94" y="18" on="0"/>
        <pt x="43" y="43" on="0"/>
        <pt x="24" y="55" on="1"/>
        <pt x="24" y="266" on="1"/>
        <pt x="224" y="266" on="1"/>
        <pt x="224" y="238" on="1"/>
        <pt x="224" y="199" on="0"/>
        <pt x="258" y="164" on="0"/>
        <pt x="292" y="164" on="1"/>
        <pt x="326" y="164" on="0"/>
        <pt x="360" y="200" on="0"/>
        <pt x="360" y="248" on="1"/>
        <pt x="360" y="285" on="0"/>
        <pt x="327" y="322" on="0"/>
        <pt x="290" y="322" on="1"/>
        <pt x="218" y="322" on="1"/>
      </contour>
    </TTGlyph>
    <TTGlyph name="threequarters" xMin="4" yMin="0" xMax="797" yMax="792">
      <contour>
        <pt x="528" y="778" on="1"/>
        <pt x="670" y="778" on="1"/>
        <pt x="670" y="746" on="1"/>
        <pt x="206" y="0" on="1"/>
        <pt x="63" y="0" on="1"/>
        <pt x="63" y="32" on="1"/>
      </contour>
      <contour>
        <pt x="576" y="181" on="1"/>
        <pt x="631" y="181" on="1"/>
        <pt x="631" y="262" on="1"/>
        <pt x="758" y="262" on="1"/>
        <pt x="758" y="181" on="1"/>
        <pt x="797" y="181" on="1"/>
        <pt x="797" y="85" on="1"/>
        <pt x="758" y="85" on="1"/>
        <pt x="758" y="0" on="1"/>
        <pt x="631" y="0" on="1"/>
        <pt x="631" y="85" on="1"/>
        <pt x="459" y="85" on="1"/>
        <pt x="459" y="167" on="1"/>
        <pt x="507" y="381" on="1"/>
        <pt x="619" y="381" on="1"/>
      </contour>
      <contour>
        <pt x="40" y="631" on="1"/>
        <pt x="61" y="631" on="0"/>
        <pt x="87" y="635" on="0"/>
        <pt x="101" y="642" on="0"/>
        <pt x="105" y="653" on="0"/>
        <pt x="105" y="659" on="1"/>
        <pt x="105" y="669" on="0"/>
        <pt x="93" y="682" on="0"/>
        <pt x="70" y="682" on="1"/>
        <pt x="56" y="682" on="0"/>
        <pt x="33" y="681" on="0"/>
        <pt x="25" y="680" on="1"/>
        <pt x="7" y="678" on="1"/>
        <pt x="7" y="771" on="1"/>
        <pt x="21" y="778" on="0"/>
        <pt x="75" y="792" on="0"/>
        <pt x="114" y="792" on="1"/>
        <pt x="171" y="792" on="0"/>
        <pt x="240" y="736" on="0"/>
        <pt x="240" y="691" on="1"/>
        <pt x="240" y="633" on="0"/>
        <pt x="192" y="596" on="1"/>
        <pt x="218" y="580" on="0"/>
        <pt x="248" y="535" on="0"/>
        <pt x="248" y="503" on="1"/>
        <pt x="248" y="476" on="0"/>
        <pt x="227" y="434" on="0"/>
        <pt x="191" y="405" on="0"/>
        <pt x="142" y="390" on="0"/>
        <pt x="114" y="390" on="1"/>
        <pt x="62" y="390" on="0"/>
        <pt x="34" y="399" on="1"/>
        <pt x="4" y="408" on="1"/>
        <pt x="4" y="508" on="1"/>
        <pt x="23" y="505" on="1"/>
        <pt x="41" y="502" on="0"/>
        <pt x="70" y="502" on="1"/>
        <pt x="93" y="502" on="0"/>
        <pt x="106" y="517" on="0"/>
        <pt x="106" y="530" on="1"/>
        <pt x="106" y="537" on="0"/>
        <pt x="102" y="548" on="0"/>
        <pt x="88" y="556" on="0"/>
        <pt x="62" y="560" on="0"/>
        <pt x="40" y="560" on="1"/>
      </contour>
    </TTGlyph>
    <TTGlyph name="threesuperior" xMin="18" yMin="421" xMax="262" yMax="823">
      <contour>
        <pt x="54" y="662" on="1"/>
        <pt x="75" y="662" on="0"/>
        <pt x="101" y="666" on="0"/>
        <pt x="115" y="673" on="0"/>
        <pt x="119" y="684" on="0"/>
        <pt x="119" y="690" on="1"/>
        <pt x="119" y="700" on="0"/>
        <pt x="106" y="713" on="0"/>
        <pt x="84" y="713" on="1"/>
        <pt x="70" y="713" on="0"/>
        <pt x="38" y="711" on="0"/>
        <pt x="21" y="709" on="1"/>
        <pt x="21" y="802" on="1"/>
        <pt x="36" y="809" on="0"/>
        <pt x="94" y="823" on="0"/>
        <pt x="128" y="823" on="1"/>
        <pt x="183" y="823" on="0"/>
        <pt x="254" y="767" on="0"/>
        <pt x="254" y="722" on="1"/>
        <pt x="254" y="664" on="0"/>
        <pt x="206" y="627" on="1"/>
        <pt x="232" y="611" on="0"/>
        <pt x="262" y="566" on="0"/>
        <pt x="262" y="534" on="1"/>
        <pt x="262" y="507" on="0"/>
        <pt x="241" y="465" on="0"/>
        <pt x="205" y="436" on="0"/>
        <pt x="156" y="421" on="0"/>
        <pt x="128" y="421" on="1"/>
        <pt x="69" y="421" on="0"/>
        <pt x="18" y="439" on="1"/>
        <pt x="18" y="539" on="1"/>
        <pt x="51" y="533" on="0"/>
        <pt x="84" y="533" on="1"/>
        <pt x="106" y="533" on="0"/>
        <pt x="120" y="548" on="0"/>
        <pt x="120" y="561" on="1"/>
        <pt x="120" y="568" on="0"/>
        <pt x="116" y="579" on="0"/>
        <pt x="102" y="587" on="0"/>
        <pt x="76" y="591" on="0"/>
        <pt x="54" y="591" on="1"/>
      </contour>
    </TTGlyph>
    <TTGlyph name="tilde" xMin="41" yMin="611" xMax="466" yMax="793">
      <contour>
        <pt x="41" y="622" on="1"/>
        <pt x="41" y="661" on="0"/>
        <pt x="51" y="725" on="0"/>
        <pt x="78" y="769" on="0"/>
        <pt x="125" y="793" on="0"/>
        <pt x="161" y="793" on="1"/>
        <pt x="189" y="793" on="0"/>
        <pt x="243" y="779" on="0"/>
        <pt x="295" y="761" on="0"/>
        <pt x="345" y="747" on="0"/>
        <pt x="371" y="747" on="1"/>
        <pt x="394" y="747" on="0"/>
        <pt x="410" y="771" on="0"/>
        <pt x="410" y="782" on="1"/>
        <pt x="466" y="782" on="1"/>
        <pt x="466" y="743" on="0"/>
        <pt x="458" y="680" on="0"/>
        <pt x="434" y="635" on="0"/>
        <pt x="389" y="611" on="0"/>
        <pt x="353" y="611" on="1"/>
        <pt x="327" y="611" on="0"/>
        <pt x="274" y="626" on="0"/>
        <pt x="219" y="644" on="0"/>
        <pt x="164" y="659" on="0"/>
        <pt x="138" y="659" on="1"/>
        <pt x="115" y="659" on="0"/>
        <pt x="94" y="633" on="0"/>
        <pt x="94" y="622" on="1"/>
      </contour>
    </TTGlyph>
</ttFont>
